<?xml version="1.0" encoding="utf-8"?>
<!-- Generator: Adobe Illustrator 22.0.0, SVG Export Plug-In . SVG Version: 6.00 Build 0)  -->
<svg version="1.1" id="Layer_1" xmlns="http://www.w3.org/2000/svg" xmlns:xlink="http://www.w3.org/1999/xlink" x="0px" y="0px"
	 viewBox="0 0 1344 768" style="enable-background:new 0 0 1344 768;" xml:space="preserve">
<style type="text/css">
	.st0{fill:#252525;}
	.st1{fill:#212121;}
	.st2{fill:#242424;}
	.st3{fill:#202020;}
	.st4{fill:#232323;}
</style>
<polygon id="bgt1" class="st0" points="96,0 84,84 0,96 0,0 "/>
<polygon id="bgt2" class="st1" points="96,0 132,48 96,96 48,132 0,96 "/>
<polygon id="bgt3" class="st2" points="96,0 180,12 192,96 144,132 96,96 "/>
<polygon id="bgt4" class="st1" points="96,0 216,0 216,144 192,96 "/>
<polygon id="bgt5" class="st3" points="120,192 84,108 0,96 0,216 48,228 "/>
<polygon id="bgt6" class="st1" points="96,192 132,144 96,96 0,96 "/>
<polygon id="bgt7" class="st4" points="96,192 180,180 192,96 96,96 "/>
<polygon id="bgt8" class="st3" points="96,192 144,228 216,216 228,144 192,96 "/>
<polygon id="bgt1_1_" class="st0" points="288,0 276,84 192,96 192,0 "/>
<polygon id="bgt2_1_" class="st1" points="288,0 324,48 288,96 240,132 192,96 "/>
<polygon id="bgt3_1_" class="st2" points="288,0 372,12 384,96 336,132 288,96 "/>
<polygon id="bgt4_1_" class="st1" points="288,0 408,0 408,144 384,96 "/>
<polygon id="bgt5_1_" class="st3" points="312,192 276,108 192,96 192,216 240,228 "/>
<polygon id="bgt6_1_" class="st1" points="288,192 324,144 288,96 192,96 "/>
<polygon id="bgt7_1_" class="st4" points="288,192 372,180 384,96 288,96 "/>
<polygon id="bgt8_1_" class="st3" points="288,192 336,228 408,216 420,144 384,96 "/>
<polygon id="bgt1_3_" class="st0" points="480,0 468,84 384,96 384,0 "/>
<polygon id="bgt2_3_" class="st1" points="480,0 516,48 480,96 432,132 384,96 "/>
<polygon id="bgt3_3_" class="st2" points="480,0 564,12 576,96 528,132 480,96 "/>
<polygon id="bgt4_3_" class="st1" points="480,0 600,0 600,144 576,96 "/>
<polygon id="bgt5_3_" class="st3" points="504,192 468,108 384,96 384,216 432,228 "/>
<polygon id="bgt6_3_" class="st1" points="480,192 516,144 480,96 384,96 "/>
<polygon id="bgt7_3_" class="st4" points="480,192 564,180 576,96 480,96 "/>
<polygon id="bgt8_3_" class="st3" points="480,192 528,228 600,216 612,144 576,96 "/>
<polygon id="bgt1_2_" class="st0" points="672,0 660,84 576,96 576,0 "/>
<polygon id="bgt2_2_" class="st1" points="672,0 708,48 672,96 624,132 576,96 "/>
<polygon id="bgt3_2_" class="st2" points="672,0 756,12 768,96 720,132 672,96 "/>
<polygon id="bgt4_2_" class="st1" points="672,0 792,0 792,144 768,96 "/>
<polygon id="bgt5_2_" class="st3" points="696,192 660,108 576,96 576,216 624,228 "/>
<polygon id="bgt6_2_" class="st1" points="672,192 708,144 672,96 576,96 "/>
<polygon id="bgt7_2_" class="st4" points="672,192 756,180 768,96 672,96 "/>
<polygon id="bgt8_2_" class="st3" points="672,192 720,228 792,216 804,144 768,96 "/>
<polygon id="bgt1_5_" class="st0" points="864,0 852,84 768,96 768,0 "/>
<polygon id="bgt2_5_" class="st1" points="864,0 900,48 864,96 816,132 768,96 "/>
<polygon id="bgt3_5_" class="st2" points="864,0 948,12 960,96 912,132 864,96 "/>
<polygon id="bgt4_5_" class="st1" points="864,0 984,0 984,144 960,96 "/>
<polygon id="bgt5_5_" class="st3" points="888,192 852,108 768,96 768,216 816,228 "/>
<polygon id="bgt6_5_" class="st1" points="864,192 900,144 864,96 768,96 "/>
<polygon id="bgt7_5_" class="st4" points="864,192 948,180 960,96 864,96 "/>
<polygon id="bgt8_5_" class="st3" points="864,192 912,228 984,216 996,144 960,96 "/>
<polygon id="bgt1_4_" class="st0" points="1056,0 1044,84 960,96 960,0 "/>
<polygon id="bgt2_4_" class="st1" points="1056,0 1092,48 1056,96 1008,132 960,96 "/>
<polygon id="bgt3_4_" class="st2" points="1056,0 1140,12 1152,96 1104,132 1056,96 "/>
<polygon id="bgt4_4_" class="st1" points="1056,0 1176,0 1176,144 1152,96 "/>
<polygon id="bgt5_4_" class="st3" points="1080,192 1044,108 960,96 960,216 1008,228 "/>
<polygon id="bgt6_4_" class="st1" points="1056,192 1092,144 1056,96 960,96 "/>
<polygon id="bgt7_4_" class="st4" points="1056,192 1140,180 1152,96 1056,96 "/>
<polygon id="bgt8_4_" class="st3" points="1056,192 1104,228 1176,216 1188,144 1152,96 "/>
<polygon id="bgt1_7_" class="st0" points="1248,0 1236,84 1152,96 1152,0 "/>
<polygon id="bgt2_7_" class="st1" points="1248,0 1284,48 1248,96 1200,132 1152,96 "/>
<polygon id="bgt3_7_" class="st2" points="1248,0 1332,12 1344,96 1296,132 1248,96 "/>
<polygon id="bgt4_7_" class="st1" points="1248,0 1368,0 1368,144 1344,96 "/>
<polygon id="bgt5_7_" class="st3" points="1272,192 1236,108 1152,96 1152,216 1200,228 "/>
<polygon id="bgt6_7_" class="st1" points="1248,192 1284,144 1248,96 1152,96 "/>
<polygon id="bgt7_7_" class="st4" points="1248,192 1332,180 1344,96 1248,96 "/>
<polygon id="bgt8_7_" class="st3" points="1248,192 1296,228 1368,216 1380,144 1344,96 "/>
<polygon id="bgt1_13_" class="st0" points="96,192 84,276 0,288 0,192 "/>
<polygon id="bgt2_13_" class="st1" points="96,192 132,240 96,288 48,324 0,288 "/>
<polygon id="bgt3_13_" class="st2" points="96,192 180,204 192,288 144,324 96,288 "/>
<polygon id="bgt4_13_" class="st1" points="96,192 216,192 216,336 192,288 "/>
<polygon id="bgt5_13_" class="st3" points="120,384 84,300 0,288 0,408 48,420 "/>
<polygon id="bgt6_13_" class="st1" points="96,384 132,336 96,288 0,288 "/>
<polygon id="bgt7_13_" class="st4" points="96,384 180,372 192,288 96,288 "/>
<polygon id="bgt8_13_" class="st3" points="96,384 144,420 216,408 228,336 192,288 "/>
<polygon id="bgt1_12_" class="st0" points="288,192 276,276 192,288 192,192 "/>
<polygon id="bgt2_12_" class="st1" points="288,192 324,240 288,288 240,324 192,288 "/>
<polygon id="bgt3_12_" class="st2" points="288,192 372,204 384,288 336,324 288,288 "/>
<polygon id="bgt4_12_" class="st1" points="288,192 408,192 408,336 384,288 "/>
<polygon id="bgt5_12_" class="st3" points="312,384 276,300 192,288 192,408 240,420 "/>
<polygon id="bgt6_12_" class="st1" points="288,384 324,336 288,288 192,288 "/>
<polygon id="bgt7_12_" class="st4" points="288,384 372,372 384,288 288,288 "/>
<polygon id="bgt8_12_" class="st3" points="288,384 336,420 408,408 420,336 384,288 "/>
<polygon id="bgt1_11_" class="st0" points="480,192 468,276 384,288 384,192 "/>
<polygon id="bgt2_11_" class="st1" points="480,192 516,240 480,288 432,324 384,288 "/>
<polygon id="bgt3_11_" class="st2" points="480,192 564,204 576,288 528,324 480,288 "/>
<polygon id="bgt4_11_" class="st1" points="480,192 600,192 600,336 576,288 "/>
<polygon id="bgt5_11_" class="st3" points="504,384 468,300 384,288 384,408 432,420 "/>
<polygon id="bgt6_11_" class="st1" points="480,384 516,336 480,288 384,288 "/>
<polygon id="bgt7_11_" class="st4" points="480,384 564,372 576,288 480,288 "/>
<polygon id="bgt8_11_" class="st3" points="480,384 528,420 600,408 612,336 576,288 "/>
<polygon id="bgt1_10_" class="st0" points="672,192 660,276 576,288 576,192 "/>
<polygon id="bgt2_10_" class="st1" points="672,192 708,240 672,288 624,324 576,288 "/>
<polygon id="bgt3_10_" class="st2" points="672,192 756,204 768,288 720,324 672,288 "/>
<polygon id="bgt4_10_" class="st1" points="672,192 792,192 792,336 768,288 "/>
<polygon id="bgt5_10_" class="st3" points="696,384 660,300 576,288 576,408 624,420 "/>
<polygon id="bgt6_10_" class="st1" points="672,384 708,336 672,288 576,288 "/>
<polygon id="bgt7_10_" class="st4" points="672,384 756,372 768,288 672,288 "/>
<polygon id="bgt8_10_" class="st3" points="672,384 720,420 792,408 804,336 768,288 "/>
<polygon id="bgt1_9_" class="st0" points="864,192 852,276 768,288 768,192 "/>
<polygon id="bgt2_9_" class="st1" points="864,192 900,240 864,288 816,324 768,288 "/>
<polygon id="bgt3_9_" class="st2" points="864,192 948,204 960,288 912,324 864,288 "/>
<polygon id="bgt4_9_" class="st1" points="864,192 984,192 984,336 960,288 "/>
<polygon id="bgt5_9_" class="st3" points="888,384 852,300 768,288 768,408 816,420 "/>
<polygon id="bgt6_9_" class="st1" points="864,384 900,336 864,288 768,288 "/>
<polygon id="bgt7_9_" class="st4" points="864,384 948,372 960,288 864,288 "/>
<polygon id="bgt8_9_" class="st3" points="864,384 912,420 984,408 996,336 960,288 "/>
<polygon id="bgt1_8_" class="st0" points="1056,192 1044,276 960,288 960,192 "/>
<polygon id="bgt2_8_" class="st1" points="1056,192 1092,240 1056,288 1008,324 960,288 "/>
<polygon id="bgt3_8_" class="st2" points="1056,192 1140,204 1152,288 1104,324 1056,288 "/>
<polygon id="bgt4_8_" class="st1" points="1056,192 1176,192 1176,336 1152,288 "/>
<polygon id="bgt5_8_" class="st3" points="1080,384 1044,300 960,288 960,408 1008,420 "/>
<polygon id="bgt6_8_" class="st1" points="1056,384 1092,336 1056,288 960,288 "/>
<polygon id="bgt7_8_" class="st4" points="1056,384 1140,372 1152,288 1056,288 "/>
<polygon id="bgt8_8_" class="st3" points="1056,384 1104,420 1176,408 1188,336 1152,288 "/>
<polygon id="bgt1_6_" class="st0" points="1248,192 1236,276 1152,288 1152,192 "/>
<polygon id="bgt2_6_" class="st1" points="1248,192 1284,240 1248,288 1200,324 1152,288 "/>
<polygon id="bgt3_6_" class="st2" points="1248,192 1332,204 1344,288 1296,324 1248,288 "/>
<polygon id="bgt4_6_" class="st1" points="1248,192 1368,192 1368,336 1344,288 "/>
<polygon id="bgt5_6_" class="st3" points="1272,384 1236,300 1152,288 1152,408 1200,420 "/>
<polygon id="bgt6_6_" class="st1" points="1248,384 1284,336 1248,288 1152,288 "/>
<polygon id="bgt7_6_" class="st4" points="1248,384 1332,372 1344,288 1248,288 "/>
<polygon id="bgt8_6_" class="st3" points="1248,384 1296,420 1368,408 1380,336 1344,288 "/>
<polygon id="bgt1_20_" class="st0" points="96,384 84,468 0,480 0,384 "/>
<polygon id="bgt2_20_" class="st1" points="96,384 132,432 96,480 48,516 0,480 "/>
<polygon id="bgt3_20_" class="st2" points="96,384 180,396 192,480 144,516 96,480 "/>
<polygon id="bgt4_20_" class="st1" points="96,384 216,384 216,528 192,480 "/>
<polygon id="bgt5_20_" class="st3" points="120,576 84,492 0,480 0,600 48,612 "/>
<polygon id="bgt6_20_" class="st1" points="96,576 132,528 96,480 0,480 "/>
<polygon id="bgt7_20_" class="st4" points="96,576 180,564 192,480 96,480 "/>
<polygon id="bgt8_20_" class="st3" points="96,576 144,612 216,600 228,528 192,480 "/>
<polygon id="bgt1_19_" class="st0" points="288,384 276,468 192,480 192,384 "/>
<polygon id="bgt2_19_" class="st1" points="288,384 324,432 288,480 240,516 192,480 "/>
<polygon id="bgt3_19_" class="st2" points="288,384 372,396 384,480 336,516 288,480 "/>
<polygon id="bgt4_19_" class="st1" points="288,384 408,384 408,528 384,480 "/>
<polygon id="bgt5_19_" class="st3" points="312,576 276,492 192,480 192,600 240,612 "/>
<polygon id="bgt6_19_" class="st1" points="288,576 324,528 288,480 192,480 "/>
<polygon id="bgt7_19_" class="st4" points="288,576 372,564 384,480 288,480 "/>
<polygon id="bgt8_19_" class="st3" points="288,576 336,612 408,600 420,528 384,480 "/>
<polygon id="bgt1_18_" class="st0" points="480,384 468,468 384,480 384,384 "/>
<polygon id="bgt2_18_" class="st1" points="480,384 516,432 480,480 432,516 384,480 "/>
<polygon id="bgt3_18_" class="st2" points="480,384 564,396 576,480 528,516 480,480 "/>
<polygon id="bgt4_18_" class="st1" points="480,384 600,384 600,528 576,480 "/>
<polygon id="bgt5_18_" class="st3" points="504,576 468,492 384,480 384,600 432,612 "/>
<polygon id="bgt6_18_" class="st1" points="480,576 516,528 480,480 384,480 "/>
<polygon id="bgt7_18_" class="st4" points="480,576 564,564 576,480 480,480 "/>
<polygon id="bgt8_18_" class="st3" points="480,576 528,612 600,600 612,528 576,480 "/>
<polygon id="bgt1_17_" class="st0" points="672,384 660,468 576,480 576,384 "/>
<polygon id="bgt2_17_" class="st1" points="672,384 708,432 672,480 624,516 576,480 "/>
<polygon id="bgt3_17_" class="st2" points="672,384 756,396 768,480 720,516 672,480 "/>
<polygon id="bgt4_17_" class="st1" points="672,384 792,384 792,528 768,480 "/>
<polygon id="bgt5_17_" class="st3" points="696,576 660,492 576,480 576,600 624,612 "/>
<polygon id="bgt6_17_" class="st1" points="672,576 708,528 672,480 576,480 "/>
<polygon id="bgt7_17_" class="st4" points="672,576 756,564 768,480 672,480 "/>
<polygon id="bgt8_17_" class="st3" points="672,576 720,612 792,600 804,528 768,480 "/>
<polygon id="bgt1_16_" class="st0" points="864,384 852,468 768,480 768,384 "/>
<polygon id="bgt2_16_" class="st1" points="864,384 900,432 864,480 816,516 768,480 "/>
<polygon id="bgt3_16_" class="st2" points="864,384 948,396 960,480 912,516 864,480 "/>
<polygon id="bgt4_16_" class="st1" points="864,384 984,384 984,528 960,480 "/>
<polygon id="bgt5_16_" class="st3" points="888,576 852,492 768,480 768,600 816,612 "/>
<polygon id="bgt6_16_" class="st1" points="864,576 900,528 864,480 768,480 "/>
<polygon id="bgt7_16_" class="st4" points="864,576 948,564 960,480 864,480 "/>
<polygon id="bgt8_16_" class="st3" points="864,576 912,612 984,600 996,528 960,480 "/>
<polygon id="bgt1_15_" class="st0" points="1056,384 1044,468 960,480 960,384 "/>
<polygon id="bgt2_15_" class="st1" points="1056,384 1092,432 1056,480 1008,516 960,480 "/>
<polygon id="bgt3_15_" class="st2" points="1056,384 1140,396 1152,480 1104,516 1056,480 "/>
<polygon id="bgt4_15_" class="st1" points="1056,384 1176,384 1176,528 1152,480 "/>
<polygon id="bgt5_15_" class="st3" points="1080,576 1044,492 960,480 960,600 1008,612 "/>
<polygon id="bgt6_15_" class="st1" points="1056,576 1092,528 1056,480 960,480 "/>
<polygon id="bgt7_15_" class="st4" points="1056,576 1140,564 1152,480 1056,480 "/>
<polygon id="bgt8_15_" class="st3" points="1056,576 1104,612 1176,600 1188,528 1152,480 "/>
<polygon id="bgt1_14_" class="st0" points="1248,384 1236,468 1152,480 1152,384 "/>
<polygon id="bgt2_14_" class="st1" points="1248,384 1284,432 1248,480 1200,516 1152,480 "/>
<polygon id="bgt3_14_" class="st2" points="1248,384 1332,396 1344,480 1296,516 1248,480 "/>
<polygon id="bgt4_14_" class="st1" points="1248,384 1368,384 1368,528 1344,480 "/>
<polygon id="bgt5_14_" class="st3" points="1272,576 1236,492 1152,480 1152,600 1200,612 "/>
<polygon id="bgt6_14_" class="st1" points="1248,576 1284,528 1248,480 1152,480 "/>
<polygon id="bgt7_14_" class="st4" points="1248,576 1332,564 1344,480 1248,480 "/>
<polygon id="bgt8_14_" class="st3" points="1248,576 1296,612 1368,600 1380,528 1344,480 "/>
<polygon id="bgt1_27_" class="st0" points="96,576 84,660 0,672 0,576 "/>
<polygon id="bgt2_27_" class="st1" points="96,576 132,624 96,672 48,708 0,672 "/>
<polygon id="bgt3_27_" class="st2" points="96,576 180,588 192,672 144,708 96,672 "/>
<polygon id="bgt4_27_" class="st1" points="96,576 216,576 216,720 192,672 "/>
<polygon id="bgt5_27_" class="st3" points="120,768 84,684 0,672 0,792 48,804 "/>
<polygon id="bgt6_27_" class="st1" points="96,768 132,720 96,672 0,672 "/>
<polygon id="bgt7_27_" class="st4" points="96,768 180,756 192,672 96,672 "/>
<polygon id="bgt8_27_" class="st3" points="96,768 144,804 216,792 228,720 192,672 "/>
<polygon id="bgt1_26_" class="st0" points="288,576 276,660 192,672 192,576 "/>
<polygon id="bgt2_26_" class="st1" points="288,576 324,624 288,672 240,708 192,672 "/>
<polygon id="bgt3_26_" class="st2" points="288,576 372,588 384,672 336,708 288,672 "/>
<polygon id="bgt4_26_" class="st1" points="288,576 408,576 408,720 384,672 "/>
<polygon id="bgt5_26_" class="st3" points="312,768 276,684 192,672 192,792 240,804 "/>
<polygon id="bgt6_26_" class="st1" points="288,768 324,720 288,672 192,672 "/>
<polygon id="bgt7_26_" class="st4" points="288,768 372,756 384,672 288,672 "/>
<polygon id="bgt8_26_" class="st3" points="288,768 336,804 408,792 420,720 384,672 "/>
<polygon id="bgt1_25_" class="st0" points="480,576 468,660 384,672 384,576 "/>
<polygon id="bgt2_25_" class="st1" points="480,576 516,624 480,672 432,708 384,672 "/>
<polygon id="bgt3_25_" class="st2" points="480,576 564,588 576,672 528,708 480,672 "/>
<polygon id="bgt4_25_" class="st1" points="480,576 600,576 600,720 576,672 "/>
<polygon id="bgt5_25_" class="st3" points="504,768 468,684 384,672 384,792 432,804 "/>
<polygon id="bgt6_25_" class="st1" points="480,768 516,720 480,672 384,672 "/>
<polygon id="bgt7_25_" class="st4" points="480,768 564,756 576,672 480,672 "/>
<polygon id="bgt8_25_" class="st3" points="480,768 528,804 600,792 612,720 576,672 "/>
<polygon id="bgt1_24_" class="st0" points="672,576 660,660 576,672 576,576 "/>
<polygon id="bgt2_24_" class="st1" points="672,576 708,624 672,672 624,708 576,672 "/>
<polygon id="bgt3_24_" class="st2" points="672,576 756,588 768,672 720,708 672,672 "/>
<polygon id="bgt4_24_" class="st1" points="672,576 792,576 792,720 768,672 "/>
<polygon id="bgt5_24_" class="st3" points="696,768 660,684 576,672 576,792 624,804 "/>
<polygon id="bgt6_24_" class="st1" points="672,768 708,720 672,672 576,672 "/>
<polygon id="bgt7_24_" class="st4" points="672,768 756,756 768,672 672,672 "/>
<polygon id="bgt8_24_" class="st3" points="672,768 720,804 792,792 804,720 768,672 "/>
<polygon id="bgt1_23_" class="st0" points="864,576 852,660 768,672 768,576 "/>
<polygon id="bgt2_23_" class="st1" points="864,576 900,624 864,672 816,708 768,672 "/>
<polygon id="bgt3_23_" class="st2" points="864,576 948,588 960,672 912,708 864,672 "/>
<polygon id="bgt4_23_" class="st1" points="864,576 984,576 984,720 960,672 "/>
<polygon id="bgt5_23_" class="st3" points="888,768 852,684 768,672 768,792 816,804 "/>
<polygon id="bgt6_23_" class="st1" points="864,768 900,720 864,672 768,672 "/>
<polygon id="bgt7_23_" class="st4" points="864,768 948,756 960,672 864,672 "/>
<polygon id="bgt8_23_" class="st3" points="864,768 912,804 984,792 996,720 960,672 "/>
<polygon id="bgt1_22_" class="st0" points="1056,576 1044,660 960,672 960,576 "/>
<polygon id="bgt2_22_" class="st1" points="1056,576 1092,624 1056,672 1008,708 960,672 "/>
<polygon id="bgt3_22_" class="st2" points="1056,576 1140,588 1152,672 1104,708 1056,672 "/>
<polygon id="bgt4_22_" class="st1" points="1056,576 1176,576 1176,720 1152,672 "/>
<polygon id="bgt5_22_" class="st3" points="1080,768 1044,684 960,672 960,792 1008,804 "/>
<polygon id="bgt6_22_" class="st1" points="1056,768 1092,720 1056,672 960,672 "/>
<polygon id="bgt7_22_" class="st4" points="1056,768 1140,756 1152,672 1056,672 "/>
<polygon id="bgt8_22_" class="st3" points="1056,768 1104,804 1176,792 1188,720 1152,672 "/>
<polygon id="bgt1_21_" class="st0" points="1248,576 1236,660 1152,672 1152,576 "/>
<polygon id="bgt2_21_" class="st1" points="1248,576 1284,624 1248,672 1200,708 1152,672 "/>
<polygon id="bgt3_21_" class="st2" points="1248,576 1332,588 1344,672 1296,708 1248,672 "/>
<polygon id="bgt4_21_" class="st1" points="1248,576 1368,576 1368,720 1344,672 "/>
<polygon id="bgt5_21_" class="st3" points="1272,768 1236,684 1152,672 1152,792 1200,804 "/>
<polygon id="bgt6_21_" class="st1" points="1248,768 1284,720 1248,672 1152,672 "/>
<polygon id="bgt7_21_" class="st4" points="1248,768 1332,756 1344,672 1248,672 "/>
<polygon id="bgt8_21_" class="st3" points="1248,768 1296,804 1368,792 1380,720 1344,672 "/>
</svg>