<svg width="100%" height="100%">
<style type="text/css">
  	.bgtc0{fill: hsl(0, 0%, 16%) ;}
  	.bgtc1{fill: hsl(0, 0%, 15.5%) ; }
  	.bgtc2{fill: hsl(0, 0%, 16.5%) ; }
  	.bgtc3{fill: hsl(0, 0%, 15%) ; }
  	.bgtc4{fill: hsl(0, 0%, 17%) ; }
  	.bgtc5{fill: hsl(0, 0%, 14.5%) ; }
  	.bgtc6{fill: hsl(0, 0%, 17.5%) ; }
</style>

<defs>
<pattern id="bgPattern" width="1344"
        height="768" patternUnits="userSpaceOnUse">
<polygon id="bgt1" class="bgtc6" points="96,0 84,84 0,96 0,0 "/>
<polygon id="bgt2" class="bgtc2" points="96,0 132,48 96,96 48,132 0,96 "/>
<polygon id="bgt3" class="bgtc4" points="96,0 180,12 192,96 144,132 96,96 "/>
<polygon id="bgt4" class="bgtc3" points="96,0 216,0 216,144 192,96 "/>
<polygon id="bgt5" class="bgtc0" points="120,192 84,108 0,96 0,216 48,228 "/>
<polygon id="bgt6" class="bgtc4" points="96,192 132,144 96,96 0,96 "/>
<polygon id="bgt7" class="bgtc3" points="96,192 180,180 192,96 96,96 "/>
<polygon id="bgt8" class="bgtc2" points="96,192 144,228 216,216 228,144 192,96 "/>
<polygon id="bgt9" class="bgtc4" points="288,0 276,84 192,96 192,0 "/>
<polygon id="bgt10" class="bgtc1" points="288,0 324,48 288,96 240,132 192,96 "/>
<polygon id="bgt11" class="bgtc6" points="288,0 372,12 384,96 336,132 288,96 "/>
<polygon id="bgt12" class="bgtc0" points="288,0 408,0 408,144 384,96 "/>
<polygon id="bgt13" class="bgtc5" points="312,192 276,108 192,96 192,216 240,228 "/>
<polygon id="bgt14" class="bgtc1" points="288,192 324,144 288,96 192,96 "/>
<polygon id="bgt15" class="bgtc2" points="288,192 372,180 384,96 288,96 "/>
<polygon id="bgt16" class="bgtc0" points="288,192 336,228 408,216 420,144 384,96 "/>
<polygon id="bgt17" class="bgtc4" points="480,0 468,84 384,96 384,0 "/>
<polygon id="bgt18" class="bgtc1" points="480,0 516,48 480,96 432,132 384,96 "/>
<polygon id="bgt19" class="bgtc2" points="480,0 564,12 576,96 528,132 480,96 "/>
<polygon id="bgt20" class="bgtc2" points="480,0 600,0 600,144 576,96 "/>
<polygon id="bgt21" class="bgtc1" points="504,192 468,108 384,96 384,216 432,228 "/>
<polygon id="bgt22" class="bgtc4" points="480,192 516,144 480,96 384,96 "/>
<polygon id="bgt23" class="bgtc2" points="480,192 564,180 576,96 480,96 "/>
<polygon id="bgt24" class="bgtc2" points="480,192 528,228 600,216 612,144 576,96 "/>
<polygon id="bgt25" class="bgtc0" points="672,0 660,84 576,96 576,0 "/>
<polygon id="bgt26" class="bgtc5" points="672,0 708,48 672,96 624,132 576,96 "/>
<polygon id="bgt27" class="bgtc5" points="672,0 756,12 768,96 720,132 672,96 "/>
<polygon id="bgt28" class="bgtc5" points="672,0 792,0 792,144 768,96 "/>
<polygon id="bgt29" class="bgtc0" points="696,192 660,108 576,96 576,216 624,228 "/>
<polygon id="bgt30" class="bgtc6" points="672,192 708,144 672,96 576,96 "/>
<polygon id="bgt31" class="bgtc3" points="672,192 756,180 768,96 672,96 "/>
<polygon id="bgt32" class="bgtc0" points="672,192 720,228 792,216 804,144 768,96 "/>
<polygon id="bgt33" class="bgtc4" points="864,0 852,84 768,96 768,0 "/>
<polygon id="bgt34" class="bgtc2" points="864,0 900,48 864,96 816,132 768,96 "/>
<polygon id="bgt35" class="bgtc3" points="864,0 948,12 960,96 912,132 864,96 "/>
<polygon id="bgt36" class="bgtc0" points="864,0 984,0 984,144 960,96 "/>
<polygon id="bgt37" class="bgtc2" points="888,192 852,108 768,96 768,216 816,228 "/>
<polygon id="bgt38" class="bgtc0" points="864,192 900,144 864,96 768,96 "/>
<polygon id="bgt39" class="bgtc3" points="864,192 948,180 960,96 864,96 "/>
<polygon id="bgt40" class="bgtc0" points="864,192 912,228 984,216 996,144 960,96 "/>
<polygon id="bgt41" class="bgtc1" points="1056,0 1044,84 960,96 960,0 "/>
<polygon id="bgt42" class="bgtc1" points="1056,0 1092,48 1056,96 1008,132 960,96 "/>
<polygon id="bgt43" class="bgtc1" points="1056,0 1140,12 1152,96 1104,132 1056,96 "/>
<polygon id="bgt44" class="bgtc0" points="1056,0 1176,0 1176,144 1152,96 "/>
<polygon id="bgt45" class="bgtc1" points="1080,192 1044,108 960,96 960,216 1008,228 "/>
<polygon id="bgt46" class="bgtc6" points="1056,192 1092,144 1056,96 960,96 "/>
<polygon id="bgt47" class="bgtc4" points="1056,192 1140,180 1152,96 1056,96 "/>
<polygon id="bgt48" class="bgtc5" points="1056,192 1104,228 1176,216 1188,144 1152,96 "/>
<polygon id="bgt49" class="bgtc1" points="1248,0 1236,84 1152,96 1152,0 "/>
<polygon id="bgt50" class="bgtc1" points="1248,0 1284,48 1248,96 1200,132 1152,96 "/>
<polygon id="bgt51" class="bgtc5" points="1248,0 1332,12 1344,96 1296,132 1248,96 "/>
<polygon id="bgt52" class="bgtc0" points="1248,0 1368,0 1368,144 1344,96 "/>
<polygon id="bgt53" class="bgtc0" points="1272,192 1236,108 1152,96 1152,216 1200,228 "/>
<polygon id="bgt54" class="bgtc3" points="1248,192 1284,144 1248,96 1152,96 "/>
<polygon id="bgt55" class="bgtc6" points="1248,192 1332,180 1344,96 1248,96 "/>
<polygon id="bgt56" class="bgtc1" points="1248,192 1296,228 1368,216 1380,144 1344,96 "/>
<polygon id="bgt57" class="bgtc0" points="96,192 84,276 0,288 0,192 "/>
<polygon id="bgt58" class="bgtc2" points="96,192 132,240 96,288 48,324 0,288 "/>
<polygon id="bgt59" class="bgtc0" points="96,192 180,204 192,288 144,324 96,288 "/>
<polygon id="bgt60" class="bgtc6" points="96,192 216,192 216,336 192,288 "/>
<polygon id="bgt61" class="bgtc2" points="120,384 84,300 0,288 0,408 48,420 "/>
<polygon id="bgt62" class="bgtc4" points="96,384 132,336 96,288 0,288 "/>
<polygon id="bgt63" class="bgtc1" points="96,384 180,372 192,288 96,288 "/>
<polygon id="bgt64" class="bgtc1" points="96,384 144,420 216,408 228,336 192,288 "/>
<polygon id="bgt65" class="bgtc3" points="288,192 276,276 192,288 192,192 "/>
<polygon id="bgt66" class="bgtc0" points="288,192 324,240 288,288 240,324 192,288 "/>
<polygon id="bgt67" class="bgtc4" points="288,192 372,204 384,288 336,324 288,288 "/>
<polygon id="bgt68" class="bgtc4" points="288,192 408,192 408,336 384,288 "/>
<polygon id="bgt69" class="bgtc2" points="312,384 276,300 192,288 192,408 240,420 "/>
<polygon id="bgt70" class="bgtc6" points="288,384 324,336 288,288 192,288 "/>
<polygon id="bgt71" class="bgtc1" points="288,384 372,372 384,288 288,288 "/>
<polygon id="bgt72" class="bgtc6" points="288,384 336,420 408,408 420,336 384,288 "/>
<polygon id="bgt73" class="bgtc0" points="480,192 468,276 384,288 384,192 "/>
<polygon id="bgt74" class="bgtc0" points="480,192 516,240 480,288 432,324 384,288 "/>
<polygon id="bgt75" class="bgtc0" points="480,192 564,204 576,288 528,324 480,288 "/>
<polygon id="bgt76" class="bgtc6" points="480,192 600,192 600,336 576,288 "/>
<polygon id="bgt77" class="bgtc1" points="504,384 468,300 384,288 384,408 432,420 "/>
<polygon id="bgt78" class="bgtc3" points="480,384 516,336 480,288 384,288 "/>
<polygon id="bgt79" class="bgtc3" points="480,384 564,372 576,288 480,288 "/>
<polygon id="bgt80" class="bgtc1" points="480,384 528,420 600,408 612,336 576,288 "/>
<polygon id="bgt81" class="bgtc2" points="672,192 660,276 576,288 576,192 "/>
<polygon id="bgt82" class="bgtc5" points="672,192 708,240 672,288 624,324 576,288 "/>
<polygon id="bgt83" class="bgtc1" points="672,192 756,204 768,288 720,324 672,288 "/>
<polygon id="bgt84" class="bgtc3" points="672,192 792,192 792,336 768,288 "/>
<polygon id="bgt85" class="bgtc1" points="696,384 660,300 576,288 576,408 624,420 "/>
<polygon id="bgt86" class="bgtc3" points="672,384 708,336 672,288 576,288 "/>
<polygon id="bgt87" class="bgtc5" points="672,384 756,372 768,288 672,288 "/>
<polygon id="bgt88" class="bgtc5" points="672,384 720,420 792,408 804,336 768,288 "/>
<polygon id="bgt89" class="bgtc4" points="864,192 852,276 768,288 768,192 "/>
<polygon id="bgt90" class="bgtc3" points="864,192 900,240 864,288 816,324 768,288 "/>
<polygon id="bgt91" class="bgtc2" points="864,192 948,204 960,288 912,324 864,288 "/>
<polygon id="bgt92" class="bgtc3" points="864,192 984,192 984,336 960,288 "/>
<polygon id="bgt93" class="bgtc2" points="888,384 852,300 768,288 768,408 816,420 "/>
<polygon id="bgt94" class="bgtc5" points="864,384 900,336 864,288 768,288 "/>
<polygon id="bgt95" class="bgtc5" points="864,384 948,372 960,288 864,288 "/>
<polygon id="bgt96" class="bgtc2" points="864,384 912,420 984,408 996,336 960,288 "/>
<polygon id="bgt97" class="bgtc4" points="1056,192 1044,276 960,288 960,192 "/>
<polygon id="bgt98" class="bgtc1" points="1056,192 1092,240 1056,288 1008,324 960,288 "/>
<polygon id="bgt99" class="bgtc1" points="1056,192 1140,204 1152,288 1104,324 1056,288 "/>
<polygon id="bgt100" class="bgtc3" points="1056,192 1176,192 1176,336 1152,288 "/>
<polygon id="bgt101" class="bgtc4" points="1080,384 1044,300 960,288 960,408 1008,420 "/>
<polygon id="bgt102" class="bgtc0" points="1056,384 1092,336 1056,288 960,288 "/>
<polygon id="bgt103" class="bgtc1" points="1056,384 1140,372 1152,288 1056,288 "/>
<polygon id="bgt104" class="bgtc2" points="1056,384 1104,420 1176,408 1188,336 1152,288 "/>
<polygon id="bgt105" class="bgtc4" points="1248,192 1236,276 1152,288 1152,192 "/>
<polygon id="bgt106" class="bgtc5" points="1248,192 1284,240 1248,288 1200,324 1152,288 "/>
<polygon id="bgt107" class="bgtc5" points="1248,192 1332,204 1344,288 1296,324 1248,288 "/>
<polygon id="bgt108" class="bgtc0" points="1248,192 1368,192 1368,336 1344,288 "/>
<polygon id="bgt109" class="bgtc6" points="1272,384 1236,300 1152,288 1152,408 1200,420 "/>
<polygon id="bgt110" class="bgtc4" points="1248,384 1284,336 1248,288 1152,288 "/>
<polygon id="bgt111" class="bgtc3" points="1248,384 1332,372 1344,288 1248,288 "/>
<polygon id="bgt112" class="bgtc4" points="1248,384 1296,420 1368,408 1380,336 1344,288 "/>
<polygon id="bgt113" class="bgtc6" points="96,384 84,468 0,480 0,384 "/>
<polygon id="bgt114" class="bgtc4" points="96,384 132,432 96,480 48,516 0,480 "/>
<polygon id="bgt115" class="bgtc4" points="96,384 180,396 192,480 144,516 96,480 "/>
<polygon id="bgt116" class="bgtc5" points="96,384 216,384 216,528 192,480 "/>
<polygon id="bgt117" class="bgtc1" points="120,576 84,492 0,480 0,600 48,612 "/>
<polygon id="bgt118" class="bgtc1" points="96,576 132,528 96,480 0,480 "/>
<polygon id="bgt119" class="bgtc2" points="96,576 180,564 192,480 96,480 "/>
<polygon id="bgt120" class="bgtc2" points="96,576 144,612 216,600 228,528 192,480 "/>
<polygon id="bgt121" class="bgtc5" points="288,384 276,468 192,480 192,384 "/>
<polygon id="bgt122" class="bgtc6" points="288,384 324,432 288,480 240,516 192,480 "/>
<polygon id="bgt123" class="bgtc5" points="288,384 372,396 384,480 336,516 288,480 "/>
<polygon id="bgt124" class="bgtc0" points="288,384 408,384 408,528 384,480 "/>
<polygon id="bgt125" class="bgtc5" points="312,576 276,492 192,480 192,600 240,612 "/>
<polygon id="bgt126" class="bgtc6" points="288,576 324,528 288,480 192,480 "/>
<polygon id="bgt127" class="bgtc1" points="288,576 372,564 384,480 288,480 "/>
<polygon id="bgt128" class="bgtc4" points="288,576 336,612 408,600 420,528 384,480 "/>
<polygon id="bgt129" class="bgtc5" points="480,384 468,468 384,480 384,384 "/>
<polygon id="bgt130" class="bgtc3" points="480,384 516,432 480,480 432,516 384,480 "/>
<polygon id="bgt131" class="bgtc0" points="480,384 564,396 576,480 528,516 480,480 "/>
<polygon id="bgt132" class="bgtc3" points="480,384 600,384 600,528 576,480 "/>
<polygon id="bgt133" class="bgtc2" points="504,576 468,492 384,480 384,600 432,612 "/>
<polygon id="bgt134" class="bgtc3" points="480,576 516,528 480,480 384,480 "/>
<polygon id="bgt135" class="bgtc2" points="480,576 564,564 576,480 480,480 "/>
<polygon id="bgt136" class="bgtc3" points="480,576 528,612 600,600 612,528 576,480 "/>
<polygon id="bgt137" class="bgtc3" points="672,384 660,468 576,480 576,384 "/>
<polygon id="bgt138" class="bgtc4" points="672,384 708,432 672,480 624,516 576,480 "/>
<polygon id="bgt139" class="bgtc4" points="672,384 756,396 768,480 720,516 672,480 "/>
<polygon id="bgt140" class="bgtc5" points="672,384 792,384 792,528 768,480 "/>
<polygon id="bgt141" class="bgtc2" points="696,576 660,492 576,480 576,600 624,612 "/>
<polygon id="bgt142" class="bgtc6" points="672,576 708,528 672,480 576,480 "/>
<polygon id="bgt143" class="bgtc0" points="672,576 756,564 768,480 672,480 "/>
<polygon id="bgt144" class="bgtc3" points="672,576 720,612 792,600 804,528 768,480 "/>
<polygon id="bgt145" class="bgtc2" points="864,384 852,468 768,480 768,384 "/>
<polygon id="bgt146" class="bgtc3" points="864,384 900,432 864,480 816,516 768,480 "/>
<polygon id="bgt147" class="bgtc0" points="864,384 948,396 960,480 912,516 864,480 "/>
<polygon id="bgt148" class="bgtc1" points="864,384 984,384 984,528 960,480 "/>
<polygon id="bgt149" class="bgtc4" points="888,576 852,492 768,480 768,600 816,612 "/>
<polygon id="bgt150" class="bgtc3" points="864,576 900,528 864,480 768,480 "/>
<polygon id="bgt151" class="bgtc2" points="864,576 948,564 960,480 864,480 "/>
<polygon id="bgt152" class="bgtc0" points="864,576 912,612 984,600 996,528 960,480 "/>
<polygon id="bgt153" class="bgtc3" points="1056,384 1044,468 960,480 960,384 "/>
<polygon id="bgt154" class="bgtc5" points="1056,384 1092,432 1056,480 1008,516 960,480 "/>
<polygon id="bgt155" class="bgtc1" points="1056,384 1140,396 1152,480 1104,516 1056,480 "/>
<polygon id="bgt156" class="bgtc3" points="1056,384 1176,384 1176,528 1152,480 "/>
<polygon id="bgt157" class="bgtc2" points="1080,576 1044,492 960,480 960,600 1008,612 "/>
<polygon id="bgt158" class="bgtc0" points="1056,576 1092,528 1056,480 960,480 "/>
<polygon id="bgt159" class="bgtc3" points="1056,576 1140,564 1152,480 1056,480 "/>
<polygon id="bgt160" class="bgtc1" points="1056,576 1104,612 1176,600 1188,528 1152,480 "/>
<polygon id="bgt161" class="bgtc3" points="1248,384 1236,468 1152,480 1152,384 "/>
<polygon id="bgt162" class="bgtc5" points="1248,384 1284,432 1248,480 1200,516 1152,480 "/>
<polygon id="bgt163" class="bgtc2" points="1248,384 1332,396 1344,480 1296,516 1248,480 "/>
<polygon id="bgt164" class="bgtc6" points="1248,384 1368,384 1368,528 1344,480 "/>
<polygon id="bgt165" class="bgtc6" points="1272,576 1236,492 1152,480 1152,600 1200,612 "/>
<polygon id="bgt166" class="bgtc0" points="1248,576 1284,528 1248,480 1152,480 "/>
<polygon id="bgt167" class="bgtc3" points="1248,576 1332,564 1344,480 1248,480 "/>
<polygon id="bgt168" class="bgtc0" points="1248,576 1296,612 1368,600 1380,528 1344,480 "/>
<polygon id="bgt169" class="bgtc6" points="96,576 84,660 0,672 0,576 "/>
<polygon id="bgt170" class="bgtc5" points="96,576 132,624 96,672 48,708 0,672 "/>
<polygon id="bgt171" class="bgtc6" points="96,576 180,588 192,672 144,708 96,672 "/>
<polygon id="bgt172" class="bgtc6" points="96,576 216,576 216,720 192,672 "/>
<polygon id="bgt173" class="bgtc4" points="120,768 84,684 0,672 0,792 48,804 "/>
<polygon id="bgt174" class="bgtc0" points="96,768 132,720 96,672 0,672 "/>
<polygon id="bgt175" class="bgtc4" points="96,768 180,756 192,672 96,672 "/>
<polygon id="bgt176" class="bgtc4" points="96,768 144,804 216,792 228,720 192,672 "/>
<polygon id="bgt177" class="bgtc1" points="288,576 276,660 192,672 192,576 "/>
<polygon id="bgt178" class="bgtc6" points="288,576 324,624 288,672 240,708 192,672 "/>
<polygon id="bgt179" class="bgtc5" points="288,576 372,588 384,672 336,708 288,672 "/>
<polygon id="bgt180" class="bgtc6" points="288,576 408,576 408,720 384,672 "/>
<polygon id="bgt181" class="bgtc1" points="312,768 276,684 192,672 192,792 240,804 "/>
<polygon id="bgt182" class="bgtc3" points="288,768 324,720 288,672 192,672 "/>
<polygon id="bgt183" class="bgtc6" points="288,768 372,756 384,672 288,672 "/>
<polygon id="bgt184" class="bgtc4" points="288,768 336,804 408,792 420,720 384,672 "/>
<polygon id="bgt185" class="bgtc3" points="480,576 468,660 384,672 384,576 "/>
<polygon id="bgt186" class="bgtc2" points="480,576 516,624 480,672 432,708 384,672 "/>
<polygon id="bgt187" class="bgtc3" points="480,576 564,588 576,672 528,708 480,672 "/>
<polygon id="bgt188" class="bgtc1" points="480,576 600,576 600,720 576,672 "/>
<polygon id="bgt189" class="bgtc1" points="504,768 468,684 384,672 384,792 432,804 "/>
<polygon id="bgt190" class="bgtc2" points="480,768 516,720 480,672 384,672 "/>
<polygon id="bgt191" class="bgtc0" points="480,768 564,756 576,672 480,672 "/>
<polygon id="bgt192" class="bgtc6" points="480,768 528,804 600,792 612,720 576,672 "/>
<polygon id="bgt193" class="bgtc2" points="672,576 660,660 576,672 576,576 "/>
<polygon id="bgt194" class="bgtc2" points="672,576 708,624 672,672 624,708 576,672 "/>
<polygon id="bgt195" class="bgtc6" points="672,576 756,588 768,672 720,708 672,672 "/>
<polygon id="bgt196" class="bgtc1" points="672,576 792,576 792,720 768,672 "/>
<polygon id="bgt197" class="bgtc5" points="696,768 660,684 576,672 576,792 624,804 "/>
<polygon id="bgt198" class="bgtc1" points="672,768 708,720 672,672 576,672 "/>
<polygon id="bgt199" class="bgtc4" points="672,768 756,756 768,672 672,672 "/>
<polygon id="bgt200" class="bgtc1" points="672,768 720,804 792,792 804,720 768,672 "/>
<polygon id="bgt201" class="bgtc6" points="864,576 852,660 768,672 768,576 "/>
<polygon id="bgt202" class="bgtc3" points="864,576 900,624 864,672 816,708 768,672 "/>
<polygon id="bgt203" class="bgtc1" points="864,576 948,588 960,672 912,708 864,672 "/>
<polygon id="bgt204" class="bgtc4" points="864,576 984,576 984,720 960,672 "/>
<polygon id="bgt205" class="bgtc3" points="888,768 852,684 768,672 768,792 816,804 "/>
<polygon id="bgt206" class="bgtc3" points="864,768 900,720 864,672 768,672 "/>
<polygon id="bgt207" class="bgtc6" points="864,768 948,756 960,672 864,672 "/>
<polygon id="bgt208" class="bgtc2" points="864,768 912,804 984,792 996,720 960,672 "/>
<polygon id="bgt209" class="bgtc5" points="1056,576 1044,660 960,672 960,576 "/>
<polygon id="bgt210" class="bgtc5" points="1056,576 1092,624 1056,672 1008,708 960,672 "/>
<polygon id="bgt211" class="bgtc0" points="1056,576 1140,588 1152,672 1104,708 1056,672 "/>
<polygon id="bgt212" class="bgtc5" points="1056,576 1176,576 1176,720 1152,672 "/>
<polygon id="bgt213" class="bgtc1" points="1080,768 1044,684 960,672 960,792 1008,804 "/>
<polygon id="bgt214" class="bgtc4" points="1056,768 1092,720 1056,672 960,672 "/>
<polygon id="bgt215" class="bgtc4" points="1056,768 1140,756 1152,672 1056,672 "/>
<polygon id="bgt216" class="bgtc1" points="1056,768 1104,804 1176,792 1188,720 1152,672 "/>
<polygon id="bgt217" class="bgtc6" points="1248,576 1236,660 1152,672 1152,576 "/>
<polygon id="bgt218" class="bgtc1" points="1248,576 1284,624 1248,672 1200,708 1152,672 "/>
<polygon id="bgt219" class="bgtc5" points="1248,576 1332,588 1344,672 1296,708 1248,672 "/>
<polygon id="bgt220" class="bgtc0" points="1248,576 1368,576 1368,720 1344,672 "/>
<polygon id="bgt221" class="bgtc1" points="1272,768 1236,684 1152,672 1152,792 1200,804 "/>
<polygon id="bgt222" class="bgtc5" points="1248,768 1284,720 1248,672 1152,672 "/>
<polygon id="bgt223" class="bgtc0" points="1248,768 1332,756 1344,672 1248,672 "/>
<polygon id="bgt224" class="bgtc3" points="1248,768 1296,804 1368,792 1380,720 1344,672 "/>

</pattern>
</defs>

<rect fill="url(#bgPattern)" width="100%" height="100%"/>
</svg>