<svg width="100%" height="100%">
<style type="text/css">
  	.bgtc0{fill: hsl(0, 0%, 16%) ;}
  	.bgtc1{fill: hsl(0, 0%, 15.5%) ; }
  	.bgtc2{fill: hsl(0, 0%, 16.5%) ; }
  	.bgtc3{fill: hsl(0, 0%, 15%) ; }
  	.bgtc4{fill: hsl(0, 0%, 17%) ; }
  	.bgtc5{fill: hsl(0, 0%, 14.5%) ; }
  	.bgtc6{fill: hsl(0, 0%, 17.5%) ; }
</style>

<defs>
<pattern id="bgPattern" width="1920"
        height="1152" patternUnits="userSpaceOnUse">
<polygon id="bgt1" class="bgt bgtc1" points="96,0 84,84 0,96 0,0 "/>
<polygon id="bgt2" class="bgt bgtc6" points="96,0 132,48 96,96 48,132 0,96 "/>
<polygon id="bgt3" class="bgt bgtc1" points="96,0 180,12 192,96 144,132 96,96 "/>
<polygon id="bgt4" class="bgt bgtc4" points="96,0 194,0 228,48 192,96 "/>
<polygon id="bgt5" class="bgt bgtc3" points="96,192 84,108 0,96 0,192 48,228 "/>
<polygon id="bgt6" class="bgt bgtc2" points="96,192 132,144 96,96 0,96 "/>
<polygon id="bgt7" class="bgt bgtc0" points="96,192 180,180 192,96 96,96 "/>
<polygon id="bgt8" class="bgt bgtc3" points="96,192 144,228 192,192 228,144 192,96 "/>
<polygon id="bgt9" class="bgt bgtc3" points="288,0 276,84 192,96 192,0 "/>
<polygon id="bgt10" class="bgt bgtc5" points="288,0 324,48 288,96 240,132 192,96 "/>
<polygon id="bgt11" class="bgt bgtc0" points="288,0 372,12 384,96 336,132 288,96 "/>
<polygon id="bgt12" class="bgt bgtc0" points="288,0 386,0 420,48 384,96 "/>
<polygon id="bgt13" class="bgt bgtc4" points="288,192 276,108 192,96 192,192 240,228 "/>
<polygon id="bgt14" class="bgt bgtc0" points="288,192 324,144 288,96 192,96 "/>
<polygon id="bgt15" class="bgt bgtc5" points="288,192 372,180 384,96 288,96 "/>
<polygon id="bgt16" class="bgt bgtc0" points="288,192 336,228 384,192 420,144 384,96 "/>
<polygon id="bgt17" class="bgt bgtc3" points="480,0 468,84 384,96 384,0 "/>
<polygon id="bgt18" class="bgt bgtc1" points="480,0 516,48 480,96 432,132 384,96 "/>
<polygon id="bgt19" class="bgt bgtc4" points="480,0 564,12 576,96 528,132 480,96 "/>
<polygon id="bgt20" class="bgt bgtc6" points="480,0 578,0 612,48 576,96 "/>
<polygon id="bgt21" class="bgt bgtc5" points="480,192 468,108 384,96 384,192 432,228 "/>
<polygon id="bgt22" class="bgt bgtc5" points="480,192 516,144 480,96 384,96 "/>
<polygon id="bgt23" class="bgt bgtc6" points="480,192 564,180 576,96 480,96 "/>
<polygon id="bgt24" class="bgt bgtc6" points="480,192 528,228 576,192 612,144 576,96 "/>
<polygon id="bgt25" class="bgt bgtc2" points="672,0 660,84 576,96 576,0 "/>
<polygon id="bgt26" class="bgt bgtc6" points="672,0 708,48 672,96 624,132 576,96 "/>
<polygon id="bgt27" class="bgt bgtc5" points="672,0 756,12 768,96 720,132 672,96 "/>
<polygon id="bgt28" class="bgt bgtc2" points="672,0 770,0 804,48 768,96 "/>
<polygon id="bgt29" class="bgt bgtc1" points="672,192 660,108 576,96 576,192 624,228 "/>
<polygon id="bgt30" class="bgt bgtc6" points="672,192 708,144 672,96 576,96 "/>
<polygon id="bgt31" class="bgt bgtc1" points="672,192 756,180 768,96 672,96 "/>
<polygon id="bgt32" class="bgt bgtc4" points="672,192 720,228 768,192 804,144 768,96 "/>
<polygon id="bgt33" class="bgt bgtc3" points="864,0 852,84 768,96 768,0 "/>
<polygon id="bgt34" class="bgt bgtc6" points="864,0 900,48 864,96 816,132 768,96 "/>
<polygon id="bgt35" class="bgt bgtc5" points="864,0 948,12 960,96 912,132 864,96 "/>
<polygon id="bgt36" class="bgt bgtc0" points="864,0 962,0 996,48 960,96 "/>
<polygon id="bgt37" class="bgt bgtc1" points="864,192 852,108 768,96 768,192 816,228 "/>
<polygon id="bgt38" class="bgt bgtc3" points="864,192 900,144 864,96 768,96 "/>
<polygon id="bgt39" class="bgt bgtc4" points="864,192 948,180 960,96 864,96 "/>
<polygon id="bgt40" class="bgt bgtc0" points="864,192 912,228 960,192 996,144 960,96 "/>
<polygon id="bgt41" class="bgt bgtc3" points="1056,0 1044,84 960,96 960,0 "/>
<polygon id="bgt42" class="bgt bgtc1" points="1056,0 1092,48 1056,96 1008,132 960,96 "/>
<polygon id="bgt43" class="bgt bgtc1" points="1056,0 1140,12 1152,96 1104,132 1056,96 "/>
<polygon id="bgt44" class="bgt bgtc4" points="1056,0 1154,0 1188,48 1152,96 "/>
<polygon id="bgt45" class="bgt bgtc3" points="1056,192 1044,108 960,96 960,192 1008,228 "/>
<polygon id="bgt46" class="bgt bgtc0" points="1056,192 1092,144 1056,96 960,96 "/>
<polygon id="bgt47" class="bgt bgtc3" points="1056,192 1140,180 1152,96 1056,96 "/>
<polygon id="bgt48" class="bgt bgtc0" points="1056,192 1104,228 1152,192 1188,144 1152,96 "/>
<polygon id="bgt49" class="bgt bgtc0" points="1248,0 1236,84 1152,96 1152,0 "/>
<polygon id="bgt50" class="bgt bgtc1" points="1248,0 1284,48 1248,96 1200,132 1152,96 "/>
<polygon id="bgt51" class="bgt bgtc2" points="1248,0 1332,12 1344,96 1296,132 1248,96 "/>
<polygon id="bgt52" class="bgt bgtc4" points="1248,0 1346,0 1380,48 1344,96 "/>
<polygon id="bgt53" class="bgt bgtc3" points="1248,192 1236,108 1152,96 1152,192 1200,228 "/>
<polygon id="bgt54" class="bgt bgtc4" points="1248,192 1284,144 1248,96 1152,96 "/>
<polygon id="bgt55" class="bgt bgtc1" points="1248,192 1332,180 1344,96 1248,96 "/>
<polygon id="bgt56" class="bgt bgtc3" points="1248,192 1296,228 1344,192 1380,144 1344,96 "/>
<polygon id="bgt57" class="bgt bgtc1" points="1440,0 1428,84 1344,96 1344,0 "/>
<polygon id="bgt58" class="bgt bgtc3" points="1440,0 1476,48 1440,96 1392,132 1344,96 "/>
<polygon id="bgt59" class="bgt bgtc6" points="1440,0 1524,12 1536,96 1488,132 1440,96 "/>
<polygon id="bgt60" class="bgt bgtc0" points="1440,0 1538,0 1572,48 1536,96 "/>
<polygon id="bgt61" class="bgt bgtc3" points="1440,192 1428,108 1344,96 1344,192 1392,228 "/>
<polygon id="bgt62" class="bgt bgtc6" points="1440,192 1476,144 1440,96 1344,96 "/>
<polygon id="bgt63" class="bgt bgtc5" points="1440,192 1524,180 1536,96 1440,96 "/>
<polygon id="bgt64" class="bgt bgtc0" points="1440,192 1488,228 1536,192 1572,144 1536,96 "/>
<polygon id="bgt65" class="bgt bgtc0" points="1632,0 1620,84 1536,96 1536,0 "/>
<polygon id="bgt66" class="bgt bgtc1" points="1632,0 1668,48 1632,96 1584,132 1536,96 "/>
<polygon id="bgt67" class="bgt bgtc6" points="1632,0 1716,12 1728,96 1680,132 1632,96 "/>
<polygon id="bgt68" class="bgt bgtc3" points="1632,0 1730,0 1764,48 1728,96 "/>
<polygon id="bgt69" class="bgt bgtc5" points="1632,192 1620,108 1536,96 1536,192 1584,228 "/>
<polygon id="bgt70" class="bgt bgtc6" points="1632,192 1668,144 1632,96 1536,96 "/>
<polygon id="bgt71" class="bgt bgtc2" points="1632,192 1716,180 1728,96 1632,96 "/>
<polygon id="bgt72" class="bgt bgtc6" points="1632,192 1680,228 1728,192 1764,144 1728,96 "/>
<polygon id="bgt73" class="bgt bgtc5" points="1824,0 1812,84 1728,96 1728,0 "/>
<polygon id="bgt74" class="bgt bgtc5" points="1824,0 1860,48 1824,96 1776,132 1728,96 "/>
<polygon id="bgt75" class="bgt bgtc6" points="1824,0 1908,12 1920,96 1872,132 1824,96 "/>
<polygon id="bgt76" class="bgt bgtc4" points="1824,0 1922,0 1956,48 1920,96 "/>
<polygon id="bgt77" class="bgt bgtc4" points="1824,192 1812,108 1728,96 1728,192 1776,228 "/>
<polygon id="bgt78" class="bgt bgtc2" points="1824,192 1860,144 1824,96 1728,96 "/>
<polygon id="bgt79" class="bgt bgtc2" points="1824,192 1908,180 1920,96 1824,96 "/>
<polygon id="bgt80" class="bgt bgtc6" points="1824,192 1872,228 1920,192 1956,144 1920,96 "/>
<polygon id="bgt81" class="bgt bgtc1" points="96,192 84,276 0,288 0,192 "/>
<polygon id="bgt82" class="bgt bgtc5" points="96,192 132,240 96,288 48,324 0,288 "/>
<polygon id="bgt83" class="bgt bgtc5" points="96,192 180,204 192,288 144,324 96,288 "/>
<polygon id="bgt84" class="bgt bgtc3" points="96,192 194,192 228,240 192,288 "/>
<polygon id="bgt85" class="bgt bgtc1" points="96,384 84,300 0,288 0,384 48,420 "/>
<polygon id="bgt86" class="bgt bgtc0" points="96,384 132,336 96,288 0,288 "/>
<polygon id="bgt87" class="bgt bgtc0" points="96,384 180,372 192,288 96,288 "/>
<polygon id="bgt88" class="bgt bgtc2" points="96,384 144,420 192,384 228,336 192,288 "/>
<polygon id="bgt89" class="bgt bgtc2" points="288,192 276,276 192,288 192,192 "/>
<polygon id="bgt90" class="bgt bgtc0" points="288,192 324,240 288,288 240,324 192,288 "/>
<polygon id="bgt91" class="bgt bgtc3" points="288,192 372,204 384,288 336,324 288,288 "/>
<polygon id="bgt92" class="bgt bgtc4" points="288,192 386,192 420,240 384,288 "/>
<polygon id="bgt93" class="bgt bgtc4" points="288,384 276,300 192,288 192,384 240,420 "/>
<polygon id="bgt94" class="bgt bgtc5" points="288,384 324,336 288,288 192,288 "/>
<polygon id="bgt95" class="bgt bgtc3" points="288,384 372,372 384,288 288,288 "/>
<polygon id="bgt96" class="bgt bgtc6" points="288,384 336,420 384,384 420,336 384,288 "/>
<polygon id="bgt97" class="bgt bgtc6" points="480,192 468,276 384,288 384,192 "/>
<polygon id="bgt98" class="bgt bgtc4" points="480,192 516,240 480,288 432,324 384,288 "/>
<polygon id="bgt99" class="bgt bgtc5" points="480,192 564,204 576,288 528,324 480,288 "/>
<polygon id="bgt100" class="bgt bgtc6" points="480,192 578,192 612,240 576,288 "/>
<polygon id="bgt101" class="bgt bgtc3" points="480,384 468,300 384,288 384,384 432,420 "/>
<polygon id="bgt102" class="bgt bgtc1" points="480,384 516,336 480,288 384,288 "/>
<polygon id="bgt103" class="bgt bgtc2" points="480,384 564,372 576,288 480,288 "/>
<polygon id="bgt104" class="bgt bgtc5" points="480,384 528,420 576,384 612,336 576,288 "/>
<polygon id="bgt105" class="bgt bgtc0" points="672,192 660,276 576,288 576,192 "/>
<polygon id="bgt106" class="bgt bgtc1" points="672,192 708,240 672,288 624,324 576,288 "/>
<polygon id="bgt107" class="bgt bgtc6" points="672,192 756,204 768,288 720,324 672,288 "/>
<polygon id="bgt108" class="bgt bgtc2" points="672,192 770,192 804,240 768,288 "/>
<polygon id="bgt109" class="bgt bgtc2" points="672,384 660,300 576,288 576,384 624,420 "/>
<polygon id="bgt110" class="bgt bgtc6" points="672,384 708,336 672,288 576,288 "/>
<polygon id="bgt111" class="bgt bgtc6" points="672,384 756,372 768,288 672,288 "/>
<polygon id="bgt112" class="bgt bgtc6" points="672,384 720,420 768,384 804,336 768,288 "/>
<polygon id="bgt113" class="bgt bgtc1" points="864,192 852,276 768,288 768,192 "/>
<polygon id="bgt114" class="bgt bgtc3" points="864,192 900,240 864,288 816,324 768,288 "/>
<polygon id="bgt115" class="bgt bgtc1" points="864,192 948,204 960,288 912,324 864,288 "/>
<polygon id="bgt116" class="bgt bgtc5" points="864,192 962,192 996,240 960,288 "/>
<polygon id="bgt117" class="bgt bgtc3" points="864,384 852,300 768,288 768,384 816,420 "/>
<polygon id="bgt118" class="bgt bgtc5" points="864,384 900,336 864,288 768,288 "/>
<polygon id="bgt119" class="bgt bgtc1" points="864,384 948,372 960,288 864,288 "/>
<polygon id="bgt120" class="bgt bgtc3" points="864,384 912,420 960,384 996,336 960,288 "/>
<polygon id="bgt121" class="bgt bgtc6" points="1056,192 1044,276 960,288 960,192 "/>
<polygon id="bgt122" class="bgt bgtc6" points="1056,192 1092,240 1056,288 1008,324 960,288 "/>
<polygon id="bgt123" class="bgt bgtc6" points="1056,192 1140,204 1152,288 1104,324 1056,288 "/>
<polygon id="bgt124" class="bgt bgtc2" points="1056,192 1154,192 1188,240 1152,288 "/>
<polygon id="bgt125" class="bgt bgtc2" points="1056,384 1044,300 960,288 960,384 1008,420 "/>
<polygon id="bgt126" class="bgt bgtc1" points="1056,384 1092,336 1056,288 960,288 "/>
<polygon id="bgt127" class="bgt bgtc2" points="1056,384 1140,372 1152,288 1056,288 "/>
<polygon id="bgt128" class="bgt bgtc2" points="1056,384 1104,420 1152,384 1188,336 1152,288 "/>
<polygon id="bgt129" class="bgt bgtc3" points="1248,192 1236,276 1152,288 1152,192 "/>
<polygon id="bgt130" class="bgt bgtc3" points="1248,192 1284,240 1248,288 1200,324 1152,288 "/>
<polygon id="bgt131" class="bgt bgtc6" points="1248,192 1332,204 1344,288 1296,324 1248,288 "/>
<polygon id="bgt132" class="bgt bgtc4" points="1248,192 1346,192 1380,240 1344,288 "/>
<polygon id="bgt133" class="bgt bgtc3" points="1248,384 1236,300 1152,288 1152,384 1200,420 "/>
<polygon id="bgt134" class="bgt bgtc6" points="1248,384 1284,336 1248,288 1152,288 "/>
<polygon id="bgt135" class="bgt bgtc5" points="1248,384 1332,372 1344,288 1248,288 "/>
<polygon id="bgt136" class="bgt bgtc4" points="1248,384 1296,420 1344,384 1380,336 1344,288 "/>
<polygon id="bgt137" class="bgt bgtc3" points="1440,192 1428,276 1344,288 1344,192 "/>
<polygon id="bgt138" class="bgt bgtc2" points="1440,192 1476,240 1440,288 1392,324 1344,288 "/>
<polygon id="bgt139" class="bgt bgtc0" points="1440,192 1524,204 1536,288 1488,324 1440,288 "/>
<polygon id="bgt140" class="bgt bgtc4" points="1440,192 1538,192 1572,240 1536,288 "/>
<polygon id="bgt141" class="bgt bgtc6" points="1440,384 1428,300 1344,288 1344,384 1392,420 "/>
<polygon id="bgt142" class="bgt bgtc2" points="1440,384 1476,336 1440,288 1344,288 "/>
<polygon id="bgt143" class="bgt bgtc1" points="1440,384 1524,372 1536,288 1440,288 "/>
<polygon id="bgt144" class="bgt bgtc2" points="1440,384 1488,420 1536,384 1572,336 1536,288 "/>
<polygon id="bgt145" class="bgt bgtc1" points="1632,192 1620,276 1536,288 1536,192 "/>
<polygon id="bgt146" class="bgt bgtc6" points="1632,192 1668,240 1632,288 1584,324 1536,288 "/>
<polygon id="bgt147" class="bgt bgtc3" points="1632,192 1716,204 1728,288 1680,324 1632,288 "/>
<polygon id="bgt148" class="bgt bgtc4" points="1632,192 1730,192 1764,240 1728,288 "/>
<polygon id="bgt149" class="bgt bgtc5" points="1632,384 1620,300 1536,288 1536,384 1584,420 "/>
<polygon id="bgt150" class="bgt bgtc5" points="1632,384 1668,336 1632,288 1536,288 "/>
<polygon id="bgt151" class="bgt bgtc1" points="1632,384 1716,372 1728,288 1632,288 "/>
<polygon id="bgt152" class="bgt bgtc4" points="1632,384 1680,420 1728,384 1764,336 1728,288 "/>
<polygon id="bgt153" class="bgt bgtc4" points="1824,192 1812,276 1728,288 1728,192 "/>
<polygon id="bgt154" class="bgt bgtc0" points="1824,192 1860,240 1824,288 1776,324 1728,288 "/>
<polygon id="bgt155" class="bgt bgtc5" points="1824,192 1908,204 1920,288 1872,324 1824,288 "/>
<polygon id="bgt156" class="bgt bgtc2" points="1824,192 1922,192 1956,240 1920,288 "/>
<polygon id="bgt157" class="bgt bgtc1" points="1824,384 1812,300 1728,288 1728,384 1776,420 "/>
<polygon id="bgt158" class="bgt bgtc4" points="1824,384 1860,336 1824,288 1728,288 "/>
<polygon id="bgt159" class="bgt bgtc4" points="1824,384 1908,372 1920,288 1824,288 "/>
<polygon id="bgt160" class="bgt bgtc3" points="1824,384 1872,420 1920,384 1956,336 1920,288 "/>
<polygon id="bgt161" class="bgt bgtc1" points="96,384 84,468 0,480 0,384 "/>
<polygon id="bgt162" class="bgt bgtc6" points="96,384 132,432 96,480 48,516 0,480 "/>
<polygon id="bgt163" class="bgt bgtc6" points="96,384 180,396 192,480 144,516 96,480 "/>
<polygon id="bgt164" class="bgt bgtc2" points="96,384 194,384 228,432 192,480 "/>
<polygon id="bgt165" class="bgt bgtc4" points="96,576 84,492 0,480 0,576 48,612 "/>
<polygon id="bgt166" class="bgt bgtc6" points="96,576 132,528 96,480 0,480 "/>
<polygon id="bgt167" class="bgt bgtc5" points="96,576 180,564 192,480 96,480 "/>
<polygon id="bgt168" class="bgt bgtc5" points="96,576 144,612 192,576 228,528 192,480 "/>
<polygon id="bgt169" class="bgt bgtc0" points="288,384 276,468 192,480 192,384 "/>
<polygon id="bgt170" class="bgt bgtc6" points="288,384 324,432 288,480 240,516 192,480 "/>
<polygon id="bgt171" class="bgt bgtc2" points="288,384 372,396 384,480 336,516 288,480 "/>
<polygon id="bgt172" class="bgt bgtc5" points="288,384 386,384 420,432 384,480 "/>
<polygon id="bgt173" class="bgt bgtc4" points="288,576 276,492 192,480 192,576 240,612 "/>
<polygon id="bgt174" class="bgt bgtc3" points="288,576 324,528 288,480 192,480 "/>
<polygon id="bgt175" class="bgt bgtc3" points="288,576 372,564 384,480 288,480 "/>
<polygon id="bgt176" class="bgt bgtc4" points="288,576 336,612 384,576 420,528 384,480 "/>
<polygon id="bgt177" class="bgt bgtc1" points="480,384 468,468 384,480 384,384 "/>
<polygon id="bgt178" class="bgt bgtc3" points="480,384 516,432 480,480 432,516 384,480 "/>
<polygon id="bgt179" class="bgt bgtc1" points="480,384 564,396 576,480 528,516 480,480 "/>
<polygon id="bgt180" class="bgt bgtc5" points="480,384 578,384 612,432 576,480 "/>
<polygon id="bgt181" class="bgt bgtc3" points="480,576 468,492 384,480 384,576 432,612 "/>
<polygon id="bgt182" class="bgt bgtc4" points="480,576 516,528 480,480 384,480 "/>
<polygon id="bgt183" class="bgt bgtc0" points="480,576 564,564 576,480 480,480 "/>
<polygon id="bgt184" class="bgt bgtc0" points="480,576 528,612 576,576 612,528 576,480 "/>
<polygon id="bgt185" class="bgt bgtc6" points="672,384 660,468 576,480 576,384 "/>
<polygon id="bgt186" class="bgt bgtc5" points="672,384 708,432 672,480 624,516 576,480 "/>
<polygon id="bgt187" class="bgt bgtc1" points="672,384 756,396 768,480 720,516 672,480 "/>
<polygon id="bgt188" class="bgt bgtc4" points="672,384 770,384 804,432 768,480 "/>
<polygon id="bgt189" class="bgt bgtc5" points="672,576 660,492 576,480 576,576 624,612 "/>
<polygon id="bgt190" class="bgt bgtc0" points="672,576 708,528 672,480 576,480 "/>
<polygon id="bgt191" class="bgt bgtc3" points="672,576 756,564 768,480 672,480 "/>
<polygon id="bgt192" class="bgt bgtc0" points="672,576 720,612 768,576 804,528 768,480 "/>
<polygon id="bgt193" class="bgt bgtc3" points="864,384 852,468 768,480 768,384 "/>
<polygon id="bgt194" class="bgt bgtc2" points="864,384 900,432 864,480 816,516 768,480 "/>
<polygon id="bgt195" class="bgt bgtc6" points="864,384 948,396 960,480 912,516 864,480 "/>
<polygon id="bgt196" class="bgt bgtc3" points="864,384 962,384 996,432 960,480 "/>
<polygon id="bgt197" class="bgt bgtc2" points="864,576 852,492 768,480 768,576 816,612 "/>
<polygon id="bgt198" class="bgt bgtc1" points="864,576 900,528 864,480 768,480 "/>
<polygon id="bgt199" class="bgt bgtc6" points="864,576 948,564 960,480 864,480 "/>
<polygon id="bgt200" class="bgt bgtc2" points="864,576 912,612 960,576 996,528 960,480 "/>
<polygon id="bgt201" class="bgt bgtc5" points="1056,384 1044,468 960,480 960,384 "/>
<polygon id="bgt202" class="bgt bgtc5" points="1056,384 1092,432 1056,480 1008,516 960,480 "/>
<polygon id="bgt203" class="bgt bgtc2" points="1056,384 1140,396 1152,480 1104,516 1056,480 "/>
<polygon id="bgt204" class="bgt bgtc2" points="1056,384 1154,384 1188,432 1152,480 "/>
<polygon id="bgt205" class="bgt bgtc4" points="1056,576 1044,492 960,480 960,576 1008,612 "/>
<polygon id="bgt206" class="bgt bgtc6" points="1056,576 1092,528 1056,480 960,480 "/>
<polygon id="bgt207" class="bgt bgtc2" points="1056,576 1140,564 1152,480 1056,480 "/>
<polygon id="bgt208" class="bgt bgtc4" points="1056,576 1104,612 1152,576 1188,528 1152,480 "/>
<polygon id="bgt209" class="bgt bgtc3" points="1248,384 1236,468 1152,480 1152,384 "/>
<polygon id="bgt210" class="bgt bgtc0" points="1248,384 1284,432 1248,480 1200,516 1152,480 "/>
<polygon id="bgt211" class="bgt bgtc4" points="1248,384 1332,396 1344,480 1296,516 1248,480 "/>
<polygon id="bgt212" class="bgt bgtc3" points="1248,384 1346,384 1380,432 1344,480 "/>
<polygon id="bgt213" class="bgt bgtc2" points="1248,576 1236,492 1152,480 1152,576 1200,612 "/>
<polygon id="bgt214" class="bgt bgtc4" points="1248,576 1284,528 1248,480 1152,480 "/>
<polygon id="bgt215" class="bgt bgtc1" points="1248,576 1332,564 1344,480 1248,480 "/>
<polygon id="bgt216" class="bgt bgtc6" points="1248,576 1296,612 1344,576 1380,528 1344,480 "/>
<polygon id="bgt217" class="bgt bgtc0" points="1440,384 1428,468 1344,480 1344,384 "/>
<polygon id="bgt218" class="bgt bgtc5" points="1440,384 1476,432 1440,480 1392,516 1344,480 "/>
<polygon id="bgt219" class="bgt bgtc1" points="1440,384 1524,396 1536,480 1488,516 1440,480 "/>
<polygon id="bgt220" class="bgt bgtc2" points="1440,384 1538,384 1572,432 1536,480 "/>
<polygon id="bgt221" class="bgt bgtc0" points="1440,576 1428,492 1344,480 1344,576 1392,612 "/>
<polygon id="bgt222" class="bgt bgtc4" points="1440,576 1476,528 1440,480 1344,480 "/>
<polygon id="bgt223" class="bgt bgtc1" points="1440,576 1524,564 1536,480 1440,480 "/>
<polygon id="bgt224" class="bgt bgtc2" points="1440,576 1488,612 1536,576 1572,528 1536,480 "/>
<polygon id="bgt225" class="bgt bgtc2" points="1632,384 1620,468 1536,480 1536,384 "/>
<polygon id="bgt226" class="bgt bgtc1" points="1632,384 1668,432 1632,480 1584,516 1536,480 "/>
<polygon id="bgt227" class="bgt bgtc4" points="1632,384 1716,396 1728,480 1680,516 1632,480 "/>
<polygon id="bgt228" class="bgt bgtc2" points="1632,384 1730,384 1764,432 1728,480 "/>
<polygon id="bgt229" class="bgt bgtc2" points="1632,576 1620,492 1536,480 1536,576 1584,612 "/>
<polygon id="bgt230" class="bgt bgtc0" points="1632,576 1668,528 1632,480 1536,480 "/>
<polygon id="bgt231" class="bgt bgtc5" points="1632,576 1716,564 1728,480 1632,480 "/>
<polygon id="bgt232" class="bgt bgtc5" points="1632,576 1680,612 1728,576 1764,528 1728,480 "/>
<polygon id="bgt233" class="bgt bgtc5" points="1824,384 1812,468 1728,480 1728,384 "/>
<polygon id="bgt234" class="bgt bgtc0" points="1824,384 1860,432 1824,480 1776,516 1728,480 "/>
<polygon id="bgt235" class="bgt bgtc6" points="1824,384 1908,396 1920,480 1872,516 1824,480 "/>
<polygon id="bgt236" class="bgt bgtc3" points="1824,384 1922,384 1956,432 1920,480 "/>
<polygon id="bgt237" class="bgt bgtc0" points="1824,576 1812,492 1728,480 1728,576 1776,612 "/>
<polygon id="bgt238" class="bgt bgtc4" points="1824,576 1860,528 1824,480 1728,480 "/>
<polygon id="bgt239" class="bgt bgtc2" points="1824,576 1908,564 1920,480 1824,480 "/>
<polygon id="bgt240" class="bgt bgtc3" points="1824,576 1872,612 1920,576 1956,528 1920,480 "/>
<polygon id="bgt241" class="bgt bgtc0" points="96,576 84,660 0,672 0,576 "/>
<polygon id="bgt242" class="bgt bgtc2" points="96,576 132,624 96,672 48,708 0,672 "/>
<polygon id="bgt243" class="bgt bgtc0" points="96,576 180,588 192,672 144,708 96,672 "/>
<polygon id="bgt244" class="bgt bgtc3" points="96,576 194,576 228,624 192,672 "/>
<polygon id="bgt245" class="bgt bgtc0" points="96,768 84,684 0,672 0,768 48,804 "/>
<polygon id="bgt246" class="bgt bgtc1" points="96,768 132,720 96,672 0,672 "/>
<polygon id="bgt247" class="bgt bgtc1" points="96,768 180,756 192,672 96,672 "/>
<polygon id="bgt248" class="bgt bgtc1" points="96,768 144,804 192,768 228,720 192,672 "/>
<polygon id="bgt249" class="bgt bgtc0" points="288,576 276,660 192,672 192,576 "/>
<polygon id="bgt250" class="bgt bgtc1" points="288,576 324,624 288,672 240,708 192,672 "/>
<polygon id="bgt251" class="bgt bgtc6" points="288,576 372,588 384,672 336,708 288,672 "/>
<polygon id="bgt252" class="bgt bgtc4" points="288,576 386,576 420,624 384,672 "/>
<polygon id="bgt253" class="bgt bgtc5" points="288,768 276,684 192,672 192,768 240,804 "/>
<polygon id="bgt254" class="bgt bgtc1" points="288,768 324,720 288,672 192,672 "/>
<polygon id="bgt255" class="bgt bgtc1" points="288,768 372,756 384,672 288,672 "/>
<polygon id="bgt256" class="bgt bgtc5" points="288,768 336,804 384,768 420,720 384,672 "/>
<polygon id="bgt257" class="bgt bgtc0" points="480,576 468,660 384,672 384,576 "/>
<polygon id="bgt258" class="bgt bgtc0" points="480,576 516,624 480,672 432,708 384,672 "/>
<polygon id="bgt259" class="bgt bgtc3" points="480,576 564,588 576,672 528,708 480,672 "/>
<polygon id="bgt260" class="bgt bgtc6" points="480,576 578,576 612,624 576,672 "/>
<polygon id="bgt261" class="bgt bgtc1" points="480,768 468,684 384,672 384,768 432,804 "/>
<polygon id="bgt262" class="bgt bgtc0" points="480,768 516,720 480,672 384,672 "/>
<polygon id="bgt263" class="bgt bgtc2" points="480,768 564,756 576,672 480,672 "/>
<polygon id="bgt264" class="bgt bgtc0" points="480,768 528,804 576,768 612,720 576,672 "/>
<polygon id="bgt265" class="bgt bgtc6" points="672,576 660,660 576,672 576,576 "/>
<polygon id="bgt266" class="bgt bgtc2" points="672,576 708,624 672,672 624,708 576,672 "/>
<polygon id="bgt267" class="bgt bgtc4" points="672,576 756,588 768,672 720,708 672,672 "/>
<polygon id="bgt268" class="bgt bgtc1" points="672,576 770,576 804,624 768,672 "/>
<polygon id="bgt269" class="bgt bgtc1" points="672,768 660,684 576,672 576,768 624,804 "/>
<polygon id="bgt270" class="bgt bgtc3" points="672,768 708,720 672,672 576,672 "/>
<polygon id="bgt271" class="bgt bgtc0" points="672,768 756,756 768,672 672,672 "/>
<polygon id="bgt272" class="bgt bgtc4" points="672,768 720,804 768,768 804,720 768,672 "/>
<polygon id="bgt273" class="bgt bgtc4" points="864,576 852,660 768,672 768,576 "/>
<polygon id="bgt274" class="bgt bgtc2" points="864,576 900,624 864,672 816,708 768,672 "/>
<polygon id="bgt275" class="bgt bgtc6" points="864,576 948,588 960,672 912,708 864,672 "/>
<polygon id="bgt276" class="bgt bgtc1" points="864,576 962,576 996,624 960,672 "/>
<polygon id="bgt277" class="bgt bgtc6" points="864,768 852,684 768,672 768,768 816,804 "/>
<polygon id="bgt278" class="bgt bgtc0" points="864,768 900,720 864,672 768,672 "/>
<polygon id="bgt279" class="bgt bgtc0" points="864,768 948,756 960,672 864,672 "/>
<polygon id="bgt280" class="bgt bgtc0" points="864,768 912,804 960,768 996,720 960,672 "/>
<polygon id="bgt281" class="bgt bgtc6" points="1056,576 1044,660 960,672 960,576 "/>
<polygon id="bgt282" class="bgt bgtc1" points="1056,576 1092,624 1056,672 1008,708 960,672 "/>
<polygon id="bgt283" class="bgt bgtc3" points="1056,576 1140,588 1152,672 1104,708 1056,672 "/>
<polygon id="bgt284" class="bgt bgtc3" points="1056,576 1154,576 1188,624 1152,672 "/>
<polygon id="bgt285" class="bgt bgtc1" points="1056,768 1044,684 960,672 960,768 1008,804 "/>
<polygon id="bgt286" class="bgt bgtc2" points="1056,768 1092,720 1056,672 960,672 "/>
<polygon id="bgt287" class="bgt bgtc5" points="1056,768 1140,756 1152,672 1056,672 "/>
<polygon id="bgt288" class="bgt bgtc1" points="1056,768 1104,804 1152,768 1188,720 1152,672 "/>
<polygon id="bgt289" class="bgt bgtc3" points="1248,576 1236,660 1152,672 1152,576 "/>
<polygon id="bgt290" class="bgt bgtc1" points="1248,576 1284,624 1248,672 1200,708 1152,672 "/>
<polygon id="bgt291" class="bgt bgtc3" points="1248,576 1332,588 1344,672 1296,708 1248,672 "/>
<polygon id="bgt292" class="bgt bgtc5" points="1248,576 1346,576 1380,624 1344,672 "/>
<polygon id="bgt293" class="bgt bgtc5" points="1248,768 1236,684 1152,672 1152,768 1200,804 "/>
<polygon id="bgt294" class="bgt bgtc4" points="1248,768 1284,720 1248,672 1152,672 "/>
<polygon id="bgt295" class="bgt bgtc3" points="1248,768 1332,756 1344,672 1248,672 "/>
<polygon id="bgt296" class="bgt bgtc2" points="1248,768 1296,804 1344,768 1380,720 1344,672 "/>
<polygon id="bgt297" class="bgt bgtc3" points="1440,576 1428,660 1344,672 1344,576 "/>
<polygon id="bgt298" class="bgt bgtc2" points="1440,576 1476,624 1440,672 1392,708 1344,672 "/>
<polygon id="bgt299" class="bgt bgtc5" points="1440,576 1524,588 1536,672 1488,708 1440,672 "/>
<polygon id="bgt300" class="bgt bgtc5" points="1440,576 1538,576 1572,624 1536,672 "/>
<polygon id="bgt301" class="bgt bgtc2" points="1440,768 1428,684 1344,672 1344,768 1392,804 "/>
<polygon id="bgt302" class="bgt bgtc4" points="1440,768 1476,720 1440,672 1344,672 "/>
<polygon id="bgt303" class="bgt bgtc1" points="1440,768 1524,756 1536,672 1440,672 "/>
<polygon id="bgt304" class="bgt bgtc1" points="1440,768 1488,804 1536,768 1572,720 1536,672 "/>
<polygon id="bgt305" class="bgt bgtc3" points="1632,576 1620,660 1536,672 1536,576 "/>
<polygon id="bgt306" class="bgt bgtc4" points="1632,576 1668,624 1632,672 1584,708 1536,672 "/>
<polygon id="bgt307" class="bgt bgtc0" points="1632,576 1716,588 1728,672 1680,708 1632,672 "/>
<polygon id="bgt308" class="bgt bgtc1" points="1632,576 1730,576 1764,624 1728,672 "/>
<polygon id="bgt309" class="bgt bgtc2" points="1632,768 1620,684 1536,672 1536,768 1584,804 "/>
<polygon id="bgt310" class="bgt bgtc4" points="1632,768 1668,720 1632,672 1536,672 "/>
<polygon id="bgt311" class="bgt bgtc5" points="1632,768 1716,756 1728,672 1632,672 "/>
<polygon id="bgt312" class="bgt bgtc5" points="1632,768 1680,804 1728,768 1764,720 1728,672 "/>
<polygon id="bgt313" class="bgt bgtc0" points="1824,576 1812,660 1728,672 1728,576 "/>
<polygon id="bgt314" class="bgt bgtc6" points="1824,576 1860,624 1824,672 1776,708 1728,672 "/>
<polygon id="bgt315" class="bgt bgtc4" points="1824,576 1908,588 1920,672 1872,708 1824,672 "/>
<polygon id="bgt316" class="bgt bgtc3" points="1824,576 1922,576 1956,624 1920,672 "/>
<polygon id="bgt317" class="bgt bgtc4" points="1824,768 1812,684 1728,672 1728,768 1776,804 "/>
<polygon id="bgt318" class="bgt bgtc6" points="1824,768 1860,720 1824,672 1728,672 "/>
<polygon id="bgt319" class="bgt bgtc4" points="1824,768 1908,756 1920,672 1824,672 "/>
<polygon id="bgt320" class="bgt bgtc4" points="1824,768 1872,804 1920,768 1956,720 1920,672 "/>
<polygon id="bgt321" class="bgt bgtc5" points="96,768 84,852 0,864 0,768 "/>
<polygon id="bgt322" class="bgt bgtc1" points="96,768 132,816 96,864 48,900 0,864 "/>
<polygon id="bgt323" class="bgt bgtc1" points="96,768 180,780 192,864 144,900 96,864 "/>
<polygon id="bgt324" class="bgt bgtc2" points="96,768 194,768 228,816 192,864 "/>
<polygon id="bgt325" class="bgt bgtc2" points="96,960 84,876 0,864 0,960 48,996 "/>
<polygon id="bgt326" class="bgt bgtc5" points="96,960 132,912 96,864 0,864 "/>
<polygon id="bgt327" class="bgt bgtc6" points="96,960 180,948 192,864 96,864 "/>
<polygon id="bgt328" class="bgt bgtc5" points="96,960 144,996 192,960 228,912 192,864 "/>
<polygon id="bgt329" class="bgt bgtc0" points="288,768 276,852 192,864 192,768 "/>
<polygon id="bgt330" class="bgt bgtc5" points="288,768 324,816 288,864 240,900 192,864 "/>
<polygon id="bgt331" class="bgt bgtc6" points="288,768 372,780 384,864 336,900 288,864 "/>
<polygon id="bgt332" class="bgt bgtc1" points="288,768 386,768 420,816 384,864 "/>
<polygon id="bgt333" class="bgt bgtc4" points="288,960 276,876 192,864 192,960 240,996 "/>
<polygon id="bgt334" class="bgt bgtc5" points="288,960 324,912 288,864 192,864 "/>
<polygon id="bgt335" class="bgt bgtc3" points="288,960 372,948 384,864 288,864 "/>
<polygon id="bgt336" class="bgt bgtc0" points="288,960 336,996 384,960 420,912 384,864 "/>
<polygon id="bgt337" class="bgt bgtc3" points="480,768 468,852 384,864 384,768 "/>
<polygon id="bgt338" class="bgt bgtc2" points="480,768 516,816 480,864 432,900 384,864 "/>
<polygon id="bgt339" class="bgt bgtc3" points="480,768 564,780 576,864 528,900 480,864 "/>
<polygon id="bgt340" class="bgt bgtc2" points="480,768 578,768 612,816 576,864 "/>
<polygon id="bgt341" class="bgt bgtc3" points="480,960 468,876 384,864 384,960 432,996 "/>
<polygon id="bgt342" class="bgt bgtc3" points="480,960 516,912 480,864 384,864 "/>
<polygon id="bgt343" class="bgt bgtc4" points="480,960 564,948 576,864 480,864 "/>
<polygon id="bgt344" class="bgt bgtc4" points="480,960 528,996 576,960 612,912 576,864 "/>
<polygon id="bgt345" class="bgt bgtc5" points="672,768 660,852 576,864 576,768 "/>
<polygon id="bgt346" class="bgt bgtc2" points="672,768 708,816 672,864 624,900 576,864 "/>
<polygon id="bgt347" class="bgt bgtc6" points="672,768 756,780 768,864 720,900 672,864 "/>
<polygon id="bgt348" class="bgt bgtc0" points="672,768 770,768 804,816 768,864 "/>
<polygon id="bgt349" class="bgt bgtc3" points="672,960 660,876 576,864 576,960 624,996 "/>
<polygon id="bgt350" class="bgt bgtc2" points="672,960 708,912 672,864 576,864 "/>
<polygon id="bgt351" class="bgt bgtc3" points="672,960 756,948 768,864 672,864 "/>
<polygon id="bgt352" class="bgt bgtc0" points="672,960 720,996 768,960 804,912 768,864 "/>
<polygon id="bgt353" class="bgt bgtc1" points="864,768 852,852 768,864 768,768 "/>
<polygon id="bgt354" class="bgt bgtc4" points="864,768 900,816 864,864 816,900 768,864 "/>
<polygon id="bgt355" class="bgt bgtc3" points="864,768 948,780 960,864 912,900 864,864 "/>
<polygon id="bgt356" class="bgt bgtc2" points="864,768 962,768 996,816 960,864 "/>
<polygon id="bgt357" class="bgt bgtc0" points="864,960 852,876 768,864 768,960 816,996 "/>
<polygon id="bgt358" class="bgt bgtc3" points="864,960 900,912 864,864 768,864 "/>
<polygon id="bgt359" class="bgt bgtc5" points="864,960 948,948 960,864 864,864 "/>
<polygon id="bgt360" class="bgt bgtc1" points="864,960 912,996 960,960 996,912 960,864 "/>
<polygon id="bgt361" class="bgt bgtc3" points="1056,768 1044,852 960,864 960,768 "/>
<polygon id="bgt362" class="bgt bgtc2" points="1056,768 1092,816 1056,864 1008,900 960,864 "/>
<polygon id="bgt363" class="bgt bgtc0" points="1056,768 1140,780 1152,864 1104,900 1056,864 "/>
<polygon id="bgt364" class="bgt bgtc3" points="1056,768 1154,768 1188,816 1152,864 "/>
<polygon id="bgt365" class="bgt bgtc1" points="1056,960 1044,876 960,864 960,960 1008,996 "/>
<polygon id="bgt366" class="bgt bgtc3" points="1056,960 1092,912 1056,864 960,864 "/>
<polygon id="bgt367" class="bgt bgtc5" points="1056,960 1140,948 1152,864 1056,864 "/>
<polygon id="bgt368" class="bgt bgtc2" points="1056,960 1104,996 1152,960 1188,912 1152,864 "/>
<polygon id="bgt369" class="bgt bgtc6" points="1248,768 1236,852 1152,864 1152,768 "/>
<polygon id="bgt370" class="bgt bgtc6" points="1248,768 1284,816 1248,864 1200,900 1152,864 "/>
<polygon id="bgt371" class="bgt bgtc0" points="1248,768 1332,780 1344,864 1296,900 1248,864 "/>
<polygon id="bgt372" class="bgt bgtc3" points="1248,768 1346,768 1380,816 1344,864 "/>
<polygon id="bgt373" class="bgt bgtc0" points="1248,960 1236,876 1152,864 1152,960 1200,996 "/>
<polygon id="bgt374" class="bgt bgtc6" points="1248,960 1284,912 1248,864 1152,864 "/>
<polygon id="bgt375" class="bgt bgtc5" points="1248,960 1332,948 1344,864 1248,864 "/>
<polygon id="bgt376" class="bgt bgtc6" points="1248,960 1296,996 1344,960 1380,912 1344,864 "/>
<polygon id="bgt377" class="bgt bgtc6" points="1440,768 1428,852 1344,864 1344,768 "/>
<polygon id="bgt378" class="bgt bgtc4" points="1440,768 1476,816 1440,864 1392,900 1344,864 "/>
<polygon id="bgt379" class="bgt bgtc0" points="1440,768 1524,780 1536,864 1488,900 1440,864 "/>
<polygon id="bgt380" class="bgt bgtc4" points="1440,768 1538,768 1572,816 1536,864 "/>
<polygon id="bgt381" class="bgt bgtc4" points="1440,960 1428,876 1344,864 1344,960 1392,996 "/>
<polygon id="bgt382" class="bgt bgtc1" points="1440,960 1476,912 1440,864 1344,864 "/>
<polygon id="bgt383" class="bgt bgtc6" points="1440,960 1524,948 1536,864 1440,864 "/>
<polygon id="bgt384" class="bgt bgtc5" points="1440,960 1488,996 1536,960 1572,912 1536,864 "/>
<polygon id="bgt385" class="bgt bgtc6" points="1632,768 1620,852 1536,864 1536,768 "/>
<polygon id="bgt386" class="bgt bgtc1" points="1632,768 1668,816 1632,864 1584,900 1536,864 "/>
<polygon id="bgt387" class="bgt bgtc3" points="1632,768 1716,780 1728,864 1680,900 1632,864 "/>
<polygon id="bgt388" class="bgt bgtc6" points="1632,768 1730,768 1764,816 1728,864 "/>
<polygon id="bgt389" class="bgt bgtc4" points="1632,960 1620,876 1536,864 1536,960 1584,996 "/>
<polygon id="bgt390" class="bgt bgtc3" points="1632,960 1668,912 1632,864 1536,864 "/>
<polygon id="bgt391" class="bgt bgtc2" points="1632,960 1716,948 1728,864 1632,864 "/>
<polygon id="bgt392" class="bgt bgtc3" points="1632,960 1680,996 1728,960 1764,912 1728,864 "/>
<polygon id="bgt393" class="bgt bgtc1" points="1824,768 1812,852 1728,864 1728,768 "/>
<polygon id="bgt394" class="bgt bgtc1" points="1824,768 1860,816 1824,864 1776,900 1728,864 "/>
<polygon id="bgt395" class="bgt bgtc2" points="1824,768 1908,780 1920,864 1872,900 1824,864 "/>
<polygon id="bgt396" class="bgt bgtc0" points="1824,768 1922,768 1956,816 1920,864 "/>
<polygon id="bgt397" class="bgt bgtc6" points="1824,960 1812,876 1728,864 1728,960 1776,996 "/>
<polygon id="bgt398" class="bgt bgtc2" points="1824,960 1860,912 1824,864 1728,864 "/>
<polygon id="bgt399" class="bgt bgtc2" points="1824,960 1908,948 1920,864 1824,864 "/>
<polygon id="bgt400" class="bgt bgtc6" points="1824,960 1872,996 1920,960 1956,912 1920,864 "/>
<polygon id="bgt401" class="bgt bgtc1" points="96,960 84,1044 0,1056 0,960 "/>
<polygon id="bgt402" class="bgt bgtc5" points="96,960 132,1008 96,1056 48,1092 0,1056 "/>
<polygon id="bgt403" class="bgt bgtc1" points="96,960 180,972 192,1056 144,1092 96,1056 "/>
<polygon id="bgt404" class="bgt bgtc4" points="96,960 194,960 228,1008 192,1056 "/>
<polygon id="bgt405" class="bgt bgtc1" points="96,1152 84,1068 0,1056 0,1152 48,1188 "/>
<polygon id="bgt406" class="bgt bgtc6" points="96,1152 132,1104 96,1056 0,1056 "/>
<polygon id="bgt407" class="bgt bgtc3" points="96,1152 180,1140 192,1056 96,1056 "/>
<polygon id="bgt408" class="bgt bgtc1" points="96,1152 144,1188 192,1152 228,1104 192,1056 "/>
<polygon id="bgt409" class="bgt bgtc4" points="288,960 276,1044 192,1056 192,960 "/>
<polygon id="bgt410" class="bgt bgtc3" points="288,960 324,1008 288,1056 240,1092 192,1056 "/>
<polygon id="bgt411" class="bgt bgtc3" points="288,960 372,972 384,1056 336,1092 288,1056 "/>
<polygon id="bgt412" class="bgt bgtc6" points="288,960 386,960 420,1008 384,1056 "/>
<polygon id="bgt413" class="bgt bgtc2" points="288,1152 276,1068 192,1056 192,1152 240,1188 "/>
<polygon id="bgt414" class="bgt bgtc5" points="288,1152 324,1104 288,1056 192,1056 "/>
<polygon id="bgt415" class="bgt bgtc5" points="288,1152 372,1140 384,1056 288,1056 "/>
<polygon id="bgt416" class="bgt bgtc0" points="288,1152 336,1188 384,1152 420,1104 384,1056 "/>
<polygon id="bgt417" class="bgt bgtc5" points="480,960 468,1044 384,1056 384,960 "/>
<polygon id="bgt418" class="bgt bgtc1" points="480,960 516,1008 480,1056 432,1092 384,1056 "/>
<polygon id="bgt419" class="bgt bgtc4" points="480,960 564,972 576,1056 528,1092 480,1056 "/>
<polygon id="bgt420" class="bgt bgtc4" points="480,960 578,960 612,1008 576,1056 "/>
<polygon id="bgt421" class="bgt bgtc1" points="480,1152 468,1068 384,1056 384,1152 432,1188 "/>
<polygon id="bgt422" class="bgt bgtc6" points="480,1152 516,1104 480,1056 384,1056 "/>
<polygon id="bgt423" class="bgt bgtc1" points="480,1152 564,1140 576,1056 480,1056 "/>
<polygon id="bgt424" class="bgt bgtc5" points="480,1152 528,1188 576,1152 612,1104 576,1056 "/>
<polygon id="bgt425" class="bgt bgtc0" points="672,960 660,1044 576,1056 576,960 "/>
<polygon id="bgt426" class="bgt bgtc1" points="672,960 708,1008 672,1056 624,1092 576,1056 "/>
<polygon id="bgt427" class="bgt bgtc5" points="672,960 756,972 768,1056 720,1092 672,1056 "/>
<polygon id="bgt428" class="bgt bgtc0" points="672,960 770,960 804,1008 768,1056 "/>
<polygon id="bgt429" class="bgt bgtc3" points="672,1152 660,1068 576,1056 576,1152 624,1188 "/>
<polygon id="bgt430" class="bgt bgtc1" points="672,1152 708,1104 672,1056 576,1056 "/>
<polygon id="bgt431" class="bgt bgtc4" points="672,1152 756,1140 768,1056 672,1056 "/>
<polygon id="bgt432" class="bgt bgtc3" points="672,1152 720,1188 768,1152 804,1104 768,1056 "/>
<polygon id="bgt433" class="bgt bgtc3" points="864,960 852,1044 768,1056 768,960 "/>
<polygon id="bgt434" class="bgt bgtc3" points="864,960 900,1008 864,1056 816,1092 768,1056 "/>
<polygon id="bgt435" class="bgt bgtc0" points="864,960 948,972 960,1056 912,1092 864,1056 "/>
<polygon id="bgt436" class="bgt bgtc0" points="864,960 962,960 996,1008 960,1056 "/>
<polygon id="bgt437" class="bgt bgtc0" points="864,1152 852,1068 768,1056 768,1152 816,1188 "/>
<polygon id="bgt438" class="bgt bgtc6" points="864,1152 900,1104 864,1056 768,1056 "/>
<polygon id="bgt439" class="bgt bgtc5" points="864,1152 948,1140 960,1056 864,1056 "/>
<polygon id="bgt440" class="bgt bgtc5" points="864,1152 912,1188 960,1152 996,1104 960,1056 "/>
<polygon id="bgt441" class="bgt bgtc2" points="1056,960 1044,1044 960,1056 960,960 "/>
<polygon id="bgt442" class="bgt bgtc2" points="1056,960 1092,1008 1056,1056 1008,1092 960,1056 "/>
<polygon id="bgt443" class="bgt bgtc0" points="1056,960 1140,972 1152,1056 1104,1092 1056,1056 "/>
<polygon id="bgt444" class="bgt bgtc4" points="1056,960 1154,960 1188,1008 1152,1056 "/>
<polygon id="bgt445" class="bgt bgtc6" points="1056,1152 1044,1068 960,1056 960,1152 1008,1188 "/>
<polygon id="bgt446" class="bgt bgtc6" points="1056,1152 1092,1104 1056,1056 960,1056 "/>
<polygon id="bgt447" class="bgt bgtc4" points="1056,1152 1140,1140 1152,1056 1056,1056 "/>
<polygon id="bgt448" class="bgt bgtc4" points="1056,1152 1104,1188 1152,1152 1188,1104 1152,1056 "/>
<polygon id="bgt449" class="bgt bgtc5" points="1248,960 1236,1044 1152,1056 1152,960 "/>
<polygon id="bgt450" class="bgt bgtc2" points="1248,960 1284,1008 1248,1056 1200,1092 1152,1056 "/>
<polygon id="bgt451" class="bgt bgtc2" points="1248,960 1332,972 1344,1056 1296,1092 1248,1056 "/>
<polygon id="bgt452" class="bgt bgtc6" points="1248,960 1346,960 1380,1008 1344,1056 "/>
<polygon id="bgt453" class="bgt bgtc3" points="1248,1152 1236,1068 1152,1056 1152,1152 1200,1188 "/>
<polygon id="bgt454" class="bgt bgtc6" points="1248,1152 1284,1104 1248,1056 1152,1056 "/>
<polygon id="bgt455" class="bgt bgtc2" points="1248,1152 1332,1140 1344,1056 1248,1056 "/>
<polygon id="bgt456" class="bgt bgtc3" points="1248,1152 1296,1188 1344,1152 1380,1104 1344,1056 "/>
<polygon id="bgt457" class="bgt bgtc5" points="1440,960 1428,1044 1344,1056 1344,960 "/>
<polygon id="bgt458" class="bgt bgtc0" points="1440,960 1476,1008 1440,1056 1392,1092 1344,1056 "/>
<polygon id="bgt459" class="bgt bgtc1" points="1440,960 1524,972 1536,1056 1488,1092 1440,1056 "/>
<polygon id="bgt460" class="bgt bgtc0" points="1440,960 1538,960 1572,1008 1536,1056 "/>
<polygon id="bgt461" class="bgt bgtc2" points="1440,1152 1428,1068 1344,1056 1344,1152 1392,1188 "/>
<polygon id="bgt462" class="bgt bgtc5" points="1440,1152 1476,1104 1440,1056 1344,1056 "/>
<polygon id="bgt463" class="bgt bgtc4" points="1440,1152 1524,1140 1536,1056 1440,1056 "/>
<polygon id="bgt464" class="bgt bgtc5" points="1440,1152 1488,1188 1536,1152 1572,1104 1536,1056 "/>
<polygon id="bgt465" class="bgt bgtc3" points="1632,960 1620,1044 1536,1056 1536,960 "/>
<polygon id="bgt466" class="bgt bgtc4" points="1632,960 1668,1008 1632,1056 1584,1092 1536,1056 "/>
<polygon id="bgt467" class="bgt bgtc2" points="1632,960 1716,972 1728,1056 1680,1092 1632,1056 "/>
<polygon id="bgt468" class="bgt bgtc4" points="1632,960 1730,960 1764,1008 1728,1056 "/>
<polygon id="bgt469" class="bgt bgtc3" points="1632,1152 1620,1068 1536,1056 1536,1152 1584,1188 "/>
<polygon id="bgt470" class="bgt bgtc6" points="1632,1152 1668,1104 1632,1056 1536,1056 "/>
<polygon id="bgt471" class="bgt bgtc1" points="1632,1152 1716,1140 1728,1056 1632,1056 "/>
<polygon id="bgt472" class="bgt bgtc5" points="1632,1152 1680,1188 1728,1152 1764,1104 1728,1056 "/>
<polygon id="bgt473" class="bgt bgtc1" points="1824,960 1812,1044 1728,1056 1728,960 "/>
<polygon id="bgt474" class="bgt bgtc5" points="1824,960 1860,1008 1824,1056 1776,1092 1728,1056 "/>
<polygon id="bgt475" class="bgt bgtc5" points="1824,960 1908,972 1920,1056 1872,1092 1824,1056 "/>
<polygon id="bgt476" class="bgt bgtc0" points="1824,960 1922,960 1956,1008 1920,1056 "/>
<polygon id="bgt477" class="bgt bgtc6" points="1824,1152 1812,1068 1728,1056 1728,1152 1776,1188 "/>
<polygon id="bgt478" class="bgt bgtc5" points="1824,1152 1860,1104 1824,1056 1728,1056 "/>
<polygon id="bgt479" class="bgt bgtc5" points="1824,1152 1908,1140 1920,1056 1824,1056 "/>
<polygon id="bgt480" class="bgt bgtc3" points="1824,1152 1872,1188 1920,1152 1956,1104 1920,1056 "/>
</pattern>
</defs>

<rect fill="url(#bgPattern)" width="100%" height="100%"/>
</svg>
