<?xml version="1.0" encoding="utf-8"?>
<!-- Generator: Adobe Illustrator 22.0.0, SVG Export Plug-In . SVG Version: 6.00 Build 0)  -->
<svg version="1.1" id="Layer_1" xmlns="http://www.w3.org/2000/svg" xmlns:xlink="http://www.w3.org/1999/xlink" x="0px" y="0px"
	 viewBox="0 0 768 1152" style="enable-background:new 0 0 768 1152;" xml:space="preserve">
<style type="text/css">
	.st0{fill:#252525;}
	.st1{fill:#212121;}
	.st2{fill:#242424;}
	.st3{fill:#202020;}
	.st4{fill:#232323;}
</style>
<polygon id="bgt1" class="st0" points="96,0 84,84 0,96 0,0 "/>
<polygon id="bgt2" class="st1" points="96,0 132,48 96,96 48,132 0,96 "/>
<polygon id="bgt3" class="st2" points="96,0 180,12 192,96 144,132 96,96 "/>
<polygon id="bgt4" class="st1" points="96,0 216,0 216,144 192,96 "/>
<polygon id="bgt5" class="st3" points="120,192 84,108 0,96 0,216 48,228 "/>
<polygon id="bgt6" class="st1" points="96,192 132,144 96,96 0,96 "/>
<polygon id="bgt7" class="st4" points="96,192 180,180 192,96 96,96 "/>
<polygon id="bgt8" class="st3" points="96,192 144,228 216,216 228,144 192,96 "/>
<polygon id="bgt1_1_" class="st0" points="288,0 276,84 192,96 192,0 "/>
<polygon id="bgt2_1_" class="st1" points="288,0 324,48 288,96 240,132 192,96 "/>
<polygon id="bgt3_1_" class="st2" points="288,0 372,12 384,96 336,132 288,96 "/>
<polygon id="bgt4_1_" class="st1" points="288,0 408,0 408,144 384,96 "/>
<polygon id="bgt5_1_" class="st3" points="312,192 276,108 192,96 192,216 240,228 "/>
<polygon id="bgt6_1_" class="st1" points="288,192 324,144 288,96 192,96 "/>
<polygon id="bgt7_1_" class="st4" points="288,192 372,180 384,96 288,96 "/>
<polygon id="bgt8_1_" class="st3" points="288,192 336,228 408,216 420,144 384,96 "/>
<polygon id="bgt1_3_" class="st0" points="480,0 468,84 384,96 384,0 "/>
<polygon id="bgt2_3_" class="st1" points="480,0 516,48 480,96 432,132 384,96 "/>
<polygon id="bgt3_3_" class="st2" points="480,0 564,12 576,96 528,132 480,96 "/>
<polygon id="bgt4_3_" class="st1" points="480,0 600,0 600,144 576,96 "/>
<polygon id="bgt5_3_" class="st3" points="504,192 468,108 384,96 384,216 432,228 "/>
<polygon id="bgt6_3_" class="st1" points="480,192 516,144 480,96 384,96 "/>
<polygon id="bgt7_3_" class="st4" points="480,192 564,180 576,96 480,96 "/>
<polygon id="bgt8_3_" class="st3" points="480,192 528,228 600,216 612,144 576,96 "/>
<polygon id="bgt1_2_" class="st0" points="672,0 660,84 576,96 576,0 "/>
<polygon id="bgt2_2_" class="st1" points="672,0 708,48 672,96 624,132 576,96 "/>
<polygon id="bgt3_2_" class="st2" points="672,0 756,12 768,96 720,132 672,96 "/>
<polygon id="bgt4_2_" class="st1" points="672,0 792,0 792,144 768,96 "/>
<polygon id="bgt5_2_" class="st3" points="696,192 660,108 576,96 576,216 624,228 "/>
<polygon id="bgt6_2_" class="st1" points="672,192 708,144 672,96 576,96 "/>
<polygon id="bgt7_2_" class="st4" points="672,192 756,180 768,96 672,96 "/>
<polygon id="bgt8_2_" class="st3" points="672,192 720,228 792,216 804,144 768,96 "/>
<polygon id="bgt1_19_" class="st0" points="96,192 84,276 0,288 0,192 "/>
<polygon id="bgt2_19_" class="st1" points="96,192 132,240 96,288 48,324 0,288 "/>
<polygon id="bgt3_19_" class="st2" points="96,192 180,204 192,288 144,324 96,288 "/>
<polygon id="bgt4_19_" class="st1" points="96,192 216,192 216,336 192,288 "/>
<polygon id="bgt5_19_" class="st3" points="120,384 84,300 0,288 0,408 48,420 "/>
<polygon id="bgt6_19_" class="st1" points="96,384 132,336 96,288 0,288 "/>
<polygon id="bgt7_19_" class="st4" points="96,384 180,372 192,288 96,288 "/>
<polygon id="bgt8_19_" class="st3" points="96,384 144,420 216,408 228,336 192,288 "/>
<polygon id="bgt1_18_" class="st0" points="288,192 276,276 192,288 192,192 "/>
<polygon id="bgt2_18_" class="st1" points="288,192 324,240 288,288 240,324 192,288 "/>
<polygon id="bgt3_18_" class="st2" points="288,192 372,204 384,288 336,324 288,288 "/>
<polygon id="bgt4_18_" class="st1" points="288,192 408,192 408,336 384,288 "/>
<polygon id="bgt5_18_" class="st3" points="312,384 276,300 192,288 192,408 240,420 "/>
<polygon id="bgt6_18_" class="st1" points="288,384 324,336 288,288 192,288 "/>
<polygon id="bgt7_18_" class="st4" points="288,384 372,372 384,288 288,288 "/>
<polygon id="bgt8_18_" class="st3" points="288,384 336,420 408,408 420,336 384,288 "/>
<polygon id="bgt1_17_" class="st0" points="480,192 468,276 384,288 384,192 "/>
<polygon id="bgt2_17_" class="st1" points="480,192 516,240 480,288 432,324 384,288 "/>
<polygon id="bgt3_17_" class="st2" points="480,192 564,204 576,288 528,324 480,288 "/>
<polygon id="bgt4_17_" class="st1" points="480,192 600,192 600,336 576,288 "/>
<polygon id="bgt5_17_" class="st3" points="504,384 468,300 384,288 384,408 432,420 "/>
<polygon id="bgt6_17_" class="st1" points="480,384 516,336 480,288 384,288 "/>
<polygon id="bgt7_17_" class="st4" points="480,384 564,372 576,288 480,288 "/>
<polygon id="bgt8_17_" class="st3" points="480,384 528,420 600,408 612,336 576,288 "/>
<polygon id="bgt1_16_" class="st0" points="672,192 660,276 576,288 576,192 "/>
<polygon id="bgt2_16_" class="st1" points="672,192 708,240 672,288 624,324 576,288 "/>
<polygon id="bgt3_16_" class="st2" points="672,192 756,204 768,288 720,324 672,288 "/>
<polygon id="bgt4_16_" class="st1" points="672,192 792,192 792,336 768,288 "/>
<polygon id="bgt5_16_" class="st3" points="696,384 660,300 576,288 576,408 624,420 "/>
<polygon id="bgt6_16_" class="st1" points="672,384 708,336 672,288 576,288 "/>
<polygon id="bgt7_16_" class="st4" points="672,384 756,372 768,288 672,288 "/>
<polygon id="bgt8_16_" class="st3" points="672,384 720,420 792,408 804,336 768,288 "/>
<polygon id="bgt1_39_" class="st0" points="96,384 84,468 0,480 0,384 "/>
<polygon id="bgt2_39_" class="st1" points="96,384 132,432 96,480 48,516 0,480 "/>
<polygon id="bgt3_39_" class="st2" points="96,384 180,396 192,480 144,516 96,480 "/>
<polygon id="bgt4_39_" class="st1" points="96,384 216,384 216,528 192,480 "/>
<polygon id="bgt5_39_" class="st3" points="120,576 84,492 0,480 0,600 48,612 "/>
<polygon id="bgt6_39_" class="st1" points="96,576 132,528 96,480 0,480 "/>
<polygon id="bgt7_39_" class="st4" points="96,576 180,564 192,480 96,480 "/>
<polygon id="bgt8_39_" class="st3" points="96,576 144,612 216,600 228,528 192,480 "/>
<polygon id="bgt1_38_" class="st0" points="288,384 276,468 192,480 192,384 "/>
<polygon id="bgt2_38_" class="st1" points="288,384 324,432 288,480 240,516 192,480 "/>
<polygon id="bgt3_38_" class="st2" points="288,384 372,396 384,480 336,516 288,480 "/>
<polygon id="bgt4_38_" class="st1" points="288,384 408,384 408,528 384,480 "/>
<polygon id="bgt5_38_" class="st3" points="312,576 276,492 192,480 192,600 240,612 "/>
<polygon id="bgt6_38_" class="st1" points="288,576 324,528 288,480 192,480 "/>
<polygon id="bgt7_38_" class="st4" points="288,576 372,564 384,480 288,480 "/>
<polygon id="bgt8_38_" class="st3" points="288,576 336,612 408,600 420,528 384,480 "/>
<polygon id="bgt1_37_" class="st0" points="480,384 468,468 384,480 384,384 "/>
<polygon id="bgt2_37_" class="st1" points="480,384 516,432 480,480 432,516 384,480 "/>
<polygon id="bgt3_37_" class="st2" points="480,384 564,396 576,480 528,516 480,480 "/>
<polygon id="bgt4_37_" class="st1" points="480,384 600,384 600,528 576,480 "/>
<polygon id="bgt5_37_" class="st3" points="504,576 468,492 384,480 384,600 432,612 "/>
<polygon id="bgt6_37_" class="st1" points="480,576 516,528 480,480 384,480 "/>
<polygon id="bgt7_37_" class="st4" points="480,576 564,564 576,480 480,480 "/>
<polygon id="bgt8_37_" class="st3" points="480,576 528,612 600,600 612,528 576,480 "/>
<polygon id="bgt1_36_" class="st0" points="672,384 660,468 576,480 576,384 "/>
<polygon id="bgt2_36_" class="st1" points="672,384 708,432 672,480 624,516 576,480 "/>
<polygon id="bgt3_36_" class="st2" points="672,384 756,396 768,480 720,516 672,480 "/>
<polygon id="bgt4_36_" class="st1" points="672,384 792,384 792,528 768,480 "/>
<polygon id="bgt5_36_" class="st3" points="696,576 660,492 576,480 576,600 624,612 "/>
<polygon id="bgt6_36_" class="st1" points="672,576 708,528 672,480 576,480 "/>
<polygon id="bgt7_36_" class="st4" points="672,576 756,564 768,480 672,480 "/>
<polygon id="bgt8_36_" class="st3" points="672,576 720,612 792,600 804,528 768,480 "/>
<polygon id="bgt1_29_" class="st0" points="96,576 84,660 0,672 0,576 "/>
<polygon id="bgt2_29_" class="st1" points="96,576 132,624 96,672 48,708 0,672 "/>
<polygon id="bgt3_29_" class="st2" points="96,576 180,588 192,672 144,708 96,672 "/>
<polygon id="bgt4_29_" class="st1" points="96,576 216,576 216,720 192,672 "/>
<polygon id="bgt5_29_" class="st3" points="120,768 84,684 0,672 0,792 48,804 "/>
<polygon id="bgt6_29_" class="st1" points="96,768 132,720 96,672 0,672 "/>
<polygon id="bgt7_29_" class="st4" points="96,768 180,756 192,672 96,672 "/>
<polygon id="bgt8_29_" class="st3" points="96,768 144,804 216,792 228,720 192,672 "/>
<polygon id="bgt1_28_" class="st0" points="288,576 276,660 192,672 192,576 "/>
<polygon id="bgt2_28_" class="st1" points="288,576 324,624 288,672 240,708 192,672 "/>
<polygon id="bgt3_28_" class="st2" points="288,576 372,588 384,672 336,708 288,672 "/>
<polygon id="bgt4_28_" class="st1" points="288,576 408,576 408,720 384,672 "/>
<polygon id="bgt5_28_" class="st3" points="312,768 276,684 192,672 192,792 240,804 "/>
<polygon id="bgt6_28_" class="st1" points="288,768 324,720 288,672 192,672 "/>
<polygon id="bgt7_28_" class="st4" points="288,768 372,756 384,672 288,672 "/>
<polygon id="bgt8_28_" class="st3" points="288,768 336,804 408,792 420,720 384,672 "/>
<polygon id="bgt1_27_" class="st0" points="480,576 468,660 384,672 384,576 "/>
<polygon id="bgt2_27_" class="st1" points="480,576 516,624 480,672 432,708 384,672 "/>
<polygon id="bgt3_27_" class="st2" points="480,576 564,588 576,672 528,708 480,672 "/>
<polygon id="bgt4_27_" class="st1" points="480,576 600,576 600,720 576,672 "/>
<polygon id="bgt5_27_" class="st3" points="504,768 468,684 384,672 384,792 432,804 "/>
<polygon id="bgt6_27_" class="st1" points="480,768 516,720 480,672 384,672 "/>
<polygon id="bgt7_27_" class="st4" points="480,768 564,756 576,672 480,672 "/>
<polygon id="bgt8_27_" class="st3" points="480,768 528,804 600,792 612,720 576,672 "/>
<polygon id="bgt1_26_" class="st0" points="672,576 660,660 576,672 576,576 "/>
<polygon id="bgt2_26_" class="st1" points="672,576 708,624 672,672 624,708 576,672 "/>
<polygon id="bgt3_26_" class="st2" points="672,576 756,588 768,672 720,708 672,672 "/>
<polygon id="bgt4_26_" class="st1" points="672,576 792,576 792,720 768,672 "/>
<polygon id="bgt5_26_" class="st3" points="696,768 660,684 576,672 576,792 624,804 "/>
<polygon id="bgt6_26_" class="st1" points="672,768 708,720 672,672 576,672 "/>
<polygon id="bgt7_26_" class="st4" points="672,768 756,756 768,672 672,672 "/>
<polygon id="bgt8_26_" class="st3" points="672,768 720,804 792,792 804,720 768,672 "/>
<polygon id="bgt1_59_" class="st0" points="96,768 84,852 0,864 0,768 "/>
<polygon id="bgt2_59_" class="st1" points="96,768 132,816 96,864 48,900 0,864 "/>
<polygon id="bgt3_59_" class="st2" points="96,768 180,780 192,864 144,900 96,864 "/>
<polygon id="bgt4_59_" class="st1" points="96,768 216,768 216,912 192,864 "/>
<polygon id="bgt5_59_" class="st3" points="120,960 84,876 0,864 0,984 48,996 "/>
<polygon id="bgt6_59_" class="st1" points="96,960 132,912 96,864 0,864 "/>
<polygon id="bgt7_59_" class="st4" points="96,960 180,948 192,864 96,864 "/>
<polygon id="bgt8_59_" class="st3" points="96,960 144,996 216,984 228,912 192,864 "/>
<polygon id="bgt1_58_" class="st0" points="288,768 276,852 192,864 192,768 "/>
<polygon id="bgt2_58_" class="st1" points="288,768 324,816 288,864 240,900 192,864 "/>
<polygon id="bgt3_58_" class="st2" points="288,768 372,780 384,864 336,900 288,864 "/>
<polygon id="bgt4_58_" class="st1" points="288,768 408,768 408,912 384,864 "/>
<polygon id="bgt5_58_" class="st3" points="312,960 276,876 192,864 192,984 240,996 "/>
<polygon id="bgt6_58_" class="st1" points="288,960 324,912 288,864 192,864 "/>
<polygon id="bgt7_58_" class="st4" points="288,960 372,948 384,864 288,864 "/>
<polygon id="bgt8_58_" class="st3" points="288,960 336,996 408,984 420,912 384,864 "/>
<polygon id="bgt1_57_" class="st0" points="480,768 468,852 384,864 384,768 "/>
<polygon id="bgt2_57_" class="st1" points="480,768 516,816 480,864 432,900 384,864 "/>
<polygon id="bgt3_57_" class="st2" points="480,768 564,780 576,864 528,900 480,864 "/>
<polygon id="bgt4_57_" class="st1" points="480,768 600,768 600,912 576,864 "/>
<polygon id="bgt5_57_" class="st3" points="504,960 468,876 384,864 384,984 432,996 "/>
<polygon id="bgt6_57_" class="st1" points="480,960 516,912 480,864 384,864 "/>
<polygon id="bgt7_57_" class="st4" points="480,960 564,948 576,864 480,864 "/>
<polygon id="bgt8_57_" class="st3" points="480,960 528,996 600,984 612,912 576,864 "/>
<polygon id="bgt1_56_" class="st0" points="672,768 660,852 576,864 576,768 "/>
<polygon id="bgt2_56_" class="st1" points="672,768 708,816 672,864 624,900 576,864 "/>
<polygon id="bgt3_56_" class="st2" points="672,768 756,780 768,864 720,900 672,864 "/>
<polygon id="bgt4_56_" class="st1" points="672,768 792,768 792,912 768,864 "/>
<polygon id="bgt5_56_" class="st3" points="696,960 660,876 576,864 576,984 624,996 "/>
<polygon id="bgt6_56_" class="st1" points="672,960 708,912 672,864 576,864 "/>
<polygon id="bgt7_56_" class="st4" points="672,960 756,948 768,864 672,864 "/>
<polygon id="bgt8_56_" class="st3" points="672,960 720,996 792,984 804,912 768,864 "/>
<polygon id="bgt1_49_" class="st0" points="96,960 84,1044 0,1056 0,960 "/>
<polygon id="bgt2_49_" class="st1" points="96,960 132,1008 96,1056 48,1092 0,1056 "/>
<polygon id="bgt3_49_" class="st2" points="96,960 180,972 192,1056 144,1092 96,1056 "/>
<polygon id="bgt4_49_" class="st1" points="96,960 216,960 216,1104 192,1056 "/>
<polygon id="bgt5_49_" class="st3" points="120,1152 84,1068 0,1056 0,1176 48,1188 "/>
<polygon id="bgt6_49_" class="st1" points="96,1152 132,1104 96,1056 0,1056 "/>
<polygon id="bgt7_49_" class="st4" points="96,1152 180,1140 192,1056 96,1056 "/>
<polygon id="bgt8_49_" class="st3" points="96,1152 144,1188 216,1176 228,1104 192,1056 "/>
<polygon id="bgt1_48_" class="st0" points="288,960 276,1044 192,1056 192,960 "/>
<polygon id="bgt2_48_" class="st1" points="288,960 324,1008 288,1056 240,1092 192,1056 "/>
<polygon id="bgt3_48_" class="st2" points="288,960 372,972 384,1056 336,1092 288,1056 "/>
<polygon id="bgt4_48_" class="st1" points="288,960 408,960 408,1104 384,1056 "/>
<polygon id="bgt5_48_" class="st3" points="312,1152 276,1068 192,1056 192,1176 240,1188 "/>
<polygon id="bgt6_48_" class="st1" points="288,1152 324,1104 288,1056 192,1056 "/>
<polygon id="bgt7_48_" class="st4" points="288,1152 372,1140 384,1056 288,1056 "/>
<polygon id="bgt8_48_" class="st3" points="288,1152 336,1188 408,1176 420,1104 384,1056 "/>
<polygon id="bgt1_47_" class="st0" points="480,960 468,1044 384,1056 384,960 "/>
<polygon id="bgt2_47_" class="st1" points="480,960 516,1008 480,1056 432,1092 384,1056 "/>
<polygon id="bgt3_47_" class="st2" points="480,960 564,972 576,1056 528,1092 480,1056 "/>
<polygon id="bgt4_47_" class="st1" points="480,960 600,960 600,1104 576,1056 "/>
<polygon id="bgt5_47_" class="st3" points="504,1152 468,1068 384,1056 384,1176 432,1188 "/>
<polygon id="bgt6_47_" class="st1" points="480,1152 516,1104 480,1056 384,1056 "/>
<polygon id="bgt7_47_" class="st4" points="480,1152 564,1140 576,1056 480,1056 "/>
<polygon id="bgt8_47_" class="st3" points="480,1152 528,1188 600,1176 612,1104 576,1056 "/>
<polygon id="bgt1_46_" class="st0" points="672,960 660,1044 576,1056 576,960 "/>
<polygon id="bgt2_46_" class="st1" points="672,960 708,1008 672,1056 624,1092 576,1056 "/>
<polygon id="bgt3_46_" class="st2" points="672,960 756,972 768,1056 720,1092 672,1056 "/>
<polygon id="bgt4_46_" class="st1" points="672,960 792,960 792,1104 768,1056 "/>
<polygon id="bgt5_46_" class="st3" points="696,1152 660,1068 576,1056 576,1176 624,1188 "/>
<polygon id="bgt6_46_" class="st1" points="672,1152 708,1104 672,1056 576,1056 "/>
<polygon id="bgt7_46_" class="st4" points="672,1152 756,1140 768,1056 672,1056 "/>
<polygon id="bgt8_46_" class="st3" points="672,1152 720,1188 792,1176 804,1104 768,1056 "/>
</svg>
