<svg width="100%" height="100%">
<style type="text/css">
  	.bgtc0{fill: hsl(0, 0%, 16%) ;}
  	.bgtc1{fill: hsl(0, 0%, 15.5%) ; }
  	.bgtc2{fill: hsl(0, 0%, 16.5%) ; }
  	.bgtc3{fill: hsl(0, 0%, 15%) ; }
  	.bgtc4{fill: hsl(0, 0%, 17%) ; }
  	.bgtc5{fill: hsl(0, 0%, 14.5%) ; }
  	.bgtc6{fill: hsl(0, 0%, 17.5%) ; }
</style>

<defs>
<pattern id="bgPattern" width="768"
        height="1152" patternUnits="userSpaceOnUse">
<polygon id="bgt1" class="bgtc6" points="96,0 84,84 0,96 0,0 "/>
<polygon id="bgt2" class="bgtc4" points="96,0 132,48 96,96 48,132 0,96 "/>
<polygon id="bgt3" class="bgtc4" points="96,0 180,12 192,96 144,132 96,96 "/>
<polygon id="bgt4" class="bgtc5" points="96,0 216,0 216,144 192,96 "/>
<polygon id="bgt5" class="bgtc2" points="120,192 84,108 0,96 0,216 48,228 "/>
<polygon id="bgt6" class="bgtc2" points="96,192 132,144 96,96 0,96 "/>
<polygon id="bgt7" class="bgtc6" points="96,192 180,180 192,96 96,96 "/>
<polygon id="bgt8" class="bgtc3" points="96,192 144,228 216,216 228,144 192,96 "/>
<polygon id="bgt9" class="bgtc6" points="288,0 276,84 192,96 192,0 "/>
<polygon id="bgt10" class="bgtc2" points="288,0 324,48 288,96 240,132 192,96 "/>
<polygon id="bgt11" class="bgtc3" points="288,0 372,12 384,96 336,132 288,96 "/>
<polygon id="bgt12" class="bgtc5" points="288,0 408,0 408,144 384,96 "/>
<polygon id="bgt13" class="bgtc0" points="312,192 276,108 192,96 192,216 240,228 "/>
<polygon id="bgt14" class="bgtc1" points="288,192 324,144 288,96 192,96 "/>
<polygon id="bgt15" class="bgtc0" points="288,192 372,180 384,96 288,96 "/>
<polygon id="bgt16" class="bgtc2" points="288,192 336,228 408,216 420,144 384,96 "/>
<polygon id="bgt17" class="bgtc5" points="480,0 468,84 384,96 384,0 "/>
<polygon id="bgt18" class="bgtc4" points="480,0 516,48 480,96 432,132 384,96 "/>
<polygon id="bgt19" class="bgtc5" points="480,0 564,12 576,96 528,132 480,96 "/>
<polygon id="bgt20" class="bgtc3" points="480,0 600,0 600,144 576,96 "/>
<polygon id="bgt21" class="bgtc4" points="504,192 468,108 384,96 384,216 432,228 "/>
<polygon id="bgt22" class="bgtc2" points="480,192 516,144 480,96 384,96 "/>
<polygon id="bgt23" class="bgtc4" points="480,192 564,180 576,96 480,96 "/>
<polygon id="bgt24" class="bgtc3" points="480,192 528,228 600,216 612,144 576,96 "/>
<polygon id="bgt25" class="bgtc6" points="672,0 660,84 576,96 576,0 "/>
<polygon id="bgt26" class="bgtc1" points="672,0 708,48 672,96 624,132 576,96 "/>
<polygon id="bgt27" class="bgtc5" points="672,0 756,12 768,96 720,132 672,96 "/>
<polygon id="bgt28" class="bgtc1" points="672,0 792,0 792,144 768,96 "/>
<polygon id="bgt29" class="bgtc5" points="696,192 660,108 576,96 576,216 624,228 "/>
<polygon id="bgt30" class="bgtc5" points="672,192 708,144 672,96 576,96 "/>
<polygon id="bgt31" class="bgtc0" points="672,192 756,180 768,96 672,96 "/>
<polygon id="bgt32" class="bgtc6" points="672,192 720,228 792,216 804,144 768,96 "/>
<polygon id="bgt33" class="bgtc5" points="864,0 852,84 768,96 768,0 "/>
<polygon id="bgt34" class="bgtc5" points="864,0 900,48 864,96 816,132 768,96 "/>
<polygon id="bgt35" class="bgtc3" points="864,0 948,12 960,96 912,132 864,96 "/>
<polygon id="bgt36" class="bgtc5" points="864,0 984,0 984,144 960,96 "/>
<polygon id="bgt37" class="bgtc2" points="888,192 852,108 768,96 768,216 816,228 "/>
<polygon id="bgt38" class="bgtc6" points="864,192 900,144 864,96 768,96 "/>
<polygon id="bgt39" class="bgtc0" points="864,192 948,180 960,96 864,96 "/>
<polygon id="bgt40" class="bgtc0" points="864,192 912,228 984,216 996,144 960,96 "/>
<polygon id="bgt41" class="bgtc2" points="1056,0 1044,84 960,96 960,0 "/>
<polygon id="bgt42" class="bgtc0" points="1056,0 1092,48 1056,96 1008,132 960,96 "/>
<polygon id="bgt43" class="bgtc1" points="1056,0 1140,12 1152,96 1104,132 1056,96 "/>
<polygon id="bgt44" class="bgtc2" points="1056,0 1176,0 1176,144 1152,96 "/>
<polygon id="bgt45" class="bgtc0" points="1080,192 1044,108 960,96 960,216 1008,228 "/>
<polygon id="bgt46" class="bgtc0" points="1056,192 1092,144 1056,96 960,96 "/>
<polygon id="bgt47" class="bgtc4" points="1056,192 1140,180 1152,96 1056,96 "/>
<polygon id="bgt48" class="bgtc6" points="1056,192 1104,228 1176,216 1188,144 1152,96 "/>
<polygon id="bgt49" class="bgtc3" points="1248,0 1236,84 1152,96 1152,0 "/>
<polygon id="bgt50" class="bgtc6" points="1248,0 1284,48 1248,96 1200,132 1152,96 "/>
<polygon id="bgt51" class="bgtc2" points="1248,0 1332,12 1344,96 1296,132 1248,96 "/>
<polygon id="bgt52" class="bgtc6" points="1248,0 1368,0 1368,144 1344,96 "/>
<polygon id="bgt53" class="bgtc6" points="1272,192 1236,108 1152,96 1152,216 1200,228 "/>
<polygon id="bgt54" class="bgtc0" points="1248,192 1284,144 1248,96 1152,96 "/>
<polygon id="bgt55" class="bgtc0" points="1248,192 1332,180 1344,96 1248,96 "/>
<polygon id="bgt56" class="bgtc6" points="1248,192 1296,228 1368,216 1380,144 1344,96 "/>
<polygon id="bgt57" class="bgtc5" points="1440,0 1428,84 1344,96 1344,0 "/>
<polygon id="bgt58" class="bgtc3" points="1440,0 1476,48 1440,96 1392,132 1344,96 "/>
<polygon id="bgt59" class="bgtc5" points="1440,0 1524,12 1536,96 1488,132 1440,96 "/>
<polygon id="bgt60" class="bgtc1" points="1440,0 1560,0 1560,144 1536,96 "/>
<polygon id="bgt61" class="bgtc1" points="1464,192 1428,108 1344,96 1344,216 1392,228 "/>
<polygon id="bgt62" class="bgtc5" points="1440,192 1476,144 1440,96 1344,96 "/>
<polygon id="bgt63" class="bgtc5" points="1440,192 1524,180 1536,96 1440,96 "/>
<polygon id="bgt64" class="bgtc4" points="1440,192 1488,228 1560,216 1572,144 1536,96 "/>
<polygon id="bgt65" class="bgtc1" points="1632,0 1620,84 1536,96 1536,0 "/>
<polygon id="bgt66" class="bgtc6" points="1632,0 1668,48 1632,96 1584,132 1536,96 "/>
<polygon id="bgt67" class="bgtc4" points="1632,0 1716,12 1728,96 1680,132 1632,96 "/>
<polygon id="bgt68" class="bgtc0" points="1632,0 1752,0 1752,144 1728,96 "/>
<polygon id="bgt69" class="bgtc2" points="1656,192 1620,108 1536,96 1536,216 1584,228 "/>
<polygon id="bgt70" class="bgtc2" points="1632,192 1668,144 1632,96 1536,96 "/>
<polygon id="bgt71" class="bgtc6" points="1632,192 1716,180 1728,96 1632,96 "/>
<polygon id="bgt72" class="bgtc5" points="1632,192 1680,228 1752,216 1764,144 1728,96 "/>
<polygon id="bgt73" class="bgtc1" points="1824,0 1812,84 1728,96 1728,0 "/>
<polygon id="bgt74" class="bgtc4" points="1824,0 1860,48 1824,96 1776,132 1728,96 "/>
<polygon id="bgt75" class="bgtc3" points="1824,0 1908,12 1920,96 1872,132 1824,96 "/>
<polygon id="bgt76" class="bgtc3" points="1824,0 1944,0 1944,144 1920,96 "/>
<polygon id="bgt77" class="bgtc5" points="1848,192 1812,108 1728,96 1728,216 1776,228 "/>
<polygon id="bgt78" class="bgtc5" points="1824,192 1860,144 1824,96 1728,96 "/>
<polygon id="bgt79" class="bgtc0" points="1824,192 1908,180 1920,96 1824,96 "/>
<polygon id="bgt80" class="bgtc5" points="1824,192 1872,228 1944,216 1956,144 1920,96 "/>
<polygon id="bgt81" class="bgtc2" points="96,192 84,276 0,288 0,192 "/>
<polygon id="bgt82" class="bgtc1" points="96,192 132,240 96,288 48,324 0,288 "/>
<polygon id="bgt83" class="bgtc5" points="96,192 180,204 192,288 144,324 96,288 "/>
<polygon id="bgt84" class="bgtc3" points="96,192 216,192 216,336 192,288 "/>
<polygon id="bgt85" class="bgtc5" points="120,384 84,300 0,288 0,408 48,420 "/>
<polygon id="bgt86" class="bgtc2" points="96,384 132,336 96,288 0,288 "/>
<polygon id="bgt87" class="bgtc6" points="96,384 180,372 192,288 96,288 "/>
<polygon id="bgt88" class="bgtc6" points="96,384 144,420 216,408 228,336 192,288 "/>
<polygon id="bgt89" class="bgtc0" points="288,192 276,276 192,288 192,192 "/>
<polygon id="bgt90" class="bgtc6" points="288,192 324,240 288,288 240,324 192,288 "/>
<polygon id="bgt91" class="bgtc1" points="288,192 372,204 384,288 336,324 288,288 "/>
<polygon id="bgt92" class="bgtc6" points="288,192 408,192 408,336 384,288 "/>
<polygon id="bgt93" class="bgtc4" points="312,384 276,300 192,288 192,408 240,420 "/>
<polygon id="bgt94" class="bgtc4" points="288,384 324,336 288,288 192,288 "/>
<polygon id="bgt95" class="bgtc4" points="288,384 372,372 384,288 288,288 "/>
<polygon id="bgt96" class="bgtc2" points="288,384 336,420 408,408 420,336 384,288 "/>
<polygon id="bgt97" class="bgtc0" points="480,192 468,276 384,288 384,192 "/>
<polygon id="bgt98" class="bgtc3" points="480,192 516,240 480,288 432,324 384,288 "/>
<polygon id="bgt99" class="bgtc1" points="480,192 564,204 576,288 528,324 480,288 "/>
<polygon id="bgt100" class="bgtc4" points="480,192 600,192 600,336 576,288 "/>
<polygon id="bgt101" class="bgtc4" points="504,384 468,300 384,288 384,408 432,420 "/>
<polygon id="bgt102" class="bgtc5" points="480,384 516,336 480,288 384,288 "/>
<polygon id="bgt103" class="bgtc6" points="480,384 564,372 576,288 480,288 "/>
<polygon id="bgt104" class="bgtc1" points="480,384 528,420 600,408 612,336 576,288 "/>
<polygon id="bgt105" class="bgtc1" points="672,192 660,276 576,288 576,192 "/>
<polygon id="bgt106" class="bgtc2" points="672,192 708,240 672,288 624,324 576,288 "/>
<polygon id="bgt107" class="bgtc5" points="672,192 756,204 768,288 720,324 672,288 "/>
<polygon id="bgt108" class="bgtc6" points="672,192 792,192 792,336 768,288 "/>
<polygon id="bgt109" class="bgtc0" points="696,384 660,300 576,288 576,408 624,420 "/>
<polygon id="bgt110" class="bgtc4" points="672,384 708,336 672,288 576,288 "/>
<polygon id="bgt111" class="bgtc3" points="672,384 756,372 768,288 672,288 "/>
<polygon id="bgt112" class="bgtc6" points="672,384 720,420 792,408 804,336 768,288 "/>
<polygon id="bgt113" class="bgtc6" points="864,192 852,276 768,288 768,192 "/>
<polygon id="bgt114" class="bgtc2" points="864,192 900,240 864,288 816,324 768,288 "/>
<polygon id="bgt115" class="bgtc1" points="864,192 948,204 960,288 912,324 864,288 "/>
<polygon id="bgt116" class="bgtc0" points="864,192 984,192 984,336 960,288 "/>
<polygon id="bgt117" class="bgtc1" points="888,384 852,300 768,288 768,408 816,420 "/>
<polygon id="bgt118" class="bgtc2" points="864,384 900,336 864,288 768,288 "/>
<polygon id="bgt119" class="bgtc2" points="864,384 948,372 960,288 864,288 "/>
<polygon id="bgt120" class="bgtc0" points="864,384 912,420 984,408 996,336 960,288 "/>
<polygon id="bgt121" class="bgtc4" points="1056,192 1044,276 960,288 960,192 "/>
<polygon id="bgt122" class="bgtc3" points="1056,192 1092,240 1056,288 1008,324 960,288 "/>
<polygon id="bgt123" class="bgtc4" points="1056,192 1140,204 1152,288 1104,324 1056,288 "/>
<polygon id="bgt124" class="bgtc5" points="1056,192 1176,192 1176,336 1152,288 "/>
<polygon id="bgt125" class="bgtc3" points="1080,384 1044,300 960,288 960,408 1008,420 "/>
<polygon id="bgt126" class="bgtc2" points="1056,384 1092,336 1056,288 960,288 "/>
<polygon id="bgt127" class="bgtc6" points="1056,384 1140,372 1152,288 1056,288 "/>
<polygon id="bgt128" class="bgtc1" points="1056,384 1104,420 1176,408 1188,336 1152,288 "/>
<polygon id="bgt129" class="bgtc0" points="1248,192 1236,276 1152,288 1152,192 "/>
<polygon id="bgt130" class="bgtc5" points="1248,192 1284,240 1248,288 1200,324 1152,288 "/>
<polygon id="bgt131" class="bgtc5" points="1248,192 1332,204 1344,288 1296,324 1248,288 "/>
<polygon id="bgt132" class="bgtc1" points="1248,192 1368,192 1368,336 1344,288 "/>
<polygon id="bgt133" class="bgtc3" points="1272,384 1236,300 1152,288 1152,408 1200,420 "/>
<polygon id="bgt134" class="bgtc2" points="1248,384 1284,336 1248,288 1152,288 "/>
<polygon id="bgt135" class="bgtc1" points="1248,384 1332,372 1344,288 1248,288 "/>
<polygon id="bgt136" class="bgtc2" points="1248,384 1296,420 1368,408 1380,336 1344,288 "/>
<polygon id="bgt137" class="bgtc0" points="1440,192 1428,276 1344,288 1344,192 "/>
<polygon id="bgt138" class="bgtc3" points="1440,192 1476,240 1440,288 1392,324 1344,288 "/>
<polygon id="bgt139" class="bgtc0" points="1440,192 1524,204 1536,288 1488,324 1440,288 "/>
<polygon id="bgt140" class="bgtc5" points="1440,192 1560,192 1560,336 1536,288 "/>
<polygon id="bgt141" class="bgtc3" points="1464,384 1428,300 1344,288 1344,408 1392,420 "/>
<polygon id="bgt142" class="bgtc4" points="1440,384 1476,336 1440,288 1344,288 "/>
<polygon id="bgt143" class="bgtc3" points="1440,384 1524,372 1536,288 1440,288 "/>
<polygon id="bgt144" class="bgtc6" points="1440,384 1488,420 1560,408 1572,336 1536,288 "/>
<polygon id="bgt145" class="bgtc0" points="1632,192 1620,276 1536,288 1536,192 "/>
<polygon id="bgt146" class="bgtc5" points="1632,192 1668,240 1632,288 1584,324 1536,288 "/>
<polygon id="bgt147" class="bgtc1" points="1632,192 1716,204 1728,288 1680,324 1632,288 "/>
<polygon id="bgt148" class="bgtc0" points="1632,192 1752,192 1752,336 1728,288 "/>
<polygon id="bgt149" class="bgtc3" points="1656,384 1620,300 1536,288 1536,408 1584,420 "/>
<polygon id="bgt150" class="bgtc2" points="1632,384 1668,336 1632,288 1536,288 "/>
<polygon id="bgt151" class="bgtc1" points="1632,384 1716,372 1728,288 1632,288 "/>
<polygon id="bgt152" class="bgtc2" points="1632,384 1680,420 1752,408 1764,336 1728,288 "/>
<polygon id="bgt153" class="bgtc1" points="1824,192 1812,276 1728,288 1728,192 "/>
<polygon id="bgt154" class="bgtc3" points="1824,192 1860,240 1824,288 1776,324 1728,288 "/>
<polygon id="bgt155" class="bgtc2" points="1824,192 1908,204 1920,288 1872,324 1824,288 "/>
<polygon id="bgt156" class="bgtc0" points="1824,192 1944,192 1944,336 1920,288 "/>
<polygon id="bgt157" class="bgtc5" points="1848,384 1812,300 1728,288 1728,408 1776,420 "/>
<polygon id="bgt158" class="bgtc2" points="1824,384 1860,336 1824,288 1728,288 "/>
<polygon id="bgt159" class="bgtc4" points="1824,384 1908,372 1920,288 1824,288 "/>
<polygon id="bgt160" class="bgtc4" points="1824,384 1872,420 1944,408 1956,336 1920,288 "/>
<polygon id="bgt161" class="bgtc1" points="96,384 84,468 0,480 0,384 "/>
<polygon id="bgt162" class="bgtc3" points="96,384 132,432 96,480 48,516 0,480 "/>
<polygon id="bgt163" class="bgtc0" points="96,384 180,396 192,480 144,516 96,480 "/>
<polygon id="bgt164" class="bgtc5" points="96,384 216,384 216,528 192,480 "/>
<polygon id="bgt165" class="bgtc3" points="120,576 84,492 0,480 0,600 48,612 "/>
<polygon id="bgt166" class="bgtc2" points="96,576 132,528 96,480 0,480 "/>
<polygon id="bgt167" class="bgtc3" points="96,576 180,564 192,480 96,480 "/>
<polygon id="bgt168" class="bgtc5" points="96,576 144,612 216,600 228,528 192,480 "/>
<polygon id="bgt169" class="bgtc1" points="288,384 276,468 192,480 192,384 "/>
<polygon id="bgt170" class="bgtc6" points="288,384 324,432 288,480 240,516 192,480 "/>
<polygon id="bgt171" class="bgtc6" points="288,384 372,396 384,480 336,516 288,480 "/>
<polygon id="bgt172" class="bgtc6" points="288,384 408,384 408,528 384,480 "/>
<polygon id="bgt173" class="bgtc4" points="312,576 276,492 192,480 192,600 240,612 "/>
<polygon id="bgt174" class="bgtc1" points="288,576 324,528 288,480 192,480 "/>
<polygon id="bgt175" class="bgtc1" points="288,576 372,564 384,480 288,480 "/>
<polygon id="bgt176" class="bgtc0" points="288,576 336,612 408,600 420,528 384,480 "/>
<polygon id="bgt177" class="bgtc2" points="480,384 468,468 384,480 384,384 "/>
<polygon id="bgt178" class="bgtc4" points="480,384 516,432 480,480 432,516 384,480 "/>
<polygon id="bgt179" class="bgtc5" points="480,384 564,396 576,480 528,516 480,480 "/>
<polygon id="bgt180" class="bgtc6" points="480,384 600,384 600,528 576,480 "/>
<polygon id="bgt181" class="bgtc1" points="504,576 468,492 384,480 384,600 432,612 "/>
<polygon id="bgt182" class="bgtc3" points="480,576 516,528 480,480 384,480 "/>
<polygon id="bgt183" class="bgtc4" points="480,576 564,564 576,480 480,480 "/>
<polygon id="bgt184" class="bgtc1" points="480,576 528,612 600,600 612,528 576,480 "/>
<polygon id="bgt185" class="bgtc4" points="672,384 660,468 576,480 576,384 "/>
<polygon id="bgt186" class="bgtc1" points="672,384 708,432 672,480 624,516 576,480 "/>
<polygon id="bgt187" class="bgtc0" points="672,384 756,396 768,480 720,516 672,480 "/>
<polygon id="bgt188" class="bgtc4" points="672,384 792,384 792,528 768,480 "/>
<polygon id="bgt189" class="bgtc6" points="696,576 660,492 576,480 576,600 624,612 "/>
<polygon id="bgt190" class="bgtc5" points="672,576 708,528 672,480 576,480 "/>
<polygon id="bgt191" class="bgtc6" points="672,576 756,564 768,480 672,480 "/>
<polygon id="bgt192" class="bgtc0" points="672,576 720,612 792,600 804,528 768,480 "/>

</pattern>
</defs>

<rect fill="url(#bgPattern)" width="100%" height="100%"/>
</svg>
