<!-- Generator: Adobe Illustrator 22.0.0, SVG Export Plug-In . SVG Version: 6.00 Build 0)  -->
<svg version="1.1" id="Layer_2" xmlns="http://www.w3.org/2000/svg" xmlns:xlink="http://www.w3.org/1999/xlink" x="0px" y="0px"
	 viewBox="0 0 1035.1 280" style="enable-background:new 0 0 1035.1 280;" xml:space="preserve">
<defs>
  <style type="text/css">
	.st0{fill:#FFFFFF;}
	.st1{fill:#F2642A;}
	.st2{fill:none;}
	.st3{font-family:'Jaapokki-Regular';}
	.st4{font-size:144px;}
	.st5{letter-spacing:57;}
	.st6{font-size:96px;}
	.st7{letter-spacing:38;}
	.st8{letter-spacing:27;}
	.st9{letter-spacing:41;}
	.st10{stroke:#F2642A;stroke-width:12;stroke-miterlimit:10;}
</style>
</defs>
<g>
	<g>
		<path class="st0" d="M497.9,244.3v-29.1h9.7v-9.7h29.1v9.7h9.7v9.7h-9.7v-9.7h-29.1v29.1h29.1v-9.7h9.7v9.7h-9.7v9.7h-29.1v-9.7
			C507.6,244.3,497.9,244.3,497.9,244.3z"/>
		<path class="st0" d="M556.1,244.3v-29.1h9.7v-9.7h29.1v9.7h9.7v29.1h-9.7v9.7h-29.1v-9.7C565.7,244.3,556.1,244.3,556.1,244.3z
			 M565.7,243.9h29.1v-28.3h-29.1V243.9z"/>
		<path class="st0" d="M614.2,254v-48.5H653v9.7h9.7v29.1H653v9.7H614.2z M623.9,244.3h28.7v-29.1h-28.7V244.3z"/>
		<path class="st0" d="M672.4,254v-48.5h48.5v9.7h-38.8v9.7h29.1v9.7h-29.1v9.7h38.8v9.7H672.4z"/>
	</g>
	<path class="st1" d="M474.6,225.6v9h-10.3v10.3h-9v-10.3H445v-9h10.3v-10.3h9v10.3H474.6z"/>
	<g>
		<path class="st0" d="M316.5,257.9L316.5,257.9h-0.2c-3-1.6-3.5-1.7-3.5-5c0-0.3,0-1.6,0-1.9c0.3-1.1,1.6-6.3,1.8-7.4
			c0.9-3.8,2.1-7.8,3.6-11.3l9-20.6c0.3-1.7,1.4-3.4,3.3-3.4c0.3,0,1.6,0,1.8,0.3c0.4,0.3,1.2,2.8,1.6,3.5c0.2,0.3,1.6,2.4,1.6,2.7
			c1.3,2.4,4,8.1,4,8.3v0.6l5.1,9.9c0.9,2.4,1.8,4.8,2.6,7.3c0.4,1.4,1.2,2.8,1.2,4.4c0,1.6-0.5,2.2-0.4,4c-0.1,0.3-0.7,0.3-0.9,0.3
			c-0.5,0-1-0.8-1.4-1c-0.4-0.3-1.8-0.9-2.1-1c-1.2-0.7-2.4-2-2.8-3.3c-0.6-1.3-0.9-5.3-2.2-5.3c-1.9,0-3.8,0.6-5.7,0.9
			c-1.4,0.1-6.8,0.3-7.3,1.2c-0.2,0.3-0.2,1.3-0.3,1.6c-0.2,1.6-1,3.4-1,4.9c0,0.1,0,0.2,0,0.2c0.1,0.3,0.3,3,0.3,3.4
			c0,0.1,0,0.6,0,0.8c0,2.3-0.8,4.8-1.9,6.7c-0.6,1.1-0.5,2.2-1.2,3.2h-0.2c-0.7,0-1.2-2.6-2-3.4c-0.1-0.1-1.3-1.3-1.7-1.3
			C317.3,257.2,316.9,257.8,316.5,257.9z M320.9,248.5c0.1,0.1,0.2,0.1,0.2,0C321.2,248.2,320.9,248.2,320.9,248.5z M321.6,248.6
			c0.2,0,0.2-0.3,0-0.3S321.5,248.6,321.6,248.6z M321.8,247.8c0.2-0.1,0.2-0.3,0-0.4C321.7,247.4,321.7,247.9,321.8,247.8z
			 M329.4,219.5l-0.3,0.8c-0.7,3.8-2.2,12.8-2.2,12.8v0.7c2.2,0,4.6-0.9,6.9-1.3c0.6-0.1,2.1-0.4,2.1-0.4v-0.3
			c-2-3.4-3-6.7-4.6-10.5c-0.3-0.6-0.9-2.2-1.9-2.2C329.4,218.9,329.4,219.4,329.4,219.5z"/>
		<path class="st0" d="M388.6,260.3c-2,0-2.4-0.7-3.8-1.6h0.9c-0.6-1.2-3.4-1.2-3.8-2.2c-0.3-0.8,0-1-0.9-1h-0.2l-0.3,0.2
			c-0.2,0-0.9-1.9-0.9-2.1c-2.1-0.2-2.2-0.9-3.2-2.3c0,0,0,0-0.1,0h-0.2c0,0-0.1,0.3-0.1,0.4l-0.7-1.3c0.1,0,0.2,0,0.2,0
			c0.8,0,1.3,0.6,2,0.6l0.3-0.2c0.2,0,0.7,0,0.9,0c-0.4-0.5-1.6-1.6-2.2-1.6c-0.3,0-0.1,0.5-0.4,0.5c-0.3,0-0.5-0.1-0.7-0.3h0.7
			c-0.5-0.7-1.6-2.1-2.6-1.8l0.3-0.2c-0.5-0.1-1.7-0.6-1.7-1.3V246c0.3,0.2,1.4,0.8,1.7,0.9h0.2h0.2c-0.9-1.4-3.4-2.8-5-3.1
			c-0.1-0.1-0.2-0.3-0.2-0.3l0.2-0.3c-0.9-0.9-1.9-1.8-2.9-2.5c-0.7-0.4-2.2-1.5-2.3-1.5h-0.4v5.7l-0.2,0.2c0,0,0.2,0.2,0.2,0.3
			c0,0.1,0,0.2,0,0.2c0,0.3,0.3,2.3,0.3,2.6c0,0.3-0.2,1.2-0.3,1.5c0,0-0.5,0.7-0.6,0.8c0,0.1,0.1,0.8,0,0.9
			c-0.2,1.4-0.9,2.2-2.3,2.5c0,0,0,0,0-0.1v-0.1c0.1-0.2,0.5-0.9,0.5-0.9v-0.2c-0.3-0.1-0.8-0.8-0.9-0.8c-0.1,0-0.3,0.1-0.4,0.1
			c0,0.5,0.2,0.9,0.2,1.4c0,0,0,0.2,0,0.3l-0.6-0.5v-1.6c0-0.2-0.7-0.6-0.9-0.6c-0.1,0-0.4,0.1-0.4,0.2l-0.6-0.9c0,0,0-0.7,0-0.9
			c0-0.6-0.1-1.5,0.2-2c0.2,0.3,0.3,0.5,0.8,0.5c1.1,0,1.6-2.3,1.6-3.1c0-0.3-0.2-0.7-0.4-0.8l0.3-0.3V241l0.3,1.7
			c0.1-0.1,0.6-2.5,0.9-3c0-0.1,0.2-0.6,0.2-0.6c0-2.6-0.5-5.3-0.5-7.9c0-0.1,0-0.3,0-0.3c0-0.1,0.3-0.3,0.3-0.4l-0.3-0.2
			c-0.4-1.6-0.3-3.3-1.2-4.7v2.9h-1c0.5-0.3,0.6-0.9,0.6-1.4v-0.1c-0.1-0.6-0.4-3.2-0.5-3.7v0.5c0-0.1-0.1-0.7-0.1-0.9
			c0.1-0.3,0.5-0.2,0.6-0.2c0.1-0.1,0.3-0.9,0.3-1c0-0.3,0-1.8-0.7-1.9c0.4,0,0.7-0.3,0.7-0.7s-0.2-0.9-0.6-0.9
			c0-0.1-0.1-0.2-0.1-0.2c0-0.2-0.2-0.9-0.2-0.9c0-0.1,0.2-0.6,0.2-0.7c0-0.8,0-2.3-1.2-2.1l0.9-0.8H358c-0.1,0-3.4,0.7-4,1
			c-0.5,0.2-0.5,0.6-1,0.6c-0.6,0-0.9-0.9-1.5-0.6c-0.1-0.4-0.2-2.2-0.2-2.6c0,0,0-0.1,0-0.2c0,0,0.1-0.3,0.2-0.3
			c0.9-0.5,2.7-1.8,4-2.1c0.3-0.1,2.4-0.1,2.8-0.7c0.4-0.7,0.3-1.4,1.8-1.4c0.1,0,0.3,0,0.3,0c0.2,0,1,0.2,1.2,0.3l-0.2,0.1
			c3.2-0.1,5.9,0.3,9,0.7c1.6,0.2,2.3,1.3,3.8,1.6c0.7,0.3,1.7,0.3,2.3,0.4c0.1,0,0.3,0.3,0.3,0.3c2.1,1,4.7,1.4,6.5,2.9l0.3-0.5
			c0.7,1.5,2.3,2.5,3.4,3.6c0,0,0.1,0.3,0.1,0.5c0.1,0,0.3,0.5,0.3,0.6c0.3,0,0.3-0.3,0.5-0.3c0,0.4,0.9,1.9,1.1,2.1
			c0,0.1,0.2,0.6,0.2,0.7c0.5,1.9,1.5,3.8,1.5,5.9v0.1c-0.4,2.9,0,5.9-2.1,8.2c-0.7,0.3-0.9,1.2-1.2,1.7c-0.2,0.3-0.7,0.3-0.9,0.3
			v-0.6l1-1c-0.2,0-0.8-0.1-0.9-0.1c-0.7,0-1,0.6-1.6,0.6l-0.2-0.1l-0.1-0.3c0.5,0,0.5-0.5,0.5-0.9c-1,0-1.5,0.6-2.4,0.6
			c-0.3,0-0.3-0.3-0.6-0.3h-0.1c-0.1,0-0.2,0.2-0.2,0.3l0.2,0.2c-0.1,0-0.8,0.2-0.8,0.2h-0.2c-0.1,0-0.1,0-0.1,0
			c-0.1,0-0.8-0.3-0.8-0.3h-4.2l-0.7-0.3l0.2-0.3h1.6v-0.4h-2.7c0.2-0.3,0.9-0.4,1-0.5l-0.2-0.2H372v-0.1c-0.7,0-0.7,0.4-1.7,0.4
			v-0.3h-1.1c0,0.3-0.3,0.3,0.1,0.4c0,0-0.3,0.2-0.3,0.3c0,1,2.1,1.8,1.7,2.8c0.7,0.6,1.9,1.2,2.4,1.9l-0.3,0.3
			c0.1,0.4,0.3,0.8,0.6,1c1.7,1.4,3.5,2.7,5.3,4c0.5,0.4,1.1,1.9,2,1.9c0.3,0,0.3-0.3,0.5-0.3c0.2,0,2.6,1.7,2.9,1.9
			c1.1,0.8,2.6,1.3,3.4,2.3c0.1,0.2,0.3,0.4,0.4,0.4c0.1,0,0.4-0.1,0.4-0.2v-1.3c0.3,0.7,0.6,1.2,0.8,1.9h0.3c0-0.1,0-0.3,0-0.4
			c0-0.3-0.2-1.6-0.3-1.9c0.1,0,0.1,0,0.1,0c0.1,0,0.2,0,0.2,0c0,0.1,0.3,0.2,0.3,0.3c0.3,0.8,0.5,1.1,0.5,1.9
			c0,0.1,0.1,0.6-0.2,0.6c0.3,0.4,0.3,1.5,0.8,1.5v-0.3h0.3c0,0,0.5,3.5,0.6,3.6c0,0.1,0.3,0.5,0.4,0.7c0,0.3-0.3,0.5-0.3,0.9
			c0,0.8,0.9,2.2,1.1,2.8c-0.1,0.1-0.1,0.3-0.2,0.4c0,0-0.1,0-0.2,0h-0.1c0-0.1-0.3-0.6-0.3-0.6c-0.1,0.6-1,0.5-1.4,0.3
			c0.3,0.3,1.4,0.8,1.4,1.3c-0.8,0-2.4,0.6-2.5,0.6c-0.8,0-1.6-0.9-1.6-1.7C388,260.5,388,259.9,388.6,260.3z M355.7,215.1
			c0,0.4-0.8,0.8-1.1,0.8c0-0.5,0.5-0.9,1.1-0.9C355.7,215,355.7,215.1,355.7,215.1z M359.5,223.4c0.2,0,0.2-0.3,0-0.3
			C359.3,223.1,359.3,223.4,359.5,223.4z M360.1,236.3c0,0.3,0.1,1.6-0.5,1.6c0-0.7,0.3-1.6,0.5-2.4
			C360.1,235.6,360.1,236.2,360.1,236.3z M360.1,243.5c0.2,0,0.2-0.4,0-0.4C359.9,243.1,359.9,243.5,360.1,243.5z M362.6,231.3
			c0.1,0.6,0.3,2.1,0.4,2.1h0.2v-0.9c0,0,1.2-0.2,1.6-0.2s2.5-0.7,2.8-0.9c0.1,0,0.3-0.2,0.4-0.2c2.4,0.1,3.8-0.3,6-0.7
			c5.1-0.9,11.1-0.7,11.1-7.2c0-0.7-0.1-2.3-0.8-2.8c0,0-0.3-0.2-0.4-0.3c-0.2-0.2,0.1-0.6-0.3-0.6h-0.1c-0.1,0-0.3,0.3-0.4,0.4
			c0.2,0.1,0.7,0.7,0.9,0.8l0.1,0.2l-0.1,0.1c-0.6-0.3-3.5-2-3.5-2.3h0.2c0.7,0,1.6,0.9,2.2,0.9c0.1,0,0.2,0,0.2,0
			c0.1,0,0.2-0.3,0.2-0.4v-0.1v-0.1c-0.8-0.2-2.6-1.3-3.4-1.6h0.2c1.4,0,1.7,0.6,2.8,1c0-0.1,0-0.2,0-0.2c0-0.5-1.6-1.4-1.9-1.5
			l0.5-0.3c-0.2-0.4-1-0.2-1-0.2c-1-0.3-0.9-1.3-2.2-1.3c-0.1,0-0.6,0.3-0.6,0.3c-0.4-0.1-1.4-0.6-1.4-0.6v-0.3h-1
			c0.1,0,0.3-0.2,0.3-0.3c0.2,0,0.9-0.2,1-0.2c-0.1-0.3-4.4-1-5.3-1c-0.5,0-0.9,0.3-1.4,0.3c-0.2,0-0.5-0.1-0.5-0.1l-0.2-0.3
			l-0.2,0.3l-1.5,0.5c-0.1-0.1-0.4-0.3-0.4-0.3c0,0-0.1,0-0.2,0h-0.1c-0.1,0.1-0.9,0.3-1,0.3h-0.1h-0.1c-0.1,0-0.6-0.3-0.7-0.3h-0.1
			c-0.4,0-3,1.1-3,1.4v9.1C362,224.1,362.5,230.6,362.6,231.3z M364.3,233.1h0.3v-0.3L364.3,233.1z M365.1,234.7
			C365.1,234.7,365.1,234.7,365.1,234.7c0.1,0,0.2,0,0.3,0l-0.3-0.6l-0.3,0.3L365.1,234.7z M365.1,233.1c0.3,0,0.3-0.5,0-0.5
			C364.9,232.5,364.9,233.1,365.1,233.1z M368.9,242.4c0.2,0,0.2-0.3,0-0.3C368.7,242,368.7,242.4,368.9,242.4z M369.5,209.5
			c0.1,0.1,0.8,0.1,0.8,0C370.5,209.4,369.4,209.4,369.5,209.5z M369.5,212.6v0.4c0.7,0,1.6-0.3,2.2-0.7c-0.2,0-0.6,0-0.7,0
			C370.8,212.4,369.5,212.4,369.5,212.6z M373.9,212.9h0.6l-0.6-0.3V212.9z M375.4,247.6C375.4,247.6,375.5,247.6,375.4,247.6
			c0.1-0.4-0.5-0.4-0.7-0.4C374.7,247.5,375.1,247.6,375.4,247.6z M374.8,246.6c0.1-0.1,0.1-0.1,0-0.2
			C374.7,246.3,374.7,246.7,374.8,246.6z M379,247.5c0-0.5-2.8-2.6-3.4-2.6c0,0-0.1,0-0.2,0C376.2,246,377.7,247.5,379,247.5z
			 M379.1,252.4L379.1,252.4c0.1-0.1,0.3-0.3,0.3-0.3c-0.3-0.3-0.9-0.6-1.3-0.6c-0.1,0-0.3,0-0.3,0
			C378.2,251.7,378.7,252.4,379.1,252.4z M378.2,250c0.2,0,0.2-0.3,0-0.3C377.9,249.6,377.9,250,378.2,250z M379.4,252.7h1.3
			c0-0.3-0.3-0.3-0.4-0.3l0.2-0.3l-0.2-0.2C379.7,253.1,379.7,252,379.4,252.7z M380.8,254.8c0.3,0,0.3-0.3,0-0.3
			C380.7,254.4,380.7,254.8,380.8,254.8z M381.1,254.4c0.3,0,0.3-0.4,0-0.4C380.8,254,380.8,254.4,381.1,254.4z M382.2,253.7
			c0,0,0.1,0,0.2,0c-0.2-0.2-0.7-0.9-1.1-0.9C381.3,253.3,381.8,253.7,382.2,253.7z M381.9,254.6c0,0.2,0.2,0.2,0.2,0
			C382.1,254.4,381.9,254.4,381.9,254.6z M382.5,254c0,0.1,0.2,0.1,0.2,0C382.7,253.8,382.5,253.8,382.5,254z M383.4,256.5v-0.3
			h-0.7L383.4,256.5z M383,218.9c0.2,0,0.2-0.3,0-0.3C382.7,218.6,382.7,218.9,383,218.9z M384.7,256.5
			C384.8,256.5,384.8,256.5,384.7,256.5c0.2,0,0.3-0.2,0.3-0.3c-0.1-0.1-0.5-0.1-0.6-0.2h-0.3C384.1,256.3,384.4,256.5,384.7,256.5z
			 M385.7,234.9h0.3v-0.2C385.9,234.7,385.8,234.7,385.7,234.9z M387.2,260c0.2,0,0.2-0.4,0-0.4C386.9,259.6,386.9,260,387.2,260z
			 M388.2,258.8c0-0.1,0-0.3,0-0.3c0-0.4-0.3-0.6-0.7-0.6C387.5,258.2,388.1,258.7,388.2,258.8z"/>
		<path class="st0" d="M406,212c-0.2-0.1-1.1-0.3-1.2-0.3c-5.1-0.1-10,0-14.9-0.8c0.1-1-1.8-0.6-2.2-0.7c-0.3-0.1-0.5-0.9-1-0.6
			c-0.2-0.5-0.2-0.9-0.2-1.5c0-0.3-0.2-0.7,0.3-0.9c0,0,0.3,0.2,0.4,0.3h0.2h0.1c0.7-0.5,1.3-0.7,2.2-0.7c2.3,0,4.8,0.2,7.2,0.3
			c1.3,0,4.4,0.2,4.4,0.2l0.3,0.3c0,0,1.8,0.2,2.5,0.2c0.2,0,1.3,0,1.5,0c0.6,0.1,5.1,0.2,5.7,0.2c1.1,0.1,2.1-0.1,3.2,0.3
			c3.1,0,7.3-0.1,10.7,0.3c0.1,0,0.5,0.1,0.6,0.2c0.1,0-0.2,0.3-0.2,0.3c1.2,0,4.6-0.5,4.6,1.6c0,1.9-2.7,0.6-2.6,1.7
			c-0.1,0-0.7,0.1-0.8,0.1c-0.4,0-1.6,0.1-1.9-0.5l-0.2,0.4h-13.6c0,3.4,0.8,6.7,0.8,10.1c0,0.9-0.4,1.6-0.4,2.5
			c0,0.5,0.6,1,0.6,2.3c0,0.1-0.2,1.1-0.2,1.2c0,0.3,0.2,2,0.2,2.2v0.1c0,0.1,0,0.1,0,0.1s-0.2,0.2-0.2,0.3v0.1
			c0,5.6,0.7,11.4,1.2,17.1c-0.3,0.7-0.3,1.5-0.2,2.1c-0.3,0.2-1.6,0.4-1.9,0.5h-0.2c-1.6,0-2.6-3-2.7-4c-0.9-4.2-0.7-8.3-0.9-12.5
			c-0.3-7.3-0.3-14.6-1-21.9C406.2,212.1,406,212,406,212z M411.7,229.6c0.2,0,0.2-0.4,0-0.4C411.4,229.2,411.4,229.6,411.7,229.6z
			 M425.2,211.8c0.3,0,0.3-0.4,0-0.4C425.1,211.4,425.1,211.8,425.2,211.8z"/>
	</g>
</g>
<g>
	<text transform="matrix(1 0 0 1 -10.1866 122.7863)"><tspan x="0" y="0" class="st2 st3 st4 st5">A</tspan><tspan x="172.7" y="0" class="st0 st3 st6 st7">DA</tspan><tspan x="391.2" y="0" class="st0 st3 st6 st8">M</tspan><tspan x="497" y="0" class="st2 st3 st4 st9">W</tspan><tspan x="693.5" y="0" class="st0 st3 st6 st7">EE</tspan><tspan x="884.9" y="0" class="st0 st3 st6 st8">KS</tspan></text>
	<g>
		<path class="st1" d="M121,122.6H21.8L71.4,21.3L121,122.6z M41.5,110.3h59.9L71.4,49.2L41.5,110.3z"/>
	</g>
	<g>
		<path class="st1" d="M516.6,26.3h99.1l-49.6,101.3L516.6,26.3z M596.1,38.6h-59.9l29.9,61.1L596.1,38.6z"/>
	</g>
	<g>
		<path class="st1" d="M554.7,26.3h99.1l-49.6,101.3L554.7,26.3z M634.2,38.6h-59.9l29.9,61.1L634.2,38.6z"/>
	</g>
	<line class="st10" x1="21.8" y1="165.6" x2="1011.8" y2="165.6"/>
</g>
</svg>