    <svg  x="0px" y="0px" width="100%" viewBox="-50.094 -52 831 1304" enable-background="new -50.094 -52 831 1304" xml:space="preserve">
  <!-- 		<defs>
  			<circle id="location" class="location" fill="none" stroke-width="10" stroke-miterlimit="10" cx="342.112" cy="1038.682" r="0"/>
  		</defs> -->
  		
  	<style type="text/css">
  		
  	@keyframes expand{
		0% {
			r: 0;
		}
		100% {
			r: 150;
		}
	}
	
	@keyframes fade{
		0% {
			opacity: 1;
		}
		100% {
			opacity: 0;
		} 
	}
	
	
	@-moz-keyframes expand{
		0% {
			stroke-width: 0.3;
			transform: scale(1,1);
		}
		100% {
			stroke-width: 0.0001;
			transform: scale(150,150);
		}
	}
	
	
	@-moz-keyframes fade{
		0% {
			opacity: 1;
		}
		100% {
			opacity: 0;
		} 
	}	
  		
  		
	.location{
    
		stroke: #F2642A;
		stroke-width: 10;
		stroke-miterlimit: 10;
		opacity: 0;
		fill: none;
		
	    -moz-animation: expand 5s linear infinite,
	            		fade 5s ease infinite;	
	    animation: expand 5s linear infinite,
	               fade 5s ease infinite;

		transform-origin: 342.112px 1038.682px;
    }
    

    #circle2{animation-delay: 1.25s;}
    #circle3{animation-delay: 2.5s;}
    #circle4{animation-delay: 3.75s;}
  		
  	</style>
   	<path fill="#FFF" d="M97.47 1189.14c-1.77 0-3.4-.5-4.67-1.45l-.1.1c-.44-.4-.83-.9-1.18-1.3l-.13-.2c-.1-.1-.1-.1-.1-.2-.8-1.2-1.4-2.5-1.7-3.9-.9-1.6-1.2-3.5-1-5.4l.1-.9.4-.8c0-.2-.3-1.9-2.5-4.7-3.1-3.8-7.4-6.4-9.4-6.9l-.8 1c-2.4 3.5-4.6 6-11 6.7-.4 0-.9.1-1.4.1-1 0-9.7-.2-11.7-5.9-.5-1.2-1.1-4.1 1.6-7.1.9-2.8 1.9-5.6 3.1-8.3l.3-.6.4-.6c4.3-5.2 12.9-7.5 19.1-7.5 1 0 2 0 2.9.2 1.1.1 2.3.4 3.4.6 1.8.4 3.7.8 5.3.8 2 0 3-.6 3.7-1.6l.6-.9.9-.5c2-1 4-2.2 6-3.4l2.2-2.4c4.5-4.7 10-10.5 15.8-12.5 1.4-.5 1.7-1 2.7-3.7.9-2.2 2.1-5.3 5.1-7.8l1.8-1.6c3.2-2.8 6.6-5.7 12-5.7.9 0 1.8.1 2.7.2.4 0 .7.1 1 .1 1.2 0 1.6-.5 3.5-3.1 1.8-2.7 4.3-6.2 9.4-7.1 2.2-.8 9.7-6.8 12-9.4 2.4-2.8 4.4-11.4 5.7-17.1.6-2.9 1.3-5.6 1.9-7.7 1-3.2 3.8-5.2 7.4-5.2 3.5 0 7.3 1.7 10.8 3.5l1.1.6c.3.1.6.2 1 .2 1.9 0 4.8-1.7 7.6-4.4.8-.7 1-2.1 1.3-4.5.4-3.1.9-7.4 4.2-11.2 2.8-3 6.8-4.5 12.4-4.5 2.5 0 5.1.3 7.3.5 1.5.2 2.8.3 3.9.4 11.4.4 20 2.9 31 6.5.6.2 1.9.3 3 .4 2.6.3 5.5.6 7.8 2 1.9 1.2 3.3 2.5 4.4 3.5 1.6 1.5 2.4 2.2 4 2.7 2.2.6 5.2.3 8.4-.1 1.2-.2 2.5-.3 3.7-.4 2.6-.2 5.2.4 7.3.9 1.4.3 2.8.6 3.8.6h.4c.8-.9 1.4-4.4 1.7-6.1.3-1.8.6-3.6 1.2-5.1 2.5-6.6 8.8-10.8 14.3-14.5 2.1-1.4 4.1-2.7 5.6-4 .8-.8 1.7-1.4 2.7-1.9-1.8.3-3.7.4-5.5.1-1.1-.1-2.2-.2-3.2-.2-6.1 0-9.5 2.6-15.7 7.3l-.8.5c-6 4.6-13.6 7.2-20.8 7.2-9.9 0-18-4.9-22.1-13.4-.9-1.7-2.4-3.1-4.2-4.8-2.5-2.3-5.3-4.9-6.8-8.9-.8-2-1.3-4.1-1.7-5.9-1.3-5.6-1.9-6.9-5.3-7.5l-.3-.1c-.3 0-.9.5-1.8 1.4-1.6 1.6-4.1 4-8 4-1.3 0-2.7-.3-4.1-.8-1-.4-3.2-.3-5.6-.1-1.4.1-2.8.2-4.2.2-2.7 0-6.7-.4-9.8-3.4-3.8-3.9-5.1-7.5-3.9-11 1-2.5 3-4.1 5.5-5.1-3.1-1.7-4.9-4.4-6.2-6.5-1.6-2.5-2.4-3.6-4.4-4l-1-.3c-2.2-.5-6-1.3-8.9-1.3-1.2 0-1.9.1-2.1.2-4.7 7-8.7 7.7-14.1 8-1.5.1-2.9.1-4.7.4-1 .2-2.2.6-3.5 1.1-2 .8-4.4 1.7-7 1.7-4.3 0-7.7-2.4-10.1-7.1-.6-1.1-1-2.3-1.4-3.5-.4-1.1-1-2.9-1.6-3.8l-1.9.5-1.9-1.5c-2.1-1.5-3.5-3.6-4.2-5.9-1.5-1.8-1.6-3.8-1.5-4.7.4-4.4 5-6.5 8.3-7.8 1.5-.6 2.2-.9 2.6-1.1.1-.7.1-2.1 0-3.1-.7-.8-2.7-2-3.9-2.7-3.3-2-7.4-4.5-6.8-9.1.6-4.5 5.1-6.4 10-7.9 1-.3 2.1-.5 3.1-.8 2.3-.5 5.2-1.2 6.2-2.2l1.4-1.4c2.3-2.2 4.3-4.1 7.6-4.1 1.8 0 3.5.6 5.9 1.5.8.3 1.7.6 2.8 1 2.5.9 7.2-.8 11.1-4 .7-1 1.5-1.9 2.3-2.9l1.2-1.5 1.9-.2h.8c1.1 0 2 .3 2.9.7 1.5-1.8 3.7-2.6 6.9-2.6.4 0 .8 0 1.3.1 1.1.1 2.2.3 3.4.5s2.4.5 3.3.5h.3l.3-.4.7-.4c2.1-1.2 4.3-2.4 6.4-3.4 3.9-2.9 8.5-4 12.6-5.1 6.9-1.8 10.6-3 12.3-8.5l.2-.6.3-.6c1.5-2.6 2.9-5.3 4-8.1.6-2.5 1.3-4.5 1.9-6.4 1.2-3.7 2-5.9 1.1-10.3-1.6-7.8 1.1-12.8 3.7-17.7l1.1-2.2c.8-1.7.6-2.4-.6-5.1-.7-1.8-1.7-4-2-6.7-.3-3.3.9-5.9 1.7-7.9 1.2-2.6 1.1-2.6.2-3.7-.6-.7-2.5-1.4-5.5-1.4-6 0-11.7 2.6-12.8 4.3-.8 1.3-3.3 5.3-7.8 5.3-1.8 0-3.3-.7-4.4-1.2-.6-.3-1.1-.5-1.4-.5h-.4c-.2.1-5.3 1.6-9.6 1.6-1.2 0-4.9 0-7.1-2.7-1.2-1.5-1.7-3.5-1.3-5.5 2.3-11.5 14.5-15.6 24.3-18.9 3.9-1.3 7.7-2.6 10-4 2.1-1.4 4.8-3.5 5.2-5.5.5-2.5-1.9-6.2-4.4-10.1-1.4-2.1-2.8-4.3-4.1-6.8-2.8-5.4-4.5-8.2-8.3-10.8-3.5-2.4-5-5.2-4.3-8.1 1.1-4.5 6.1-5.1 9.7-5.6.5 0 1.2-.1 1.6-.2 1.5-1 2.7-2.3 4-3.7 2.9-3 6.5-6.8 12.8-6.8 1.5 0 3.2.2 4.9.7 8.8 2.5 10.4 6.4 11.5 11.4.3 1.4.6 2.9 1.4 4.7l1 2h.3c1.2 0 3.1 0 5.6.5 4 .7 5.6 3 6.2 4.7.7 2 .2 3.9-.6 5.4 2.1-.4 4.2-1 5.3-1.4.5-.2 2.1-1.4 3-2.1 3-2.1 5.3-3.9 8-3.9h.4c4 .3 6.9 2.4 9.2 4.2 2.2 1.7 3.7 2.7 5.5 2.8h.4c3.2 0 6.1-.6 9-1.3 2.7-.6 5.4-1.2 8.2-1.2 4.7 0 8.6 1.7 12.2 5.3-.2-1.8.1-3.5.9-5 2-3.7 6.1-4.7 9.3-5.6 1-.3 2.5-.7 3.2-1 .3-1.2-.4-3.8-.8-5.6-.5-2-1-4-1.1-6-.1-5 4.3-9.5 9.1-14.3 1.4-1.5 3.6-3.7 4.9-5.3-3.4-2.2-5.4-5.8-5.9-10.4-.9-7.3 2.6-16.2 8-20.2 2.7-2 6-2 8.9-2.1.7 0 1.7 0 2.5-.1l-.5-1.3c-1.1-2.9-3.4-8.8 2.1-14 .9-.9 1.8-1.6 2.6-2.3 2.7-2.2 2.9-2.4 2.5-4.4-.7.4-1.4.9-2.2 1.3l-.8.4-.8.1c-.3 0-.6.1-.9.1-2.7 0-4.6-1.6-6-3.3l-1 2.8c-7 9-9.18 11.6-12.6 11.6-1.17 0-2.27-.3-3.2-1l-.6-.5-3.4-4.7-.2-.5c-2.8-6.7-2.8-11.8.3-15.3-.5-.6-1.16-1.2-1.6-1.7-.7-.7-1.5-1.5-2.1-2.3-5.1-6.1-6.47-13.8-7.8-21.2-1.17-6.3-2.2-12.3-5.4-16.7-6.1-8.5-.6-15.9 3-20.7 1.4-1.9 2.7-3.7 3.5-5.4 3.3-7 8-12.8 12.6-18.3 3.1-3.7 5.9-7.2 8.4-11.1.7-1 1.7-2.1 2.8-3.3.7-.7 1.8-1.9 2.6-2.9-1.4-.4-3.1-.5-5-.5H367c-1.1 0-2.37 0-3.6-.1h-.7c-.7 0-.9.1-.9.1-.2.2-.6 1.1-.9 1.8-1.3 2.8-3.7 8.1-12 8.1h-1.76c-3.6 0-7.2 1.9-11.1 3.9-4.6 2.3-9.4 4.8-15 4.8-1.7 0-3.3-.2-4.9-.7-5.3-1.5-8.98-5.2-12.18-8.5-1.9-1.9-3.7-3.8-5.5-4.7-.14 1.3-.2 3.1-.2 4.3-.1 3.5-.2 7.2-1.7 10-1.4 2.6-3.8 4.2-6.6 4.2-6.2 0-12.08-7.5-20.36-19-1.8-2.5-4-5.5-4.8-6.3-3.6-2.6-5.5-2.8-6-2.8-.3 0-.4.1-.5.3-1.2 1.5-1.7 6.4-.3 12.6.9 3.6.3 7.3-1.6 9.7-1.4 1.7-3.4 2.7-5.5 2.7-2 0-5.7-.9-8.1-7.1-1.2-3.1-1.1-6.1-1.1-8.8v-2.9c-.2-2.5-1.6-4.8-3.3-7.5-.6-1-1.2-2-1.8-3.1-4.2-5.3-4.6-14-3.8-19.9 1.1-6.9 4.6-10.3 10.4-10.3h2.2c1.9-2.5 3.7-5 5.5-7.4 3.7-5 7.4-10.2 12.4-15.3 2.4-2.4 4.3-5.8 6.3-9.5 3.1-5.6 6.3-11.3 12-15 1.9-1.2 5.2-3.3 5.8-4.3.3-.4.2-2.2.2-4.3V459c.1-7-2.9-10.3-8.1-16.3L278 441c-1.8-2.1-4.1-3.8-6.5-5.6-4.4-3.3-9.5-7-12.2-13.7-.7-1.8-.6-3.4-.1-4.8-1.2-.2-2.3-.6-3.3-1.4-.5 2.9-1.8 5.4-3.3 7.3 1.6 0 3.2.5 4.4 1.4.4.3 1.2.8 1.5.9 8.7 3 8.6 13.4 8.6 21 0 2.8 0 6.3.5 7.6 1.3 3.3.8 7-1.4 10.3-3.2 4.7-10.3 8.6-15.8 8.6-1.6 0-3.1-.3-4.4-1-7.4-3.9-8.9-13.9-9.2-22.4-1.1 2.4-2.5 4.9-4.3 7.3-1 1.3-1.3 4.5-1.6 7.2-.4 4.4-.9 9-4.3 11.9-3.5 3-11.1 5.4-16.9 5.4-6.3 0-9.3-2.7-10.6-5-4.2-6.8 1.6-15 3.5-17.3 4.3-5.4 6-8.3 7.6-14.8 1.5-5.9 4.7-10.5 7.9-14.8 2.7-3.7 5.1-7.2 6.3-11.2.2-.7.2-.8-.6-2.2-.9-1.6-2.3-4.1-1.9-7.6.6-4.2 2.5-6.6 3.7-8.1-.1-.2-.2-.4-.4-.6-7.7-9.2 1.9-18.4 7.6-23.8 2-1.9 5.2-5 5.6-6.3l.4-2c-2 1.6-4.8 4.2-7.9 7.9-3.9 4.68-7.9 10-12 16.2-.4.6-1.2 2.3-1.9 3.8-3.8 7.86-6.9 13.5-11.6 14.6-2.8.7-2.9 1.27-3.6 4.8-.7 4-1.7 9.9-9.1 14-2.4 1.3-5.7 1.8-9.2 2.27-1.7.2-3.5.5-4.5.8-1.6.5-2.9.7-4.1.7-3.9 0-5.5-2.3-6-3.3-2.2-4.1.9-8.6 3.6-12.5.4-.6.8-1.3 1.1-1.6 0-.5-.1-1.2-.3-1.8-.1 0-.1.1-.2.1-3.8 2.7-6.7 4.6-9.6 4.6-3.5 0-6-2.65-6.1-6.25 0-5.2 7.7-24.7 14.2-27.1l.3-.1c2.7-1 5.4-1.8 8.1-1.8 2 0 3.5.5 4.6 1.2.7-.4 1.5-1.1 2.1-1.5 1.8-1.4 3.4-2.8 5.5-3.3.7-.2 1.4-.3 2-.3 2.9 0 5 1.4 6.2 4.3 1.5-1.7 3.3-4.2 4.3-5.6 1.2-1.8 2.3-3.3 3.4-4.5 3.4-3.4 7.4-5.8 11.3-8.1 2.9-1.7 5.6-3.3 7.9-5.3 2.2-2 4.4-4.3 6.3-6.8.4-.6 1.1-2.9 1.6-4.2 1.2-3.7 2-6.1 3.5-7.6-3.4 1.8-7 3.1-9.9 3.1-1.4 0-2.7-.3-3.8-.8l-1.8-.9-.7-1.8c-.1-.2-.2-.4-.4-.6h-.5c-1.9 0-4.8.9-7.6 1.8-3.8 1.3-8.2 2.7-12.5 2.7-3.3 0-6.3-.9-8.8-2.5-3.7-2.4-5.4-5.3-5-8.4.5-5.2 6.1-7.3 10.6-8.9l2.2-.9c.8-1.6 2-2.9 3-4.1l1-1.2-.2-.1c-2.6-2.4-5.8-5.4-4.9-9.5 0-.3.2-.7.3-1-.9-.6-1.6-1.3-2.2-2.2-2.3-3.6-2-6.6-1.4-8.5 1.7-5.27 7.8-7.5 11.4-8.9l.5-.2c1.4-.56 2.7-.9 3.8-1.2-1.5-1.4-2.7-2.9-3.4-4.7-.8-2.1-.5-4.4.7-6.2 2.2-3.3 7.2-4.6 16.7-4.6h2.7l2.9.1c1 0 1.9.1 2.8.1 2 0 3.2 0 5.9-2.3-1.5-.8-2.8-2-3.5-3.9-.7-1.8-.8-4.77 2.2-8.2 1.2-1.4 2.1-3.1 3.1-5 .8-1.3 1.5-2.7 2.5-4.1.3-.5.7-1 1.1-1.4-1.6.7-3.3 1-5.1 1.1h-.2c-5.3 0-7.8-3.1-8.5-6.1-.3-1.3-.2-2.8.1-4.3l-1.9-8c-1.4.84-2.9 1.3-4.5 1.4l-2.5.1-1.6-1.9c-.6-.7-1-1.5-1.2-2.3-1.7-.3-3.8-1.3-5.3-4.3l-1.5-3c-2.9-5.56-6.6-12.47-4.6-20l.1-.2c-2.2-.3-5.4-.9-8.2-3.3-3.6-3.1-5.9-6.7-7.2-11.1-1.2-2.2-2.1-4.5-2.6-6.9l-.6-2.6 1.8-1.9c1.2-1.3 2.3-2.7 3.2-4.2l.4-.5 2.9-3.5 1.4-.4c.6-.2 1.3-.3 2-.3 1.2 0 2.3.4 3.1.9-.5-1.5-.7-3.4-.1-5.5l.2-.5 3.6-6.3h2.9c5.6 0 7.7 6.1 9.2 11.5.6-2.7 1-5.5.9-6.8-.1-1.3.1-3.4 1.9-5.5 3.2-3.6 9.3-4.8 11.2-4.9h.5c6.1 0 8.2 5.9 9.4 9 .2.6.5 1.4.7 1.7 5.2 8.9 2.6 16.4.6 22.45l-.1.3c1.1-1.7 3.1-4.1 6.2-4.1 1.7 0 3.2.8 4.3 2 .4-2.4 1.3-4.6 2.9-6.3 1.8-1.9 4.2-3 7-3h.1c-.9-4.5-1.16-8.4 1.4-11.1 1.85-1.9 2-4.7 2-8.9 0-5.7.1-13.6 8.6-18.8 2.73-1.6 5.13-2.4 7.5-2.4 4.5 0 7.5 2.7 10.5 5.7l.5.5h.04l2.8.1c.3-.3.7-.7 1.1-1 1-1 2.3-2.3 4.1-3-3.1-2-5.6-5.3-4.4-10.9 1.1-5.04 2.3-10.8 8-10.8 1.7 0 3.2.65 4.9 1.7-.1-1.1-.3-2.2-.5-3.2l-.7-2.1c-1.5-4.3-3.5-10.1-.3-14.1 1.6-2 4.2-3.05 7.6-3.05 2.5 0 5.4.6 7.9 1.1h.2c-.6-5.9 3.7-11.55 7.2-16.1.97-1.3 2.4-3.1 2.96-4.15-1.3-4.5-.3-9.43 2.6-13.7 3.6-5.1 9.3-8.3 14.9-8.3 2 0 3.9.4 5.7 1.18 6.3 1.1 9.9 5.9 12.3 9.1.6.8 1.5 2 2.1 2.6.2-.1.4-.3.7-.5 1.7-1.4 3.5-2 5.5-2 4 0 6.8 2.8 8.8 4.9l1.5 1.4.1-.1.8-.4c1-.5 2.1-.7 3.1-.7 2.1 0 4.6 1 6.1 3.6.4 0 .8.1 1.3.1 1.5 0 3.4-.4 5.2-.7 1.6-.3 3.2-.6 4.7-.7 1.6-.1 2.6-.2 3.5-.2 2.8 0 4.1.5 6.2 1.3.9.3 2.1.8 3.9 1.4h.7c2.1 0 5.5-.8 8.8-1.7 4-1 8.2-2 11.8-2 4.1 0 6.6 1.4 8.1 3 .9.4 1.7.7 2.4 1 .3-.8.6-1.4 1-1.9 1.18-1.6 3.5-3.5 8.2-3.5 4.3 0 9.08 1.5 11.2 2.5l3.2 1c6.8 2.1 9.6 2.9 10.6 6.1 1.88 5.6-3.1 11-7.5 15.7-.6.7-1.33 1.5-1.92 2.1 4.7 3 4.4 7 3.3 10-3 7.6-10.6 15.2-18.8 18.7-8.8 3.8-14.4 7.7-21.5 13.5-4.5 3.7-9.4 5.9-14.2 7.9-3.6 1.6-6.9 3-9.9 5l-2.7 1.7c-2.5 1.6-10 6.4-11.5 8.3-.3.6-.5 1.2-.6 1.9-.6 1.8-1.3 4.3-3.4 6.3 1.8-.5 3.3-1.2 4-1.64l1.2-1c5.7-4.9 9.3-7.4 12.7-7.4 2 0 3.8.9 5 2.5 2 2.8 1.2 6.5.2 9.4-3.6 10.8-15 18.1-24.1 23.9-1.6 1.1-3.2 2.1-4.6 3-.6.4-1.6 1.2-2.6 2.2.9.2 1.8.4 2.6.6 1.6.4 3.1.8 4.5.8 1.1 0 2.3-.3 3.6-.8l1.6-.7c4.8-2.1 9.05-3.8 14.9-3.8.76 0 1.5 0 2.3.1 1.8.1 2.7-.3 4.7-1.5 2.16-1.2 5.1-2.9 9.7-3h.16c6.9 0 11.5 3.6 15.5 6.8 1.7 1.3 3.3 2.5 4.9 3.4 1.2.6 2.4.9 3.9.9s3.2-.3 5-.6c2.1-.3 4.44-.7 7-.7 3.3 0 6.3.7 9.1 2.1 8.4 4.2 22.2 8.4 32.3 8.4 3.3 0 6-.5 8.05-1.3 1-.4 2.1-.6 3.1-.6 8.5 0 16.6 13.8 19.7 19.7 6.2 11.9 4.8 21.4-4.6 30.9l-1 1.6c-6.3 6.3-12.8 12.8-16.2 20.5-1.4 3.1-2.3 6.1-3.4 9.2-1.6 4.9-3.3 9.9-6.5 15.3l-3.3 5.7c-2.8 5-5.8 10.2-9.6 15-2.8 3.5-6.1 5.9-9.2 8.2-3.3 2.5-6.1 4.6-8.1 7.6-.8 1.4-1.7 3.7-2.7 6.1-2.3 5.8-4.8 12.3-10.2 14.8-1 .5-2.7 1.8-4.4 3-4.1 3.1-8.7 6.6-13.5 6.7v.7c.1 2.4-.7 4.4-1.3 5.8-.5 1.2-.6 1.7-.6 1.9.6 1.4 2 2.6 3.6 4 1.9 1.6 3.9 3.3 5.5 5.8 2 3.3 2.1 6.8.3 10-3.4 6-13 8.8-18.5 8.8h-2c-2.5-.3-4.6-1.3-6.2-2.2-1.1-.6-2.1-1.1-2.7-1.1h-.1c-3 .5-9.3 4.8-11.2 7.8-4 6.3-9.2 7.1-13.3 7.4l2.2.7c2.8.9 4.3 1.4 5.4 2.1 1.5.8 3 1.8 4.3 2.9l.8.6h.8c3 0 6.5-1 7.6-1.4l1.3-1.2c4.7-4.2 8.3-7.4 13.7-7.4 3.8 0 7.7 1.6 12.7 5.4 3.3 2.4 6.1 5.5 8.9 8.5 3.9 4.2 7.6 8.2 12 9.8l2.8 1c8.1 2.9 10.4 4.8 13.2 14.6 2.4 8.2 5.4 14.8 8.6 18.5.4.4 1.5 1.1 2.4 1.6 2.2 1.2 4.9 2.8 6.3 6 .7 1.6 1.2 3 1.6 4.3.7 2.1 1 3.3 2.6 4.8 9.3 9.2 7.3 23.3 5 33.1-.4 1.5-.1 2.4.5 4.3.3 1 .6 2.2.9 3.6l.1.6v.6c-.2 2.3-.8 4.5-1.9 6.5.1 1.6.5 3.1 1.3 4.5l.5 1v1.1l2.5.9v3.6c0 2.9-.9 5.1-1.6 6.7-.7 1.9-1 2.5-.3 4.1.5 1.1 1.1 2.1 1.8 3.2 1.4 2.2 3.2 5 3.6 9.1.4 4.4.4 8.9.5 13.4 0 7.9.1 16 2.2 22.8.3.8 1.8 2.5 2.8 3.6 1.7 1.9 3.5 3.9 4.1 6.4l.3 1-.2 1.1c-.2.9-.5 1.8-.9 2.6.9.9 2.3 1.9 3 2.5.9.6 1.6 1.1 2.1 1.6 4.5 4.1 9.3 7.1 14.5 10.2 7.4 4.5 15 9.1 21.4 17.4 4 5.2 5.8 11.2 7.4 17 1.7 5.6 3.2 11 6.7 14.4 5.5 5.3 4.8 9.1 3.4 13.5l-.3.8 1.3.9c1.5.9 3.1 2 4.2 3.6 3.1 4.4.8 9.5-.9 13.2-.4 1-1.1 2.5-1.2 3-.8 7 2.1 15.2 4.3 20.7 1.3 3.1 3.1 6 5 9.1 2 3.1 4 6.3 5.5 9.9 2.4 5.5 5.5 15.3-.5 18.8-1 .5-2.1.8-3.3.8-2.7 0-5-1.6-6.8-2.8-.3-.2-.7-.6-1-.7-.9-.4-2.1-.6-3.3-.8-.7-.1-1.4-.3-2.1-.5 4.4 4.7 9.6 9.4 13.4 12.7l1.6 1.4c5.9 5.2 7.5 12.9 9 20.3.9 4.4 1.8 8.6 3.5 11.9 6.8 13.2 2.8 27.3-10 35.1-.5.3-1.4.8-2.4 1.3-8.9 5-12.3 7.8-13.6 9.4l.3.2c1.1.6 2.3 1.8 4.9 4.3 6 5.8 10.3 9.6 12.9 11.2.3-2.3 2.1-4.2 3.2-5.6.2-.2.7-1.3 1-2.1 1.3-2.8 3.2-7.2 7.4-8.4 1.5-1.1 3.1-1.9 4.9-2.5l1.4-.4 1.4.4c6.8 2 13.7 2.1 21 2.1 9.4.1 19.2.3 29.1 4.5 8 3.4 13.5 10.8 18.9 17.9 3.9 5.3 7.7 10.3 12.1 13.4l.4.3.4.4c1.4 1.6 2.7 3.2 3.9 4.9 1.6 1.2 2.9 3 3.8 5.7 3.1 8.4 3.3 29.1.6 35.6-.9 3.2-1.9 6.4-3.1 9.5l-.5 1.4-1 .9c-4.7 4-6.4 11.1-8 18-.3 1.46-.6 2.86-1 4.2-3.4 13.35-14.6 21.6-24.8 28.2-1.3.9-2.7 1.65-4.1 2.4-1.8.9-3.5 1.8-4.8 3l-.2.1c0 .1.1.1.1.2.5 1.7 1.5 4.8-.7 8.5-3.7 6.5-10.7 9.5-14.6 10.7-1.2.4-2.5.6-3.7.6-3.2 0-5.5-1.3-7.1-2.2-.9-.4-1.6-.9-2-.9h-.2l-.4.1h-.4c-.8 0-1.6.2-2.2.4 2.8 7.4 2.5 17.3-3 23.6-3 3.5-8.3 6.4-11.8 7.9-1.4.6-2.8.9-4.3.9-.5 0-1.1 0-1.6-.1 5.9 3.7 11.6 8.6 14.5 12.1 1.9 2.3 4.1 3.2 8 3.2 2 0 4.2-.24 6.5-.5 2.1-.2 4.2-.5 6.4-.55l.9-.1c1.3 0 3.5-.2 5.8-.2 7.8 0 12.3 1.4 14.6 4.5 1.4 1.9 1.8 4.3 1.1 6.7-.8 2.6-2.3 4.5-3.6 6-1.3 1.6-1.7 2.1-1.7 2.7.1.5.3 1.7.5 2.7.9 3.9 2.2 10.3-1.9 14.2-1 2.3-2.2 4.4-3.8 6.4l-.4.5c-4.5 4.2-11.3 5-18 5.8-4.1.4-8.4.9-10.8 2.2-2.9 1.6-3.9 4.2-5.1 7.3-1.5 3.8-3.7 9.6-11 9.6-2.1 0-4.5-.5-7.3-1.6-.9-.35-1.8-.5-2.8-.5-2.8 0-5.9 1.4-9.4 3.14-4.1 2-8.8 4.3-14.4 4.7l-1.5.1c-4.1.3-8 .5-10.5 2.6-.5.4-1.1.93-1.7 1.6-2.8 2.7-6.7 6.4-11.4 6.4-1.7 0-4.1-.4-6.4-2.6-2-1-4-2-6-2.8l-1.2-.5-.8-.94c-2-2.4-4.5-3.5-8.2-3.5-1.4 0-2.9.1-4.7.4-.6.1-1.2.1-1.8.1-5.3 0-7.7-3.9-9.1-6-.4-.6-1-1.5-1.2-1.7-.9-.3-2.3-.5-4-.5-2.8 0-6 .4-9.2.8-3.1.4-6 .77-8.6.77-2 0-4.1-.2-6.1-.5-2-.2-4.1-.5-5.9-.5-3.2 0-4.3.8-4.9 1.4-2.2 2.4-4.8 3.7-7.7 3.7-3.8 0-6.8-2.2-9.4-4.2-1.2-.9-2.3-1.7-3.3-2.2-2.3-1.2-5.2-1.8-8.2-2.4l-2.3-.5c1 1.2 1.7 2.6 1.9 4.2.4 2.3-.3 4.6-2 6.4-4.7 5.3-10.5 11.8-18.6 11.8-4.2 0-8.5-1.9-12.5-5.6-1-.9-3.2-2.2-5.1-3.3-3.5-2-6.5-3.8-8.1-6.1-1.2-1.5-2-3-2.8-4.4-1.9-3.3-2.4-4.1-6.1-4.1-.8 0-1.9-.04-3.2-.1-1.7-.04-3.5-.1-5.4-.1-5.1 0-6.8.5-7.1.65-.9.7-1.6 2.4-2.3 4.2-.8 2.13-1.8 4.6-3.5 6.7-1.1 1.3-3.2 2.9-6.9 2.9-5.8 0-14.1-3.8-22.1-7.5-3.6-1.7-7.3-3.4-9.5-4.1-.9 1.2-2.8 3.5-6.3 3.5-1.8 0-3.7-.6-5.8-2-4.4-2.8-7.6-6.5-10.8-10-2.2-2.5-4.2-4.8-6.6-6.7-3.4-2.8-7.1-4-12.9-4-2.2 0-4.5.2-6.9.3-2.6.2-5.3.4-8 .4H287c-8.7 0-24.4 6.8-26 12.4-.4 1.3-.6 2.3-.73 3.3-.7 3.6-1.6 6.7-5.5 9.1.9 1 1.7 2.3 1.8 3.9.2 1.6-.3 3.2-1.3 4.44-2.3 2.7-5.2 4.5-7.73 6-2.3 1.4-4.4 2.6-5.2 4.1-3.2 5.6-6.5 9-13 9-1.4 0-3-.1-5.2-.5l-.65-.1c-7.1-1-9.4-2.5-11-10.1-.2-1-.3-1.3-4.5-2-2.7-.4-5.8-.9-8.5-2.8-2.5-1.7-4.2-3.3-5.7-4.7-2.5-2.3-4.1-3.8-8.5-5.2-2.1-.7-4.2-1-6.9-1-1.6 0-3.2.1-4.9.2-1.8.1-3.7.3-5.6.3-2.2 0-4.2-.2-6.1-.5-1.1-.2-2.5-.6-4.1-1-2.9-.8-6.8-1.9-9.6-1.9-.5 0-.8 0-1 .1l-.3 1.6c-.5 2.4-1.1 5.8-4 8-1.5 1.1-3.3 1.7-5.4 1.7-1 0-1.8-.1-2.5-.2-.5-.1-1-.1-1.3-.1l-.6.3-.9.1c-1.8.3-3.4.9-5 1.8-2.2 4.2-6 5.4-8.4 6.14-.6.2-1.5.5-1.8.7-.1.2-.2.6-.1 1.6.1 2.8-1.3 5.8-4.2 8.9-3.8 3.96-10.2 8-15.1 8zm1.37-11.05l.4.5c2.73-1.3 6.75-4.5 7.46-6.2-.32-9.1 5.87-11 8.86-12 2.32-.8 2.55-1 2.84-1.8l.55-1.6 1.35-.9c2.8-1.9 5.9-3.2 9.24-3.9 1.2-.5 2.48-.8 3.92-.8.96 0 1.83.1 2.6.2l.46.1c.1-.5.2-1 .3-1.4.3-1.7.67-3.7 1.83-5.6 1.26-2 3.9-4.4 9.36-4.4 4.1 0 8.8 1.3 12.2 2.2 1.3.4 2.5.7 3.2.8 1.4.2 2.7.3 4.4.3 1.6 0 3.2-.1 4.9-.2 1.8-.1 3.6-.2 5.6-.2 3.8 0 7 .4 10.1 1.5 6.6 2.1 9.5 4.8 12.2 7.4 1.4 1.2 2.7 2.4 4.6 3.8.8.6 2.6.8 4.3 1.1 4.1.6 11 1.7 12.7 9.8.2.9.4 1.5.5 1.9l2.3.3.7.1c1.6.2 2.8.3 3.6.3 1.5 0 2.1 0 4.4-4 2.2-3.7 5.7-5.8 8.8-7.7.8-.4 1.6-.9 2.3-1.3-1.4-1.4-2.7-3.4-2.3-6s2.3-4.7 5.8-6.1c1.6-.7 1.9-1 1.9-1 .2-.2.4-1.3.5-2.1.3-1.2.5-2.5 1-4.2 3.4-12.2 25-19.6 35.5-19.6h3.3c2.4 0 4.9-.2 7.3-.4 2.5-.2 5-.4 7.6-.4 5.4 0 12.6.7 19.3 6.2 2.9 2.4 5.4 5.1 7.7 7.7 2.7 3.1 5.3 5.9 8.4 8 1.1-1.3 3.1-3 6.3-3 .7 0 1.4.1 2.1.2 3 .6 7.3 2.6 12.3 4.9 5.9 2.7 14 6.4 17.6 6.6.5-.8 1-2 1.4-3.2 1.1-2.8 2.5-6.3 5.8-8.8 2.5-1.8 6.2-2.5 12.9-2.5 2.1 0 4.1.1 5.8.2h2.9c9.6 0 12.6 5.4 14.8 9.3.6 1.2 1.3 2.3 2 3.3.6.8 3.6 2.5 5.3 3.5 2.6 1.6 5 3 6.7 4.6 2.2 2 4.1 3 5.8 3 3.2 0 6.8-3.7 9.9-7.2-1.2-.9-3.1-2.1-4.2-2.8-2.6-1.6-4.9-3-6.2-4.8-1.4-1.9-4.9-6.5-2.8-10.7.5-1 2.2-3.5 6.1-3.5 4 0 9 2.7 11.1 4.1 2.4 1.6 5.7 2.3 9.2 3 3.6.8 7.2 1.5 10.7 3.3 1.8.9 3.3 2.1 4.7 3.1 1 .7 2.7 2 3.4 2.2.1-.1.3-.2.5-.5 2.9-3 6.8-4.5 12.2-4.5 2.5 0 4.9.3 7.1.5 1.8.2 3.5.4 4.8.4 2-.1 4.6-.4 7.4-.7 3.5-.4 7-.9 10.4-.9 2.8 0 5.2.3 7.2 1 3.6 1.1 5.3 4 6.5 5.8.3.4.7 1 .9 1.3 2.3-.4 4.4-.6 6.3-.6 6.2 0 11.3 2 15.1 6.1 2.2.9 4.3 2 6.4 3l.8.4.5.6c1.1-.4 3.2-2.4 4.3-3.5.8-.7 1.6-1.5 2.3-2.1 5-4 11.2-4.4 16.1-4.7l1.5-.1c3.7-.3 7.2-2 10.8-3.8 4.3-2.1 8.6-4.2 13.7-4.2 2.2 0 4.4.4 6.5 1.3 2.4.9 3.5.9 3.8.9.4-.5 1.1-2.1 1.5-3.2 1.4-3.7 3.5-9.2 9.6-12.5 4.1-2.2 9.3-2.8 14.4-3.4 4.6-.5 9.8-1.1 11.9-3 1.1-1.4 2-3 2.6-4.7l.6-1.7 1.1-.7c.1-1.1-.5-3.7-.7-4.9-.4-1.5-.7-3-.7-4.4-.2-4.6 2.2-7.6 3.9-9.5l.3-.5c-1-.2-2.6-.3-4.7-.3s-4 .1-5.2.2H663c-1.8.1-3.7.3-5.6.5-2.44.3-5 .5-7.54.5-6.8 0-12-2.3-15.8-6.9-4-5-14.4-12.5-19.7-13.6-4.2.2-7.4-2.1-8.6-6l-.8-2.6 1.8-2.1c2.3-2.7 5.4-4.4 8.9-5 1.5-.6 3-1 4.6-1 2.3 0 4.2.7 5.9 1.2 1.1.4 2.2.7 2.9.7.2 0 .3 0 .4-.1 3.14-1.3 6.7-3.6 8.2-5.3 3.24-3.7 2.8-11.2.1-15.5l-1.74-2.8 1.9-2.7c2.7-3.8 6.7-6 11.6-6.3.6-.1 1.1-.2 1.7-.2 2.9 0 5.1 1.2 6.7 2 1.2.6 1.8 1 2.4 1 .2 0 .5 0 .8-.1 4.1-1.3 7.4-3.5 8.8-6 0-.2-.1-.4-.2-.7-.6-1.9-2-6.5 3.3-10.9 2.1-1.8 4.5-3 6.55-4.1 1.2-.6 2.3-1.2 3.36-1.9 9-5.8 18.08-12.4 20.6-22.3l.97-4c1.7-7.3 3.8-16.3 10.3-22.5.9-2.6 1.7-5.3 2.5-7.9l.1-.6.2-.4c1.5-3.9 1.4-24.6-1.2-28.9l-.8-.3-.86-1.3c-1.1-1.5-2.3-3-3.5-4.4-5.5-4-9.7-9.7-13.8-15.2-4.8-6.4-9.3-12.4-14.8-14.8-8.1-3.5-16.5-3.6-25.3-3.7-7.1-.1-14.4-.2-21.9-2-.4.2-.8.5-1.1.8l-1.5 1.3h-1c-.4.7-.9 2-1.3 2.8-.5 1.1-1 2.2-1.6 3.2.6 1.1 1 3.2-.6 5.7l-1.1 1.8-2 .4c-1.4 2.1-3.6 3.3-6.3 3.3-6 0-13.3-6.8-21.7-15-.9-.9-2-2-2.7-2.6l-4.7-3.5-.5-1.1c-4.6-9.6 9.9-17.7 18.5-22.5.9-.5 1.6-.9 2.1-1.2 8.3-5 10.8-13.5 6.4-22-2.3-4.5-3.3-9.6-4.3-14.5-1.2-6-2.4-11.7-5.8-14.8l-1.6-1.4c-7.7-6.7-19.2-16.9-23-26.3-1.4-3-1.1-5.3-.55-6.8.5-1.4 1.7-3.4 4.5-4.7l2.4-1.1 2.2 1.3c2.7 1.6 5 3.6 6.8 6.2.7 1 2.1 1.3 4.9 1.8 1.5.3 3.2.6 4.9 1.3-.3-1-.7-2-1-2.9-1.2-2.9-3-5.7-4.8-8.6-2.1-3.3-4.2-6.8-5.8-10.7-2.7-6.5-6.1-16.3-5-25.7.2-2 1.2-4 2-6 .5-1 1.2-2.7 1.5-3.6l-1.1-.7c-2.5-1.6-7.5-4.9-5.9-10.6.2-1 .5-1.8.8-2.6.2-.6.4-1.4.5-1.8-.1-.2-.5-.7-1.3-1.5-5.4-5.2-7.4-12.1-9.4-18.7-1.5-5.1-2.9-10-5.8-13.7-5.3-6.8-11.8-10.7-18.7-14.9-5.3-3.2-10.9-6.6-16.1-11.4l-1.3-1c-3.6-2.7-8.9-6.7-7.7-12.1l.4-1.5.3-.3-.9-1c-1.8-2.1-3.9-4.4-4.9-7.3-2.5-8.2-2.6-17.1-2.6-25.7 0-4.4 0-8.6-.4-12.5-.1-1.6-.8-2.6-2-4.6-.9-1.4-1.9-2.9-2.7-4.9-2.1-5.4-.6-9.1.4-11.5l.2-.4-1.3-.9-.3-2.3c-.1-.9-.2-1.7-.2-2.6-1.3-3-1.9-6.1-1.8-9.4v-.9l.8-1.2c.6-.8.9-1.7 1.1-2.6l-.5-1.9c-.7-2.4-1.6-5.4-.6-9.5 2.8-11.9 2-19.5-2.3-23.8-3.3-3.3-4.2-6.3-5.1-9-.4-1.1-.7-2.1-1.2-3.2-.3-.4-1.5-1.1-2.3-1.5-1.7-1-3.5-2-5-3.8-5.2-6.1-8.6-15.5-10.5-22.2-.7-2.4-1.5-4.9-2.3-5.8-.6-.7-2.3-1.2-4.7-2.1-.9-.3-1.8-.7-2.9-1.1-6.6-2.5-11.3-7.6-15.8-12.5-2.6-2.8-5-5.4-7.5-7.3-3.1-2.3-5.3-3.4-6.7-3.4-1.6 0-3.9 2-7.1 4.8l-1.6 1.4c-2.8 2.5-9.9 3.8-13.9 3.8-4.8 0-7.3-1.6-8.5-3.5-.8-.5-1.5-1-2.3-1.4l-1-.5c-.7-.2-1.8-.6-2.7-.9-8.9-2.9-14.7-5.2-15.4-10.3-.2-1.2-.2-4.3 3.4-6.6 4.1-2.7 8.1-3 11.3-3.2 3.8-.2 5-.4 6.6-2.9 3.1-4.9 11.8-11.3 18.2-12.3.5-.1 1.1-.1 1.6-.1 3.1 0 5.4 1.2 7.3 2.2 1.1.5 2.1 1 2.7 1.1h.4c3.6 0 8.7-2.2 9.7-3.5v-.1c-.7-1.1-2-2.2-3.3-3.4-2.3-1.9-5.1-4.3-6.5-8-1.6-3.9-.3-7.1.6-9.2l.2-.6c-5.4-3.4-4.5-7.2-3.4-9.2 1.4-2.7 4.1-4.3 7.2-4.3 2.1 0 4 .6 5.4 1.1.3.1.6.2.8.2 1.6-.1 5.7-3.2 7.8-4.7 2.1-1.6 4.2-3.2 6.1-4.1 1.8-.8 3.7-6 5-9.3 1.1-2.9 2.2-5.6 3.6-7.8 2.9-4.7 7-7.7 10.6-10.3 2.8-2.1 5.4-4 7.3-6.5 3.3-4.2 5.9-8.8 8.7-13.7 1.1-2 2.3-4 3.4-6 2.7-4.4 4.1-8.7 5.6-13.2 1.1-3.2 2.2-6.5 3.8-10.1 4.2-9.4 11.4-16.6 18.3-23.5l1.3-1.3c6.3-6.4 7-11.2 2.9-19.2-3.3-6.3-8.4-13.1-10.7-14.2-3.2 1.2-7 1.8-11.3 1.8-12.2 0-27.6-4.9-36.7-9.4-1.5-.8-3-1.1-4.7-1.1-1.7 0-3.5.3-5.4.6-2.1.3-4.3.7-6.6.7-3.2 0-6.1-.7-8.7-2.2-2.3-1.3-4.3-2.8-6.2-4.3-3.7-2.9-6.1-4.7-9.4-4.7-2 0-3.1.6-4.8 1.6-2.2 1.3-5.4 3.2-10.5 2.8-.5-.1-1.1-.1-1.6-.1-3.9 0-6.8 1.2-11.1 3.1l-1.7.7c-2.5 1-4.9 1.5-7.4 1.5-2.6 0-4.9-.6-6.9-1-1.9-.5-3.6-.9-5.7-.9h-.3c-5.4 0-7-3.2-7.4-4.6-1.2-4 1.7-7.6 4.4-10.4 2.1-2.1 4.6-4.1 5.7-4.9 1.5-1 3.1-2 4.8-3.1 4.2-2.7 8.9-5.8 12.8-9.2-3.2 1.4-7.4 2.5-11.1 2.5-6.9 0-9.9-3.5-11-5.6-1.1-1.9-1.2-4-.4-5.9 1.4-3.7 5.7-5.2 8-5.9l.5-.2c.7-.3.7-.3 1.2-2.1.3-.9.6-2 1.1-3.3 1.5-3.3 6.1-6.6 15.3-12.5l2.5-1.5c3.7-2.5 7.7-4.2 11.5-5.9 4.3-1.9 8.3-3.6 11.8-6.5 7.6-6.3 14-10.7 23.8-15 5.3-2.3 10.4-7 12.8-11.8-1.5-.7-3.4-2.1-4.2-4.6-.6-2.1-.3-4.4 1.1-6.8.9-1.6 2.5-3.3 4.3-5.2 1.1-1.1 2.8-3.1 4-4.6-1-.4-2-.7-2.8-.9-2.3-.7-3.6-1.1-4.5-1.5-1.3-.6-4-1.4-6.2-1.6.2 1.9-.5 3.3-1.1 4-.7.9-2.3 2.5-5.2 2.5-2.4 0-5.7-1-10.9-3.4l-1.9-.8-.6-.9h-.9c-2.4 0-6 .9-9.4 1.8-4.1 1-7.9 1.9-11.2 1.9-1.5 0-2.8-.2-3.9-.6-2.1-.7-3.4-1.3-4.4-1.6-1.5-.6-1.5-.6-2.4-.6-.6 0-1.5 0-2.8.1-1 0-2.3.3-3.7.5-2.1.4-4.5.8-7 .8-3 0-5.5-.7-7.7-2l-1-.7c-.9.3-1.8.4-2.4.4-4 0-6.6-2.7-8.8-4.8-.5-.5-1.1-1.2-1.6-1.6-2.1 1.5-4.2 2.3-6.3 2.3-4.9 0-7.7-3.8-10-6.8-2.3-3.1-3.9-5-6.3-5.3l-.8-.1-.7-.4c-2.6-1.3-6.5.4-8.7 3.5-.8 1.1-2 3.3-1.1 5.6 1.6 4.3-1.4 8.2-4.8 12.7-2 2.5-5.2 6.7-5.2 8.8l.4.8c.9 1.6 2.4 4.4.8 7.5-1.1 2.1-3.2 3.3-6.2 3.5l-.9.02c-1.8 0-3.8-.4-6.1-.8-1.7-.3-3.6-.7-5.1-.8.3 1.4.9 3.1 1.2 4 .4 1.2.7 2.2.9 3.1.9 4.1 1.9 11.5-1.1 15.3-1.3 1.6-3.1 2.5-5.2 2.5-1.7 0-3.5-.7-5.3-2l-.4-.3-.2-.1-.2 1v.4c.6.5 2.7 1.2 3.8 1.6.6.2 1.2.3 1.8.5 9 3.2 8.7 9.5 8.4 11.3-.8 5-6 9.4-11.1 9.4-2.7 0-4.9-1.2-6.4-3.2-.5.4-1.1.9-1.7 1.3-.2.8-.6 1.6-1.2 2.4-1.1 1.3-2.7 2.1-4.5 2.1-3.1 0-5.8-2.2-9.7-6.2l-.3-.4c-.7-.7-2.7-2.8-3.5-2.8-.1 0-.8.1-2.3 1-3.6 2.2-3.8 4.9-3.8 10.3 0 4.5 0 10.1-4 14.9.1 1.5.8 4.7 1.3 6.5 1.2 5.1 2 8.6-.1 11.2-1 1.3-2.6 2.1-4.3 2.1-.3 0-.5-.1-.8-.1l-1.3-.2-4.3-3.3c-.5 2.8 0 8.1.2 10.1.2 2.4.4 4.4.3 5.9-.1.7-.2 1.9-.2 2.8h1.6l.9-.1c6.3 0 7.8 4.1 8.1 5.4 1.4 5.8-5.1 11.9-8.1 13.5-3.6 1.8-9.1 3.8-14 3.8-1.6 0-3.1-.2-4.5-.6-6-1.9-5.5-8.2-5.3-10.5l.1-1.4c-4.8-3.3-5.1-8-3.8-12.6h-.2c-1.7 0-4.3-.7-6.6-3.8l-1-1.3v-1c0-5 1.4-9.3 2.7-13.1 2-6.1 2.9-9.5.2-14.3-.6-1-1-2.07-1.4-3.2-.2-.67-.6-1.6-1-2.3-.9.2-2 .6-2.7 1-.2 4-1.47 14-5.4 18.3-1.9 2.1-4 2.5-5.4 2.5-2.6 0-4.9-1.4-6.8-4.08-.2-.3-.4-.5-.5-.8l-.1.3-.1.4-2.3 6.6H208c-2.9 0-4.8-1.5-6-3.2.2.5.5 1.1.8 1.6l.4.6.2.7c.8 2.7 2 4.8 4.2 6.7.8.6 1.8.8 3.4 1 2.1.3 5.3.7 7.3 3.6 2 2.9 1.4 6.3.6 9.1-1 3.7 1.4 8.3 3.8 12.7l1 2h1.4c1.7.2 2.8.9 3.6 1.6l7.5-4.1 1.9 5.5.1.1c.98-.3 2-.4 3.3-.4 3 0 8.2 1.1 10.1 4.3.8 1.3 1 2.8.6 4.2l.5-.7.1-.1c2.9-3.9 6.1-4.8 8.3-4.8 2.5 0 4.8 1 6.6 2.9 2.3 2.4 3.5 6.1 3.2 9.8-.2 3.7-3.7 5.6-8.9 8.4l-1.3.8c1.3 2.8 2 6.6-1.7 8.6-1.4.8-2.9 1.1-4.5 1.1-.6 0-1.1 0-1.6-.1-.6.9-1.2 2-1.8 3.1-.7 1.3-1.5 2.7-2.43 4.1 1.9.4 4.9 1.5 5.7 4.6 1 3.7-1.9 6.1-3.7 7.7l-1.4 1.2c-5.5 5.1-8.9 6.7-14.8 6.7-.9 0-2-.1-3.1-.1l-2.8-.1h-3c-1.8 0-3.3 0-4.5.1 1.33.8 2.8 1.5 3.7 2l2.32 1.2c4 2.2 6.2 7 5.1 11-.8 3.3-3.6 5.4-7.1 5.4-1.1 0-2.3-.2-3.5-.6-3.2-1.1-5.1-2.4-6.4-3.3l-.9-.68c-.3 0-1.1.1-3 .8l-.6.2c-1.1.42-4 1.5-5.1 2.42.2.1.3.2.4.3 2.4 1.7 6 4.2 5.4 8.3-.1.5-.3 1.4-.8 2.3l.3.2c1.2 1.2 2.2 2.1 2.8 3.3 2.8 5.5-1.2 9.9-3.1 12.1-.5.5-1.2 1.4-1.4 1.8-.9 3.2-4 4.4-7.7 5.8l-1.1.4h.8c2.8 0 6.1-1.1 9.4-2.2 3.6-1.18 7.3-2.38 10.7-2.38 2.4 0 4.6.6 6.4 1.7l.8.5.5.6c.2.3.5.6.7 1 3.2-1 8.9-4.5 10.1-6 .6-.7.9-1.2 1.1-1.5l-.7-1c-1.8-2.2-2.1-5-.8-7.5 1.9-3.9 6.7-6.2 10.4-6.2 2.6 0 4.7 1.1 6.1 3 .5.7.9 1.3 1.2 1.9.5-.1 1.2-.1 1.9-.1 2.8 0 4.9.9 6.3 2.7.7 1 1.8 3.1.9 6.2-1.5 5.3-5.5 7.2-8 8.4-1.2.6-2 1-2.4 1.4v.8c.1 1.7.3 5.2-3 8.1l-.5.4c-2.1 1.4-4.3 2.6-6.7 3.6-.4.9-.9 2.5-1.2 3.5-.6 1.6-1 3-1.5 4.1 1.6.3 3 1.2 4 2.5 2.1 2.6 2.5 6.7 1.1 13.1-.9 4.2-4.6 7.7-8.5 11.4-6.5 6.3-8.1 8.6-6.8 10.2 5.1 6.2 3.1 10.2.5 13.3-.9 1.1-1.4 1.7-1.6 3.1 0 .2.4.9.6 1.3 1.1 1.9 2.9 5.1 1.5 10-1.7 5.7-4.8 10-7.8 14.2-2.7 3.8-5.2 7.4-6.3 11.4-2 8.2-4.6 12.4-9.5 18.6-2 2.5-2.8 4.9-2.8 5.7.3.2 1 .3 2.2.3 4.1 0 9-1.9 10.3-2.9.5-.8.8-3.7 1-5.4.5-4.1.9-8.6 3.6-12.2 2.5-3.4 4.1-7 5.7-12.4 2-7.1 4.7-12.9 11.2-18.5 4.5-3.8 5-5.8 4.4-8.3l-.1-.5v-.5c-.1-1-.2-4 2-6.2 1.2-1.2 2.8-1.9 4.5-1.9 3.1 0 5.9 2 8.9 4.5l.3.3 1 .1c2.6.1 6.1.3 8.2 3.1 1.1 1.6 1.5 3.6.9 5.5-.4 1.7-1.4 2.9-2.3 3.8 1.8 3.2 4.8 5.3 8.1 7.8 2.8 2 5.6 4.1 8.1 7l1.5 1.7c5.7 6.6 10.7 12.2 10.6 23 0 1.4 0 2.6.1 3.6.2 9.1-1.1 11.2-10.6 17.3-3.6 2.3-6 6.8-8.6 11.5-2.2 4-4.5 8.2-7.9 11.6-4.4 4.5-7.8 9.2-11.4 14.2-1.9 2.6-3.9 5.3-6 8-2.7 3.4-6.5 3.4-7.7 3.4h-2c-.1.3-.3.9-.4 1.8-.6 4.24-.1 10 1.8 12.3l.4.4.3.46c.5.9 1.1 1.9 1.7 2.9.7 1 1.3 2.1 2 3.2.4-1 1-2 1.7-2.9 2-2.6 5-4 8.4-4 3.5 0 7.4 1.57 11.9 4.7 1.7 1.1 3.4 3.6 7 8.4 2.3 3.2 7.1 9.9 10.4 13.1.1-.93.1-2 .1-2.8.2-5 .5-14.4 8.9-14.4 1 0 2.1.1 3.2.5 4.6 1.4 7.9 4.7 10.8 7.7 2.5 2.6 4.9 5.1 7.7 5.8.7.2 1.4.3 2.2.3 3.1 0 6.6-1.8 10.4-3.7 4.8-2.5 10.4-5.3 16.8-4.9h.6c1.8 0 1.9-.1 2.9-2.3 1.2-2.7 3.5-7.7 10.9-7.7.5 0 1.1 0 1.6.1.8 0 1.7.1 2.6.1h1.8c3.3 0 8.8 0 13.1 3.6 1.7 1.4 2.6 3.3 2.8 5.4.2 4.5-3.4 8.2-6.2 11.2-.6.6-1.4 1.5-1.7 1.8-2.8 4.3-6 8.2-9.1 11.9-4.4 5.3-8.5 10.3-11.2 16.2-1.3 2.7-3 4.9-4.6 7.1-4 5.4-4.5 6.8-2.9 9 4.4 6.3 5.7 13.6 7 20.7 1.1 6.5 2.2 12.6 5.6 16.6.3.4.9.9 1.4 1.5 2.1 2.1 5.1 5 5 9.1 0 1.6-.5 3.9-2.8 6.2 0 .2-.1.9.4 2.4 1.3-1.6 2.7-3.4 3.8-4.8 4.1-5.3 5.6-7.2 7.1-8.1.9-.6 1.9-.9 2.9-.9 3.3 0 4.9 2.6 6.1 4.7 0-.1.1-.1.2-.2l.3-.4.4-.3c1.7-1.2 3.3-1.5 4.3-1.5 2.9 0 6.7 1.7 8.4 10 1.6 8.1-2.5 11.6-5.8 14.3-.7.6-1.5 1.2-2.2 1.9l-.4.4c-.1.4.4 1.8.8 2.6.9 2.4 2.3 5.9.6 9.7-2.4 5.3-8.3 5.4-11.8 5.5-1 0-2.5.06-3.1.2-2.3 1.8-4.4 6.9-4 11 .3 2.7 1.6 3.3 2.1 3.5 3.5 1.5 4.4 4.16 4.7 5.6 1 5.1-3.4 9.56-8.5 14.7-2.1 2.2-5.6 5.7-6.1 7.2.1 1 .4 2.4.7 3.7 1 3.8 2.2 8.6-.1 12.9-2 3.9-6.1 4.9-9.4 5.7l-2.5.7.4 1c2.9 5.7 5.1 10.7 3.1 14.6-.9 1.9-2.7 3.1-4.7 3.5-.4.1-.9.1-1.4.1-5.8 0-10-5.7-12.5-9.1l-.7-1c-2.9-3.8-4.9-4.1-6.6-4.1-1.7 0-3.7.4-6 1-3.2.7-6.9 1.5-11.2 1.5h-.5c-5.1-.1-8.7-2.8-11.3-4.7-1.1-.8-2.1-1.6-3-1.9-.7.4-1.7 1.2-2.4 1.7-2 1.5-4 2.9-5.8 3.5-2 .7-8.8 2.6-13.6 2.6-5.1 0-7.1-2.2-8-4.1-1.2-2.8-.2-5.4 1-7.2-4.7-.2-6.9-2.1-9.5-7.9-1.3-2.7-1.8-5-2.1-6.6-.7-2.9-.7-2.9-4.4-4-.8-.2-1.6-.3-2.2-.3-1.9 0-3 1-5.6 3.8-1.8 1.9-3.8 4-6.6 5.6-.5.35-1 .6-1.6.75 3 3.1 4.9 6.6 7 10.6 1 2 2.3 4 3.6 5.98 3.5 5.5 7.2 11.1 5.8 17.7-1 4.5-4.1 8.3-9.6 11.8-3.3 2.1-7.6 3.6-12.2 5.1-5.9 2.1-12 4.1-15.3 7.4 1.3-.2 2.5-.5 3.1-.7 1.1-.3 2.14-.5 3.2-.5 2.15 0 3.8.7 5.05 1.2l.1-.1c3.7-5.9 13.5-8.9 21.2-8.9 5.9 0 10.4 1.7 13.2 4.9 5.1 5.9 2.6 11.3 1.3 14.2-.5 1.1-1 2.2-.9 2.7.1 1.3.6 2.5 1.2 3.9 1.4 3.3 3.3 7.8.2 13.7-.4.8-.8 1.5-1.2 2.2-2.4 4.5-3.6 6.7-2.7 10.9 1.4 7.1 0 11.4-1.4 15.6-.6 1.7-1.2 3.5-1.7 5.7l-.1.4-.15.4c-1.3 3.2-2.8 6.4-4.6 9.4-3.6 10.6-12.2 12.8-19.2 14.5-3.6.9-7 1.8-9.3 3.6l-.5.4-.5.2c-1.8.9-3.7 1.8-5.4 2.9-1.4 1.3-3.6 2.5-7.1 2.5-1.9 0-3.6-.3-5.1-.6-.8-.2-1.6-.3-2.1-.3l-.7-.1c-.4.6-1 1.4-1.8 2.2-1.1 1-2.6 1.55-4.1 1.55-1.1 0-2-.3-2.8-.6l-.1.1-.3.4-.4.4c-2.5 2.1-9 6.8-16.3 6.8-1.7 0-3.3-.2-4.9-.8l-2.9-1.1-1.9-.7c-.4.3-.8.7-1.2 1.1l-1.5 1.4c-3 2.9-7.3 3.9-10.8 4.7l-1.8.4c3.3 2.1 6.9 4.9 7.1 9.4.4 8.5-.8 11.4-9 14.5h-.2c5.4 1.1 7.5 7 8.7 10.4.3.8.6 1.7.8 2.2.7 1.4 1.2 1.7 1.2 1.7.8 0 2.2-.6 3.5-1.1 1.6-.6 3.4-1.3 5.4-1.7 2.4-.4 4.3-.5 5.9-.6 3.7-.2 4.1-.2 6.5-3.8 1.9-2.9 5.4-4.4 10.3-4.4 4 0 8.4.9 11.1 1.5l.96.2c6.2 1.4 9 5.6 10.8 8.4 1.4 2.2 2 3 3.1 3.3.6.2 1.6.3 2.5.5 3.4.4 12.3 1.5 11.8 10.6-.2 4.7-4.8 5.2-8.6 5.5-1.3.1-3.9.4-5.7.8l.2.2c.3.4 1.2.5 2.6.5 1 0 2.2-.1 3.4-.2 1.3-.1 2.7-.2 4.1-.2 2.4 0 4.3.3 5.9 1l.3.1c.3-.2.9-.7 1.2-1.1 1.6-1.6 4.4-4.2 8.8-4.2.8 0 1.5 0 2.3.2 10 2 11.7 9.5 13 15.1.4 1.6.8 3.2 1.3 4.6.7 1.8 2.4 3.4 4.3 5.1 2.2 2.1 4.8 4.5 6.4 7.9 3.1 6.4 8.8 7.7 13.1 7.7 5 0 10.4-1.9 14.8-5.2l.7-.5c6.9-5.2 12.3-9.3 21.7-9.3 1.4 0 2.9.1 4.4.3 2.5.3 5.2-.7 8.2-1.8 3.2-1.2 6.8-2.5 10.8-2.5.8 0 1.5 0 2.3.1l4 .5.3 4.1c1 12.22-7.3 14.9-12.3 16.5-2.1.7-4.1 1.3-5.3 2.4-2 1.7-4.4 3.22-6.6 4.8-4.5 3-9.1 6.1-10.5 9.7-.3.6-.5 2.1-.7 3.3-.9 5-2.2 12.5-9.2 14.1-.9.2-1.8.3-2.8.3-2.2 0-4.3-.5-6.2-1-1.6-.4-3.1-.8-4.2-.7l-3.3.3c-2 .2-4.2.5-6.4.5s-4.1-.3-6-.8c-4-1.1-6.3-3.3-8.1-5-.9-.9-1.7-1.6-2.7-2.3-.6-.3-2.5-.5-3.6-.6-1.7-.2-3.5-.3-5.1-.9-10.5-3.4-18.1-5.6-28.3-6-1.5 0-3-.2-4.6-.4-2.1-.2-4.2-.5-6.2-.5-2.5 0-4.2.4-4.9 1.2-1.2 1.4-1.4 3.1-1.7 5.7-.4 3.3-.9 7.3-4.3 10.6s-8.6 7.1-14.5 7.1c-1.7 0-3.4-.3-4.9-1l-1.6-.7c-.9-.5-3.1-1.6-4.8-2.16-.4 1.4-.8 3.1-1.2 4.8-1.8 7.9-3.9 16.8-8 21.4-1.5 1.7-12.2 11.8-17.8 12.7-.9.1-1.6 1-3 3-2.1 2.85-5.1 7.2-11.7 7.2-.8 0-1.7 0-2.6-.2-2.3-.4-3.1.2-6.6 3.2l-1.9 1.7c-1 .8-1.5 1.9-2.2 3.8-1.2 3-3 7.5-8.8 9.5-3.5 1.2-8.3 6.3-11.9 10l-2.8 2.8-.4.4-.4.3c-2.1 1.4-4.3 2.7-6.6 3.8-2.75 2.9-6.3 4.3-10.65 4.3-2.6 0-5.2-.5-7.4-1-1-.2-1.9-.4-2.7-.5-.5 0-1-.1-1.5-.1-4.02 0-9 1.6-11 3.5-.9 2.1-1.7 4.2-2.4 6.3h.8c2.3-.25 2.3-.25 3.8-2.4l1.7-2.3c1.6-2.1 4-3.2 6.8-3.2 7 0 16.2 7.3 20.1 13.8 2.8 4.6 2.7 8.16 2.1 10.5zM252.1 434c-2 .93-5.28 4.57-5.37 6.12.06 1.2.07 2.6.07 4.26 0 5.1.05 16.86 3.68 19.33 1.84 0 5.85-1.9 7.42-4.2.28-.4.45-.8.4-.9-1.25-3.1-1.23-7.1-1.2-11.4.02-3.8.06-10.8-1.83-11.5-.93-.3-2.12-.9-3.18-1.6zm-78.56-30.25c3.02 0 5.8 1.63 7.65 4.47 2.3 3.63 2.9 8.58 1.3 12.04-.3.64-.7 1.3-1.3 2.08l.6-.1c1.8-.24 4.8-.65 5.7-1.1 3.2-1.76 3.5-3.73 4.1-6.98.7-4.12 1.8-10.32 10.6-12.6 1.5-1.4 4.2-6.96 5.4-9.4.6-1.28 1.2-2.4 1.7-3.33-3 3.75-6.6 7.08-11.2 7.08H197c-2.9-.3-4.4-2.1-5.2-3.9-2.2 1.7-4.8 3.6-8 3.6-1.7 0-3.3-.5-4.6-1.5-1.23.2-3 .8-3.93 1.1-1.25 1.4-3.4 5.4-5.2 9.3l.5-.2c.9-.3 1.83-.4 2.75-.4zm72.36-66.4c-1.07.9-2.4 1.9-3.86 2.87 1.34-.6 2.64-1.3 3.9-2.1l-.02-.3-.02-.47zm5.27-10.6c.03.25.05.5.06.76l.62-.3-.68-.4zm-1.84-94l-2.84 2.12-.5.22c-.7.4-1.9 1.7-2.8 3.1 2.1-1.2 4.2-3.3 6.1-5.5zm1.86-30.3l.2.17c4.6 2.6 4.2 7.63 4 10.33l-.1.34c2.9-.1 6.7-1.5 9.1-2.7l.2-.2c-2-.3-4.2-1-5.8-2.8-2.7-3-2.4-6.9-2.1-10.8 0-.7-.1-2.6-.3-4.2l-.2-2.4-1.8 3.3c-1.2 2.1-4 7.2-3.5 8.7zm-98.5 19.06l-1.8-1.4c-.8-.4-1.6-1-2.1-1.7-.4-.1-1.1-.3-1.6-.5-2.1-.5-5.1-1.4-7.1-4.5-2.8-4.2-2.9-11.1-.4-21.1 1.1-4.3 2.8-8.3 4.4-12.2 2-4.8 3.9-9.3 4.5-13.8.1-.9 0-3.3-.1-5.4-.5-9.6-.5-17.3 3.4-21.4 2-2.2 5-3 8.1-2.2.6.2 1.2.3 1.7.3 1.1 0 1.8-.5 3.7-2.2 1.8-1.5 4-3.5 7.4-4.6 1.6-.5 3-.8 4.4-.8 1.6 0 2.9.4 3.9 1-.6-4.9 2.5-9.6 4.6-11.7l.4-.4c4.2-4.5 4.3-4.5 2.9-8.6-.1-.3-.6-1.2-.9-1.8-1.4-2.5-3.1-5.5-2.4-8.9.5-2.7 2.4-4.3 3.6-5.1-.1-.4-.3-.8-.4-1.2-.6-1.6-1.2-3.5-1.1-5.8.2-5.3 3.1-9.5 5.6-12.6 6-7.4 13-8.5 19.2-9.5 2.8-.4 5.5-.8 8.2-1.9 6.2-2.3 12.4-5.8 18.4-9.2l4.3-2.4c.5-.3 1.2-.7 2-1.2 5.5-3.5 11.4-6.8 16.7-6.8 4.5 0 7.8 2.4 9.3 6.6 5.1 14.9-15.6 37.5-16.5 38.4-.9 1.1-1.8 1.9-2.6 2.7-2.2 2.2-3.2 3.2-4 6-.4 1.4-.5 3-.7 4.7-.4 4.9-1.1 11.6-8.2 15.3-1.1.6-1.8 1.4-2.8 2.4-2.1 2.1-4.9 5-10.4 5h-2.7c-3.4 0-5.3.9-5.7 2.7-.1.7-.1 1.1 0 1.9.3 3.2-.1 6.9-5.8 9.2-2 .9-4.1 1.3-6.6 1.3-1.9 0-3.7-.2-5.5-.5-.6-.1-1.2-.2-1.8-.2h-.7c-.7 0-1.7.1-2.6.1-1.2.1-2.4.2-3.6.2-2.5 0-4.1-.3-5.4-1-.3-.1-.6-.3-.9-.5.2 2.2-.1 4.5-.3 6.6l-.1.9c-.8 6.5-2.9 10.5-5.2 14.7-.7 1.3-1.5 2.7-2.2 4.3-.7 1.4-1.3 2.9-1.9 4.5-1.8 4.6-3.9 9.9-8.3 13.7-.5.4-.7.7-.5 3.5.1.9.2 1.9.1 3 0 4.4-2.4 7.4-4.1 9.6-1.2 1.6-1.9 2.6-2.1 3.7-.1.5 0 1.8 0 2.8.2 6.8.4 15.3-6.1 16.5l-2.2.4zm-4.2-13.7c.3.2 1 .4 1.5.5l1 .3c0-1.4-.1-2.8-.1-3.7-.1-2.3-.1-3.5.1-4.6.5-3.6 2.5-6.1 4.1-8.2 1.3-1.7 2-2.7 2-3.7 0-.6-.1-1.3-.1-2.1-.2-3.1-.6-7.9 3.9-11.7 2.6-2.1 4-5.8 5.5-9.7.6-1.7 1.3-3.5 2.2-5.2.8-1.7 1.7-3.3 2.4-4.7 2-3.8 3.5-6.6 4.1-11.1l.1-1c.1-.6.2-1.4.2-2.2-1.2.6-2.2 1.4-3.3 2.4-2.3 2-5.3 4.7-10.4 4.7-.9 0-1.9-.1-2.9-.3-.8 3-.5 10.2-.4 13.2.1 3.1.2 5.5 0 7.2-.7 5.9-3 11.3-5.2 16.5-1.6 3.7-3.1 7.3-4 10.9-2.4 9.3-1.3 12.4-1 13zm49.6-79.2c.7 0 1.3.1 1.8.1l2 .3c1.5.2 2.9.4 4.1.4.9 0 1.7-.1 2.3-.3-.1-1.1-.1-2.5.3-4.3 1.5-6.5 7.3-10.4 15.5-10.4.7 0 1.4.1 2.1.1.1.1.3.1.5.1 1.2 0 1.5-.2 3.2-1.9 1.3-1.3 2.9-2.9 5.3-4.2 2-1.1 2.4-2.5 2.9-7.4.2-1.9.4-4.1.9-6.2 1.4-5.6 4.1-8.1 6.6-10.6l2.2-2.2c8.2-8.9 16.1-22.6 14.4-28.2-2.9.1-8.8 3.7-11.3 5.3-1 .6-1.8 1.1-2.5 1.5l-4.3 2.4c-6.3 3.6-12.8 7.3-19.8 9.9-3.7 1.4-7.2 1.9-10.2 2.4-5.5.9-9.4 1.5-13 5.9-2.3 2.9-3.3 4.9-3.4 6.8-.1.4.3 1.4.5 2.1.6 1.9 1.5 4.6.8 7.4-.6 2.4-2.2 3.7-3.3 4.6.2.6.6 1.3.9 1.7.6 1.1 1.2 2.3 1.6 3.4 3.3 9.8-.5 13.8-5.3 18.8l-.4.4c-.8.9-1.5 2-1.7 2.9h.3c.9 0 2 0 3.1-.1s2.2-.1 3.1-.1zm300.5-64c-2.6 0-5-1.3-6.8-2.7-.8-.3-1.3-.9-1.8-1.5l-.4-.5-.7-.9-.6-.8-1-1.2c-1.8 2-4.2 3.1-7 3.1-5.8 0-12.1-4.7-13.4-9.9l-.3-1.2c-.8-3.3-1.1-4.3-2.8-5.4-1.9-1.2-2.9-3.3-2.8-5.4.2-4.2 4.6-6.7 8.5-8.7l-.3-.9c-.6-2-1.3-4.6-.7-7.3l.6-2.8c.9-4.1 1.9-8.9 4.6-12.8 2.2-3.2 5-4.9 8.4-4.9 1.6 0 3.2.4 4.5.8.8.2 1.7.4 2.4.5 0 0 .1 0 .1.1.6-1.9 2-5 6.4-5.9.7-.2 1.5-.3 2.2-.3 6.5 0 13.3 5.9 13.9 12.1.9 8.4-5.6 10.4-8 11.2-.5.2-1.2.4-1.6.6-.4 1.1-.7 2.9-.7 4.3l.1.1c9.4 2.6 17.9 5.6 19.2 12.3.5 2.5 0 6.3-5 10.1-1.5 1.1-3.2 2.1-4.8 3-4.4 2.4-6.2 3.7-6.1 5.5.3 3.4-.3 6-2 7.8-1.3 1.4-3 2.2-5 2.2zm-11.2-18.5c4.1 0 6.9 3.2 8.5 5.3 1.4-5.8 7-8.8 10.9-11 1.4-.7 2.7-1.4 3.6-2.1l.6-.5c-1.7-1.2-5.5-2.6-11.5-4.3l-2.5-.7c-1.2-.4-3.5-1.5-4.4-4.8-1.2-4.2.1-12 2.4-14.7 2-2.3 4.5-3.1 6.4-3.7l1-.3V9c-.1-.9-1.8-2.57-3.4-3-.6 2.04-2.3 6.1-8.5 6.1-.7 0-1.4-.03-2.1-.1-1.5-.2-2.8-.55-3.9-.8-.7-.2-1.4-.4-1.8-.4-.1.1-.2.2-.4.43-1.6 2.33-2.4 5.86-3.1 9.27-.2 1-.4 2-.7 2.93 0 .43.3 1.7.5 2.4.7 2.7 2.1 7.7-2.1 10.9-.5.4-1.1.7-2.1 1.2l-1.6.8c1.9 2.6 2.5 5.4 3.1 7.9l.2 1.06c.4.8 2.2 2.1 3.3 2.3 2.6-3.2 5.3-3.9 7.1-3.9z" />
  	<circle id="circle1" class="location" cx="342.112" cy="1038.682" r="1" />
  	<circle id="circle2" class="location" cx="342.112" cy="1038.682" r="1" />
  	<circle id="circle3" class="location" cx="342.112" cy="1038.682" r="1" />
  	<circle id="circle4" class="location" cx="342.112" cy="1038.682" r="1" />
  	
  </svg>