    <svg  x="0px" y="0px" width="100%" viewBox="-50.094 -52 831 1304" enable-background="new -50.094 -52 831 1304" xml:space="preserve">
  		
  	<style type="text/css">
  		
  	@keyframes expand{
		0% {
			r: 0;
		}
		100% {
			r: 150;
		}
	}
	
	@keyframes fade{
		0% {
			opacity: 1;
		}
		100% {
			opacity: 0;
		} 
	}
	
	
	@-moz-keyframes expand{
		0% {
			stroke-width: 0.3;
			transform: scale(1,1);
		}
		100% {
			stroke-width: 0.0001;
			transform: scale(150,150);
		}
	}
	
	
	@-moz-keyframes fade{
		0% {
			opacity: 1;
		}
		100% {
			opacity: 0;
		} 
	}	
  		
  		
	.location{
    
		stroke: #F2642A;
		stroke-width: 10;
		stroke-miterlimit: 10;
		opacity: 0;
		fill: none;
		
	    -moz-animation: expand 5s linear infinite,
	            		fade 5s ease infinite;	
	    animation: expand 5s linear infinite,
	               fade 5s ease infinite;

		transform-origin: 342.112px 1038.682px;
    }
    

    #circle2{animation-delay: 1.25s;}
    #circle3{animation-delay: 2.5s;}
    #circle4{animation-delay: 3.75s;}
  		
  	</style>
  
  	<path fill="#FFF" d="M97.47 1189.136c-1.775 0-3.388-.505-4.674-1.444l-.108.104c-.425-.403-.815-.84-1.163-1.3l-.137-.185c-.032-.04-.063-.08-.093-.13-.804-1.15-1.358-2.44-1.655-3.84-.867-1.62-1.19-3.43-.937-5.33l.12-.9.427-.8c.025-.21-.226-1.89-2.495-4.63-3.102-3.75-7.36-6.37-9.42-6.84-.27.38-.514.74-.743 1.08-2.382 3.5-4.56 6.03-10.925 6.75-.41.05-.86.07-1.34.07-.984 0-9.666-.16-11.718-5.85-.44-1.19-1.03-4.07 1.62-7.03.88-2.81 1.94-5.59 3.15-8.28l.28-.63.45-.53c4.31-5.1 12.91-7.43 19.07-7.43 1.04 0 2.04.07 2.96.2 1.12.17 2.27.41 3.39.65 1.83.4 3.73.8 5.36.8 2.02 0 2.95-.62 3.72-1.55l.68-.82.96-.47c2.05-1.01 4.06-2.14 5.99-3.37.69-.71 1.44-1.49 2.23-2.32 4.48-4.7 10.06-10.56 15.85-12.54 1.35-.46 1.68-1.02 2.73-3.67.9-2.26 2.13-5.36 5.13-7.84.65-.54 1.26-1.06 1.83-1.56 3.25-2.81 6.61-5.71 12.01-5.71.88 0 1.81.08 2.75.24.35.06.67.09.95.09 1.16 0 1.65-.42 3.48-3 1.85-2.62 4.37-6.2 9.44-7.06 2.17-.76 9.76-6.83 12.01-9.4 2.43-2.77 4.39-11.38 5.69-17.08.65-2.87 1.27-5.59 1.93-7.72.99-3.21 3.83-5.2 7.41-5.2 3.48 0 7.26 1.74 10.83 3.52.46.23.83.42 1.08.53.29.12.6.18.97.18 1.9 0 4.82-1.66 7.61-4.33.78-.75.97-2.12 1.25-4.48.36-3.14.86-7.43 4.2-11.2 2.73-3.08 6.78-4.57 12.38-4.57 2.54 0 5.07.29 7.31.55 1.44.17 2.79.32 3.84.36 11.45.44 20.07 2.97 31 6.49.63.21 1.92.34 3.06.46 2.55.27 5.44.57 7.8 2.02 1.9 1.17 3.28 2.49 4.39 3.54 1.54 1.47 2.35 2.19 3.92 2.63 2.19.62 5.22.36 8.48-.05 1.2-.15 2.45-.3 3.72-.4 2.61-.21 5.18.4 7.37.93 1.42.35 2.77.68 3.76.68.16 0 .31-.01.44-.02.78-.9 1.39-4.39 1.69-6.09.33-1.87.64-3.64 1.22-5.17 2.5-6.63 8.74-10.82 14.24-14.5 2.12-1.42 4.12-2.77 5.63-4.07.87-.75 1.77-1.36 2.69-1.88-1.73.29-3.61.38-5.41.16-1.13-.13-2.19-.2-3.18-.2-6.08 0-9.49 2.58-15.69 7.27l-.77.58c-6.05 4.56-13.63 7.18-20.82 7.18-9.92 0-17.96-4.89-22.05-13.4-.83-1.71-2.4-3.17-4.21-4.85-2.5-2.31-5.32-4.92-6.82-8.94-.76-2.03-1.24-4.08-1.67-5.88-1.32-5.61-1.91-6.87-5.23-7.53-.17-.03-.29-.04-.35-.04-.33 0-.92.56-1.79 1.41-1.62 1.58-4.07 3.97-8.05 3.97-1.31 0-2.68-.27-4.05-.82-.93-.37-3.17-.28-5.58-.09-1.35.11-2.74.22-4.15.22-2.7 0-6.65-.36-9.75-3.44-3.82-3.82-5.13-7.49-3.89-10.92.93-2.57 2.99-4.15 5.48-5.15-3.14-1.7-4.88-4.39-6.22-6.46-1.6-2.47-2.39-3.58-4.44-4.01l-1.05-.23c-2.25-.49-6-1.32-8.96-1.32-1.21 0-1.86.14-2.14.23-4.69 7.05-8.65 7.76-14.11 8.03-1.43.07-2.92.14-4.71.44-.99.16-2.18.62-3.44 1.1-2.07.8-4.41 1.7-7 1.7-4.3 0-7.72-2.38-10.16-7.07-.55-1.07-.97-2.26-1.41-3.52-.37-1.05-1.01-2.87-1.56-3.75l-1.86.49-1.86-1.46c-2.03-1.53-3.43-3.55-4.12-5.91-1.55-1.82-1.59-3.78-1.51-4.68.43-4.35 4.96-6.54 8.34-7.81 1.44-.54 2.19-.87 2.58-1.08.06-.73.02-2.11-.02-3.12-.68-.77-2.76-2.03-3.92-2.73-3.31-2-7.42-4.48-6.83-9.1.57-4.45 5.15-6.41 10.01-7.86 1-.3 2.07-.55 3.11-.8 2.29-.54 5.15-1.21 6.23-2.24.53-.5.99-.95 1.4-1.35 2.29-2.22 4.26-4.13 7.56-4.13 1.84 0 3.46.6 5.91 1.51.79.3 1.72.64 2.82 1.03 2.48.88 7.13-.83 11.06-3.95.77-.97 1.54-1.94 2.33-2.89l1.26-1.52 1.95-.25c.26-.03.52-.05.78-.05 1.11 0 2.06.29 2.88.67 1.57-1.79 3.7-2.55 6.91-2.55.39 0 .82.01 1.29.03 1.12.05 2.28.26 3.4.47 1.17.21 2.38.43 3.3.43.16 0 .28-.01.37-.02l.28-.33.74-.44c2.07-1.23 4.22-2.38 6.4-3.42 3.89-2.87 8.46-4.03 12.52-5.07 6.93-1.77 10.63-2.95 12.35-8.46l.19-.6.32-.53c1.57-2.55 2.93-5.25 4.04-8.04.57-2.53 1.26-4.57 1.87-6.38 1.24-3.66 1.99-5.88 1.09-10.29-1.61-7.8 1.08-12.81 3.68-17.66.37-.68.74-1.38 1.12-2.11.86-1.66.6-2.44-.55-5.15-.75-1.76-1.67-3.95-1.97-6.64-.36-3.25.83-5.92 1.69-7.87 1.14-2.57 1.11-2.61.18-3.7-.59-.7-2.53-1.4-5.51-1.4-6.05 0-11.7 2.6-12.79 4.32-.83 1.31-3.35 5.3-7.84 5.3-1.85 0-3.31-.68-4.37-1.18-.58-.27-1.09-.51-1.39-.51-.11 0-.24.02-.4.07-.21.06-5.38 1.55-9.61 1.55-1.21 0-4.88 0-7.14-2.75-1.25-1.52-1.72-3.48-1.31-5.51 2.28-11.51 14.47-15.65 24.27-18.97 3.97-1.35 7.71-2.62 9.99-4.07 2.13-1.36 4.75-3.42 5.2-5.49.53-2.46-1.86-6.15-4.4-10.07-1.39-2.15-2.84-4.37-4.1-6.81-2.79-5.38-4.52-8.2-8.34-10.84-3.54-2.45-4.98-5.17-4.26-8.08 1.1-4.52 6.09-5.15 9.73-5.61.51-.07 1.23-.16 1.67-.23 1.44-.96 2.7-2.28 4.02-3.67 2.9-3.05 6.52-6.85 12.81-6.85 1.54 0 3.17.24 4.87.71 8.84 2.46 10.38 6.44 11.48 11.4.32 1.44.65 2.94 1.44 4.7.45 1.01.77 1.62.99 2h.27c1.23.01 3.07.04 5.58.51 4.05.77 5.59 2.98 6.17 4.7.68 2.05.24 3.9-.59 5.47 2.15-.44 4.23-1 5.35-1.37.48-.21 2.07-1.38 3.02-2.08 2.94-2.16 5.26-3.88 7.93-3.88l.34.01c3.93.23 6.82 2.41 9.15 4.17 2.22 1.68 3.68 2.71 5.49 2.74l.34.01c3.21 0 6.15-.67 8.99-1.31 2.67-.61 5.44-1.24 8.26-1.24 4.69 0 8.64 1.71 12.23 5.33-.19-1.85.13-3.55.97-5.09 2.01-3.68 6.04-4.7 9.28-5.52.97-.25 2.52-.64 3.19-.98.28-1.16-.38-3.79-.82-5.58-.49-1.96-1-3.99-1.06-6.01-.16-4.94 4.31-9.47 9.05-14.26 1.46-1.48 3.63-3.67 4.89-5.28-3.33-2.22-5.4-5.82-5.92-10.37-.84-7.34 2.68-16.23 8.01-20.23 2.69-2.02 5.99-2.06 8.9-2.09.72-.01 1.77-.02 2.55-.1-.15-.45-.35-.96-.5-1.36-1.11-2.86-3.4-8.81 2.1-13.97.95-.9 1.85-1.65 2.64-2.3 2.71-2.25 2.85-2.36 2.44-4.46-.68.47-1.4.9-2.14 1.28l-.76.39-.85.12c-.29.04-.59.06-.88.06-2.69 0-4.57-1.54-5.92-3.29l-1.67 2.17c-7 9.05-9.16 11.66-12.6 11.66-1.16 0-2.25-.36-3.17-1.05l-.6-.45-3.36-4.65-.22-.5c-2.88-6.65-2.79-11.78.25-15.26-.47-.55-1.14-1.22-1.6-1.68-.71-.71-1.45-1.44-2.11-2.24-5.04-6.09-6.43-13.79-7.77-21.23-1.14-6.29-2.21-12.23-5.35-16.64-6.06-8.51-.58-15.85 3.05-20.71 1.39-1.87 2.71-3.63 3.5-5.33 3.26-7.04 7.98-12.79 12.55-18.34 3.03-3.69 5.9-7.18 8.39-11.05.68-1.05 1.66-2.08 2.81-3.27.66-.69 1.79-1.87 2.59-2.88-1.39-.41-3.16-.45-5.02-.45l-1.84.01c-1.14 0-2.35-.01-3.59-.13-.27-.02-.52-.03-.75-.03-.69 0-.94.11-.94.11-.2.19-.63 1.12-.92 1.74-1.31 2.85-3.74 8.16-12.02 8.16-.39 0-.78-.01-1.2-.03-.19-.01-.38-.02-.57-.02-3.53 0-7.2 1.88-11.09 3.87-4.6 2.36-9.37 4.81-14.96 4.81-1.65 0-3.29-.22-4.88-.66-5.33-1.48-8.96-5.16-12.16-8.41-1.91-1.94-3.72-3.78-5.52-4.72-.16 1.29-.21 3.05-.25 4.26-.11 3.54-.22 7.2-1.73 10.03-1.4 2.63-3.79 4.15-6.58 4.15-6.15 0-12.04-7.52-20.32-18.99-1.77-2.46-3.97-5.51-4.77-6.27-3.65-2.59-5.52-2.79-6.01-2.79-.36 0-.41.05-.55.24-1.21 1.52-1.71 6.44-.27 12.57.85 3.65.222 7.27-1.69 9.69-1.388 1.74-3.38 2.74-5.47 2.74-2.02 0-5.75-.91-8.08-7.02-1.2-3.14-1.15-6.18-1.11-8.85.02-1.02.03-1.99-.03-2.86-.16-2.45-1.63-4.8-3.32-7.52-.61-.99-1.24-2-1.84-3.07-4.17-5.3-4.65-13.95-3.75-19.88 1.03-6.85 4.53-10.33 10.39-10.33.39 0 .77.02 1.16.03.34.01.73.02.99.02 1.93-2.46 3.73-4.95 5.48-7.35 3.65-5.03 7.42-10.23 12.37-15.28 2.39-2.43 4.27-5.86 6.27-9.48 3.06-5.58 6.23-11.35 11.96-15.03 1.93-1.25 5.17-3.33 5.77-4.31.28-.46.24-2.26.21-4.34-.02-1.1-.04-2.35-.04-3.8.04-7.03-2.88-10.35-8.16-16.38-.49-.56-1-1.13-1.51-1.73-1.79-2.06-4.09-3.77-6.53-5.57-4.43-3.28-9.45-7.01-12.16-13.69-.74-1.83-.61-3.45-.12-4.81-1.17-.21-2.32-.62-3.28-1.44-.5 2.95-1.84 5.39-3.35 7.34 1.64.01 3.17.5 4.43 1.43.46.34 1.29.78 1.59.89 8.65 3 8.59 13.4 8.54 21-.02 2.84-.04 6.37.48 7.68 1.33 3.33.84 6.97-1.39 10.26-3.23 4.77-10.3 8.65-15.76 8.65-1.64 0-3.11-.34-4.37-1.01-7.41-3.93-8.87-13.84-9.18-22.42-1.1 2.4-2.5 4.88-4.34 7.35-1.02 1.36-1.34 4.49-1.63 7.25-.46 4.42-.93 8.99-4.32 11.89-3.51 3.01-11.08 5.45-16.87 5.45-6.3 0-9.28-2.7-10.67-4.97-4.15-6.78 1.63-14.98 3.5-17.32 4.32-5.44 6.03-8.34 7.63-14.79 1.474-5.96 4.72-10.49 7.852-14.87 2.62-3.67 5.11-7.13 6.28-11.16.19-.65.21-.71-.62-2.17-.93-1.62-2.33-4.07-1.88-7.55.53-4.14 2.47-6.57 3.73-8.06-.12-.15-.25-.32-.42-.52-7.71-9.24 1.87-18.36 7.6-23.81 1.97-1.87 5.255-5 5.62-6.25.15-.73.27-1.38.36-1.94-2.05 1.59-4.88 4.22-7.98 7.86-3.95 4.62-7.88 9.93-12.02 16.21-.39.59-1.21 2.25-1.93 3.71-3.84 7.83-6.92 13.46-11.62 14.58-2.81.67-2.91 1.22-3.54 4.77-.71 3.95-1.77 9.91-9.14 13.98-2.41 1.33-5.7 1.78-9.17 2.26-1.7.23-3.46.48-4.44.76-1.61.48-2.98.71-4.17.71-3.83 0-5.47-2.34-6-3.34-2.16-4.12.92-8.59 3.64-12.54.36-.53.84-1.23 1.05-1.57.07-.44-.05-1.17-.25-1.78l-.16.11c-3.78 2.73-6.68 4.66-9.63 4.66-3.46 0-6-2.61-6.04-6.21-.04-5.19 7.64-24.7 14.23-27.06l.25-.09c2.62-.95 5.41-1.83 8.06-1.83 2.03 0 3.51.54 4.56 1.21.65-.44 1.46-1.09 2.02-1.54 1.75-1.4 3.4-2.73 5.44-3.25.69-.18 1.38-.27 2.03-.27 2.91 0 5 1.44 6.22 4.27 1.55-1.65 3.35-4.2 4.29-5.53 1.26-1.8 2.36-3.35 3.47-4.49 3.38-3.46 7.38-5.83 11.25-8.12 2.89-1.71 5.62-3.33 7.89-5.28 2.29-2.03 4.43-4.33 6.33-6.81.39-.66 1.15-2.92 1.61-4.28 1.22-3.64 2.07-6.01 3.5-7.57-3.35 1.76-6.98 3.08-9.93 3.08-1.37 0-2.63-.27-3.73-.79l-1.75-.83-.73-1.79c-.1-.22-.2-.44-.31-.65-.13-.02-.27-.02-.43-.02-1.89 0-4.79.95-7.6 1.86-3.84 1.25-8.18 2.67-12.5 2.67-3.31 0-6.27-.84-8.8-2.49-3.7-2.42-5.4-5.25-5.04-8.4.58-5.17 6.17-7.26 10.66-8.93.67-.25 1.57-.58 2.22-.86.81-1.61 1.99-2.92 2.99-4.03.31-.35.71-.79 1.03-1.19l-.14-.13c-2.58-2.43-5.79-5.45-4.88-9.5.07-.35.18-.68.31-1-.89-.65-1.63-1.29-2.2-2.17-2.3-3.59-2.02-6.65-1.38-8.58 1.74-5.26 7.8-7.53 11.42-8.89l.57-.21c1.434-.55 2.68-.93 3.804-1.18-1.45-1.34-2.65-2.9-3.35-4.72-.82-2.12-.57-4.38.69-6.2 2.22-3.24 7.21-4.63 16.68-4.63 1.08 0 1.96.02 2.46.04h.19c1.07.02 2.05.06 2.94.09 1.02.04 1.93.07 2.76.07 2.02 0 3.21 0 5.95-2.25-1.49-.81-2.83-2.04-3.51-3.94-.66-1.84-.82-4.75 2.17-8.17 1.19-1.35 2.16-3.1 3.18-4.94.75-1.36 1.53-2.77 2.47-4.17.35-.52.72-1 1.11-1.42-1.61.62-3.32.99-5.13 1.01h-.18c-5.27 0-7.83-3.15-8.46-6.1-.29-1.37-.21-2.83.15-4.3l-1.88-7.98c-1.34.85-2.86 1.33-4.5 1.4l-2.46.11-1.58-1.89c-.63-.75-1-1.54-1.21-2.3-1.79-.29-3.87-1.34-5.31-4.28-.48-.99-1.02-2-1.57-3.03-2.96-5.55-6.64-12.47-4.62-20l.06-.24c-2.22-.3-5.34-.84-8.19-3.29-3.53-3.04-5.88-6.67-7.15-11.08-1.2-2.13-2.07-4.42-2.59-6.82l-.56-2.55 1.78-1.91c1.19-1.29 2.26-2.7 3.17-4.204l.38-.54 2.83-3.52 1.38-.47c.64-.22 1.31-.33 1.97-.33 1.27 0 2.31.34 3.16.87-.5-1.52-.77-3.39-.08-5.48l.16-.49 3.64-6.28h2.88c5.61 0 7.65 6.08 9.15 11.46.58-2.69.96-5.57.91-6.81-.12-1.345.11-3.45 1.89-5.52 3.15-3.67 9.29-4.837 11.2-4.957.17-.01.34-.02.51-.02 6.03 0 8.21 5.85 9.38 8.99.21.55.51 1.38.66 1.63 5.17 8.88 2.65 16.4.62 22.44l-.08.26c1.08-1.7 3.14-4.04 6.2-4.04 1.68 0 3.24.73 4.35 2.01.46-2.42 1.35-4.62 2.92-6.34 1.8-1.97 4.23-3.01 7.03-3.01h.08c-.93-4.57-1.18-8.46 1.35-11.11 1.88-1.97 1.98-4.67 2.01-8.91.03-5.75.07-13.63 8.6-18.82 2.74-1.68 5.14-2.45 7.54-2.45 4.47 0 7.52 2.66 10.5 5.64.12.12.29.28.49.49l.06.06 2.77.09c.29-.23.74-.67 1.05-.98.99-.97 2.31-2.28 4.12-3.02-3.06-2-5.6-5.27-4.42-10.83 1.07-5.06 2.29-10.8 7.98-10.8 1.72 0 3.21.63 4.89 1.69-.11-1.08-.29-2.22-.51-3.22-.08-.35-.39-1.29-.65-2.04-1.45-4.28-3.43-10.15-.28-14.12 1.62-2.04 4.18-3.08 7.61-3.08 2.56 0 5.42.54 7.95 1.02l.22.04-.01-.09c-.59-5.94 3.73-11.58 7.2-16.11.99-1.29 2.39-3.13 2.98-4.17-1.3-4.52-.39-9.46 2.57-13.72 3.53-5.11 9.23-8.276 14.89-8.276 1.98 0 3.89.38 5.68 1.15 6.26 1.14 9.82 5.89 12.21 9.09.63.84 1.52 2.03 2.11 2.6.16-.1.38-.24.65-.46 1.69-1.33 3.53-2.01 5.48-2.01 3.98 0 6.78 2.83 8.82 4.9.44.45 1.02 1.03 1.51 1.46l.03-.03.79-.33c1.07-.44 2.13-.67 3.16-.67 2.11 0 4.56 1.01 6.06 3.64.37.06.78.09 1.25.09 1.56 0 3.43-.34 5.23-.66 1.57-.28 3.19-.58 4.76-.68 1.57-.11 2.61-.15 3.47-.15 2.75 0 4.13.5 6.155 1.32.91.36 2.03.82 3.82 1.41 0 0 .22.06.76.06 2.09 0 5.48-.84 8.77-1.66 4.04-1.01 8.23-2.05 11.84-2.05 4.1 0 6.58 1.41 8.07 2.98.91.4 1.69.73 2.37.99.26-.73.61-1.35.97-1.84 1.16-1.61 3.53-3.53 8.23-3.53 4.25 0 9.03 1.53 11.21 2.55.38.17 1.99.66 3.17 1.02 6.8 2.1 9.61 2.96 10.63 6.13 1.81 5.68-3.15 11.02-7.53 15.73-.62.67-1.37 1.48-1.97 2.17 4.75 3.03 4.48 7.06 3.32 10.01-2.98 7.65-10.54 15.17-18.8 18.74-8.83 3.81-14.36 7.7-21.48 13.54-4.53 3.72-9.44 5.85-14.19 7.92-3.53 1.53-6.87 2.98-9.87 5-.62.42-1.55 1.01-2.66 1.72-2.51 1.59-10.03 6.38-11.54 8.27-.24.59-.42 1.22-.61 1.88-.52 1.8-1.23 4.23-3.38 6.25 1.81-.53 3.35-1.23 3.99-1.69.24-.18.66-.55 1.21-1.01 5.76-4.88 9.32-7.35 12.77-7.35 2.04 0 3.87.91 5.02 2.51 2.03 2.81 1.18 6.49.22 9.38-3.59 10.77-14.97 18.08-24.12 23.95-1.64 1.05-3.19 2.05-4.58 2.99-.61.41-1.61 1.23-2.62 2.16.93.19 1.8.4 2.64.61 1.67.41 3.11.76 4.5.76 1.17 0 2.32-.25 3.61-.79l1.64-.69c4.87-2.04 9.08-3.81 14.94-3.81.76 0 1.54.03 2.32.09 1.81.14 2.69-.3 4.69-1.46 2.16-1.25 5.12-2.96 9.74-3h.15c6.89 0 11.5 3.58 15.56 6.75 1.68 1.31 3.27 2.54 4.93 3.46 1.17.65 2.37.94 3.88.94 1.51 0 3.2-.284 4.98-.59 2.1-.354 4.48-.76 7.01-.76 3.3 0 6.29.687 9.13 2.097 8.4 4.17 22.18 8.39 32.26 8.39 3.31 0 6.03-.432 8.07-1.29.99-.42 2.05-.63 3.14-.63 8.45 0 16.56 13.79 19.66 19.72 6.21 11.89 4.76 21.41-4.69 30.866l-1.33 1.33c-6.29 6.27-12.79 12.76-16.24 20.5-1.38 3.09-2.36 6.04-3.4 9.16-1.62 4.87-3.3 9.89-6.5 15.24-1.12 1.87-2.23 3.83-3.3 5.72-2.86 5.05-5.81 10.26-9.62 15.03-2.8 3.51-6.06 5.91-9.21 8.23-3.29 2.43-6.14 4.53-8.07 7.59-.87 1.38-1.75 3.66-2.68 6.07-2.22 5.74-4.73 12.24-10.13 14.8-.99.468-2.7 1.75-4.36 3-4.11 3.08-8.75 6.567-13.51 6.73.02.22.04.44.04.67.02 2.42-.77 4.387-1.34 5.82-.48 1.18-.63 1.64-.55 1.86.53 1.34 1.96 2.547 3.62 3.946 1.82 1.54 3.89 3.284 5.41 5.784 1.99 3.27 2.1 6.82.32 9.99-3.39 6.02-13.01 8.83-18.44 8.83h-.01c-.5 0-.97-.02-1.42-.07-2.55-.26-4.6-1.31-6.25-2.15-1.09-.56-2.13-1.09-2.76-1.09-.06 0-.12.01-.18.02-3.03.46-9.34 4.84-11.254 7.82-4.06 6.32-9.26 7.13-13.35 7.41.82.28 1.57.53 2.14.71 2.78.92 4.31 1.42 5.4 2.16 1.53.8 2.99 1.75 4.33 2.83l.79.64c.2.01.45.02.76.02 2.97 0 6.54-.974 7.55-1.47.45-.4.89-.79 1.31-1.17 4.62-4.14 8.27-7.4 13.68-7.4 3.74 0 7.655 1.67 12.685 5.43 3.29 2.46 6.12 5.52 8.86 8.49 3.89 4.22 7.57 8.2 11.96 9.88 1 .38 1.9.71 2.72 1.01 8.05 2.94 10.4 4.76 13.23 14.57 2.37 8.22 5.42 14.8 8.57 18.53.36.43 1.46 1.07 2.345 1.58 2.192 1.28 4.922 2.87 6.312 5.99.74 1.65 1.19 3.07 1.58 4.33.69 2.16 1.06 3.35 2.57 4.86 9.26 9.21 7.27 23.33 4.97 33.15-.35 1.51-.09 2.39.47 4.31.3 1.01.64 2.16.9 3.53l.13.66-.05.67c-.19 2.33-.84 4.53-1.92 6.55.11 1.6.52 3.1 1.26 4.57l.52 1.05v1.07l2.51.89-.02 3.55c-.02 2.89-.89 5.08-1.53 6.68-.76 1.91-.99 2.49-.32 4.17.45 1.13 1.09 2.12 1.82 3.27 1.41 2.23 3.18 4.99 3.54 9.05.39 4.36.42 8.95.45 13.38.05 7.89.1 16.05 2.22 22.81.27.86 1.76 2.51 2.75 3.61 1.73 1.92 3.52 3.91 4.13 6.38l.25 1.04-.2 1.06c-.17.92-.45 1.81-.85 2.64.956.88 2.32 1.91 3.04 2.45.85.65 1.52 1.15 2.07 1.66 4.44 4.14 9.31 7.09 14.45 10.22 7.37 4.49 14.99 9.12 21.37 17.4 3.99 5.18 5.73 11.17 7.41 16.96 1.64 5.65 3.19 10.98 6.68 14.38 5.44 5.3 4.78 9.11 3.34 13.54l-.27.84c.43.3.94.64 1.32.88 1.44.93 3.08 1.99 4.19 3.58 3.08 4.41.78 9.525-.9 13.26-.45 1-1.13 2.52-1.21 3.054-.82 7.07 2.06 15.23 4.29 20.75 1.25 3.09 3.07 6.04 5 9.16 1.93 3.11 3.92 6.32 5.46 9.9 2.38 5.51 5.48 15.28-.48 18.75-.99.58-2.13.88-3.31.88-2.72 0-4.97-1.54-6.78-2.77-.31-.21-.76-.52-.97-.64-.91-.35-2.1-.57-3.35-.81-.67-.13-1.39-.27-2.13-.44 4.33 4.73 9.6 9.39 13.39 12.74l1.59 1.41c5.87 5.22 7.44 12.86 8.95 20.26.91 4.43 1.77 8.61 3.47 11.92 6.81 13.24 2.78 27.37-10.03 35.17-.55.34-1.38.8-2.4 1.37-8.91 4.97-12.34 7.8-13.6 9.35l.3.23c1.1.64 2.31 1.84 4.87 4.34 5.94 5.85 10.25 9.6 12.85 11.21.33-2.32 2.06-4.28 3.22-5.6.19-.26.68-1.37 1-2.1 1.23-2.79 3.18-7.21 7.35-8.39 1.46-1.11 3.09-1.96 4.86-2.52l1.44-.46 1.45.413c6.76 1.93 13.65 2.01 20.93 2.09 9.43.11 19.17.22 29.09 4.46 8.01 3.42 13.54 10.8 18.886 17.93 3.94 5.26 7.66 10.23 12.08 13.37l.45.32.37.41c1.4 1.54 2.72 3.17 3.95 4.85 1.62 1.15 2.89 3.02 3.84 5.65 3.04 8.42 3.29 29.07.59 35.56-.89 3.21-1.93 6.41-3.07 9.54l-.47 1.26-1.04.86c-4.78 3.97-6.45 11.11-8.06 18.02-.33 1.42-.66 2.82-1 4.16-3.44 13.35-14.6 21.57-24.79 28.22-1.38.89-2.77 1.64-4.108 2.36-1.81.96-3.51 1.88-4.83 3-.07.06-.13.11-.18.16.02.07.04.14.06.2.51 1.68 1.47 4.81-.64 8.5-3.71 6.48-10.74 9.45-14.6 10.64-1.26.39-2.51.58-3.74.58-3.13 0-5.43-1.24-7.11-2.14-.82-.44-1.6-.86-1.99-.86-.05 0-.11 0-.172.02l-.35.06-.36.02c-.85.04-1.57.18-2.19.44 2.78 7.38 2.52 17.3-3.03 23.57-3.06 3.46-8.28 6.42-11.82 7.9-1.36.57-2.8.86-4.3.86-.53 0-1.05-.04-1.56-.1 5.9 3.7 11.55 8.58 14.43 12.11 1.91 2.34 4.16 3.25 8.06 3.25 1.99 0 4.16-.24 6.45-.5 2.06-.23 4.19-.47 6.36-.55.23-.01.55-.03.95-.05 1.29-.07 3.46-.2 5.8-.2 7.79 0 12.28 1.37 14.56 4.43 1.42 1.9 1.81 4.26 1.09 6.65-.79 2.66-2.33 4.52-3.56 6.02-1.31 1.58-1.65 2.1-1.63 2.76.02.51.27 1.64.49 2.65.85 3.93 2.22 10.25-1.9 14.15-.97 2.296-2.25 4.45-3.81 6.42l-.45.5c-4.47 4.28-11.31 5.077-17.93 5.846-4.12.48-8.38.97-10.8 2.28-2.89 1.56-3.92 4.2-5.11 7.26-1.48 3.81-3.71 9.564-10.93 9.564-2.11 0-4.51-.54-7.32-1.66-.946-.37-1.87-.55-2.84-.55-2.78 0-5.826 1.475-9.35 3.18-4.14 2.01-8.84 4.28-14.45 4.69-.51.04-1.02.07-1.54.1-4.08.27-7.93.52-10.49 2.58-.43.35-1.04.94-1.69 1.56-2.8 2.68-6.64 6.34-11.43 6.34-1.69 0-4.09-.47-6.36-2.58-1.95-1-3.96-1.93-5.99-2.78l-1.14-.47-.79-.95c-2-2.42-4.55-3.494-8.25-3.494-1.36 0-2.89.15-4.69.44-.61.1-1.21.16-1.79.16-5.26 0-7.75-3.93-9.09-6.03-.39-.61-.98-1.54-1.26-1.73-.86-.275-2.22-.43-3.96-.43-2.77 0-6.01.39-9.15.78-3.09.375-6 .73-8.56.74-1.98 0-4.06-.255-6.07-.5-1.99-.245-4.05-.5-5.88-.5-3.2 0-4.29.77-4.83 1.35-2.28 2.44-4.88 3.68-7.73 3.68-3.81 0-6.79-2.213-9.43-4.17-1.16-.86-2.26-1.68-3.27-2.19-2.32-1.18-5.19-1.77-8.23-2.39-.74-.153-1.5-.31-2.27-.48.98 1.22 1.68 2.595 1.92 4.17.36 2.297-.37 4.6-2.03 6.48-4.68 5.286-10.49 11.866-18.57 11.87-4.23 0-8.44-1.88-12.5-5.59-.98-.9-3.16-2.21-5.09-3.37-3.46-2.08-6.45-3.87-8.12-6.09-1.17-1.57-2.02-3.08-2.77-4.41-1.9-3.38-2.35-4.19-6.03-4.19-.82 0-1.92-.03-3.2-.08-1.65-.05-3.53-.12-5.42-.12-5.1 0-6.73.51-7.09.65-.92.76-1.57 2.47-2.27 4.28-.82 2.13-1.76 4.56-3.53 6.69-1.1 1.32-3.19 2.89-6.92 2.89-5.74 0-14.04-3.82-22.06-7.51-3.61-1.66-7.33-3.37-9.53-4.07-.92 1.2-2.85 3.48-6.3 3.48-1.83 0-3.68-.64-5.79-2.01-4.37-2.84-7.63-6.5-10.78-10.04-2.19-2.46-4.27-4.79-6.59-6.71-3.43-2.83-7.18-3.98-12.94-3.98-2.2 0-4.48.16-6.9.33-2.59.18-5.26.37-8.03.37h-.01c-.96 0-1.85-.02-2.73-.07-.19-.01-.38-.01-.58-.01-8.65 0-24.33 6.74-25.92 12.34-.35 1.22-.54 2.28-.738 3.29-.676 3.6-1.57 6.65-5.466 9.08.91 1 1.67 2.24 1.84 3.86.17 1.6-.32 3.17-1.37 4.44-2.285 2.75-5.19 4.487-7.76 6.02-2.24 1.34-4.35 2.606-5.21 4.1-3.18 5.56-6.46 9-13.01 9-1.39 0-2.98-.15-5.14-.48l-.66-.1c-7.09-1.07-9.39-2.53-10.98-10.15-.21-1-.27-1.3-4.44-1.96-2.68-.42-5.73-.9-8.44-2.8-2.48-1.72-4.17-3.31-5.66-4.71-2.43-2.28-4.03-3.78-8.49-5.26-2.07-.68-4.2-.98-6.91-.98-1.59 0-3.2.1-4.9.21-1.78.12-3.63.23-5.55.23-2.22 0-4.21-.16-6.1-.49-1.13-.2-2.51-.58-4.11-1.02-2.88-.794-6.82-1.88-9.53-1.88-.48 0-.82.036-1.04.07-.11.436-.23 1.11-.32 1.6-.44 2.43-1.05 5.75-4 7.98-1.5 1.14-3.3 1.71-5.37 1.71-.93 0-1.77-.11-2.51-.2-.52-.07-1-.12-1.34-.13l-.54.31-.84.156c-1.81.33-3.46.92-5 1.8-2.23 4.19-6.06 5.4-8.46 6.17-.59.19-1.45.46-1.8.66-.05.18-.14.64-.09 1.58.15 2.85-1.25 5.85-4.15 8.91-3.78 3.97-10.17 8-15.08 8zm1.37-11.043l.398.518c2.735-1.25 6.75-4.45 7.457-6.19-.317-9.03 5.874-11 8.868-11.95 2.314-.73 2.55-.93 2.835-1.74l.548-1.54 1.356-.92c2.805-1.9 5.91-3.22 9.242-3.92 1.183-.51 2.472-.76 3.914-.76.965 0 1.828.11 2.59.21l.477.06c.106-.44.207-1 .285-1.42.3-1.65.676-3.7 1.84-5.53 1.262-1.98 3.91-4.34 9.357-4.34 4.063 0 8.756 1.3 12.184 2.24 1.3.36 2.53.7 3.18.81 1.34.24 2.72.35 4.38.35 1.6 0 3.21-.1 4.92-.21 1.79-.11 3.63-.23 5.54-.23 3.77 0 6.96.48 10.04 1.49 6.56 2.17 9.43 4.86 12.21 7.47 1.36 1.28 2.64 2.48 4.52 3.79.84.58 2.6.86 4.3 1.13 4.11.65 10.98 1.74 12.67 9.79.2.94.35 1.55.46 1.94.59.12 1.45.25 2.23.37l.68.1c1.62.25 2.78.37 3.63.37 1.46 0 2.06 0 4.34-3.97 2.15-3.77 5.66-5.86 8.76-7.72.77-.46 1.53-.92 2.24-1.38-1.4-1.4-2.71-3.38-2.33-6.03s2.31-4.69 5.73-6.08c1.6-.65 1.9-1.02 1.91-1.03.15-.23.36-1.34.51-2.14.21-1.11.48-2.51.94-4.16 3.44-12.17 24.97-19.61 35.55-19.61.37 0 .74.01 1.08.03.74.04 1.48.05 2.22.05h.01c2.42 0 4.92-.17 7.33-.34 2.48-.17 5.05-.35 7.6-.35 5.45 0 12.57.71 19.3 6.27 2.92 2.41 5.35 5.14 7.7 7.78 2.72 3.06 5.29 5.95 8.35 8.03 1.14-1.31 3.12-3.03 6.33-3.03.69 0 1.4.09 2.13.25 3.01.68 7.32 2.67 12.31 4.96 5.89 2.71 13.91 6.4 17.6 6.58.5-.85.94-1.99 1.4-3.17 1.09-2.84 2.45-6.37 5.78-8.81 2.43-1.78 6.17-2.51 12.91-2.51 2.06 0 4.11.07 5.76.13 1.14.04 2.13.08 2.86.08 9.54 0 12.55 5.37 14.75 9.29.66 1.16 1.27 2.26 2.05 3.3.63.73 3.53 2.48 5.27 3.52 2.56 1.53 4.98 2.98 6.69 4.55 2.16 1.97 4.1 2.97 5.76 2.97 3.17 0 6.8-3.71 9.92-7.19-1.19-.93-3.09-2.06-4.26-2.77-2.62-1.57-4.89-2.93-6.25-4.74-1.47-1.95-4.9-6.51-2.81-10.71.52-1.04 2.17-3.48 6.11-3.48 4.01 0 9.02 2.65 11.1 4.06 2.36 1.59 5.67 2.27 9.18 3 3.55.73 7.22 1.48 10.73 3.27 1.76.89 3.32 2.05 4.7 3.08.99.74 2.62 1.94 3.36 2.17.11-.07.28-.21.52-.47 2.85-3.04 6.82-4.53 12.14-4.53 2.44 0 4.91.3 7.09.57 1.8.22 3.49.43 4.81.43 1.99 0 4.62-.32 7.4-.67 3.44-.42 6.99-.85 10.37-.85 2.84 0 5.19.31 7.17.97 3.53 1.16 5.31 3.97 6.49 5.83.27.42.65 1.02.92 1.35 2.29-.37 4.33-.55 6.21-.55 6.2 0 11.27 2.06 15.09 6.14 2.18.94 4.33 1.97 6.41 3.06l.78.41.52.58c1.09-.47 3.19-2.47 4.24-3.48.81-.77 1.57-1.5 2.33-2.11 5.02-4.05 11.17-4.45 16.12-4.77.49-.03.99-.06 1.47-.1 3.7-.27 7.16-1.94 10.82-3.71 4.24-2.06 8.63-4.18 13.7-4.18 2.23 0 4.42.42 6.53 1.26 2.4.95 3.48.98 3.8.95.42-.5 1.04-2.1 1.46-3.18 1.41-3.64 3.55-9.13 9.68-12.44 4.11-2.22 9.34-2.83 14.4-3.42 4.59-.53 9.76-1.14 11.95-2.94 1.09-1.43 1.94-3 2.54-4.66l.59-1.65 1.1-.68c.13-1.1-.42-3.66-.7-4.94-.33-1.53-.65-2.98-.7-4.35-.2-4.57 2.26-7.56 3.89-9.54.13-.16.26-.31.38-.46-1.06-.15-2.59-.27-4.75-.27-2.06 0-3.97.11-5.23.18-.49.03-.88.05-1.15.06-1.8.07-3.66.27-5.62.49-2.46.28-5.01.56-7.56.56-6.84 0-12.01-2.27-15.81-6.93-4.02-4.93-14.41-12.47-19.67-13.62-4.25.19-7.44-2.08-8.6-5.98l-.78-2.6 1.75-2.07c2.29-2.7 5.34-4.39 8.87-4.94 1.45-.66 2.99-1 4.61-1 2.26 0 4.19.63 5.9 1.19 1.1.36 2.14.7 2.82.7.22 0 .34-.04.44-.08 3.17-1.33 6.7-3.61 8.2-5.3 3.28-3.71 2.79-11.24.16-15.5l-1.73-2.8 1.89-2.69c2.71-3.87 6.73-6.06 11.63-6.36.55-.08 1.1-.12 1.64-.12 2.91 0 5.11 1.18 6.72 2.05 1.12.61 1.79.95 2.36.95.23 0 .49-.05.78-.14 4.07-1.26 7.37-3.49 8.83-5.98-.04-.19-.13-.47-.19-.69-.6-1.95-1.99-6.51 3.23-10.92 2.12-1.8 4.48-3.06 6.55-4.17 1.21-.65 2.35-1.26 3.37-1.93 9.01-5.89 18.03-12.46 20.57-22.34.33-1.27.63-2.59.95-3.94 1.71-7.33 3.81-16.36 10.33-22.49.93-2.62 1.77-5.29 2.5-7.96l.16-.59.24-.43c1.54-3.96 1.4-24.59-1.19-28.97l-.75-.29-.87-1.25c-1.07-1.54-2.25-3.02-3.5-4.43-5.45-4.03-9.7-9.7-13.81-15.18-4.76-6.36-9.26-12.37-14.81-14.73-8.09-3.46-16.44-3.56-25.27-3.66-7.08-.08-14.38-.17-21.83-2.02-.42.23-.81.52-1.18.86l-1.42 1.3-1 .01c-.43.69-.97 1.92-1.33 2.72-.48 1.09-.96 2.2-1.57 3.21.53 1.16.95 3.21-.61 5.75l-1.13 1.82-1.98.41c-1.39 2.11-3.63 3.33-6.25 3.33-6 0-13.37-6.77-21.68-14.95-.94-.92-2.06-2.02-2.71-2.62h-.02l-4.71-3.55-.53-1.11c-4.58-9.62 9.89-17.69 18.53-22.51.88-.49 1.6-.89 2.08-1.18 8.3-5.06 10.73-13.5 6.33-22.05-2.33-4.53-3.37-9.59-4.37-14.48-1.25-6.06-2.42-11.79-5.81-14.8l-1.57-1.39c-7.66-6.77-19.2-16.98-23.04-26.39-1.38-2.97-1.06-5.31-.55-6.76.51-1.43 1.71-3.4 4.52-4.71l2.36-1.1 2.25 1.3c2.69 1.55 4.99 3.63 6.83 6.17.71.98 2.03 1.32 4.86 1.86 1.52.28 3.22.61 4.91 1.23-.33-1.03-.7-2.04-1.05-2.86-1.25-2.9-2.96-5.66-4.78-8.59-2.06-3.34-4.2-6.79-5.77-10.67-2.65-6.54-6.04-16.32-4.95-25.68.24-2.02 1.15-4.04 2.03-6 .47-1.04 1.2-2.66 1.44-3.64-.33-.23-.74-.49-1.05-.69-2.43-1.57-7.49-4.84-5.91-10.61.26-.97.54-1.81.78-2.58.21-.63.46-1.39.53-1.78-.12-.2-.46-.68-1.32-1.51-5.38-5.24-7.38-12.11-9.31-18.76-1.49-5.13-2.9-9.97-5.73-13.65-5.24-6.8-11.76-10.76-18.65-14.95-5.35-3.25-10.88-6.62-16.08-11.45-.18-.17-.81-.65-1.27-.99-3.52-2.65-8.83-6.67-7.62-12.07l.35-1.53.33-.31c-.29-.34-.59-.67-.84-.95-1.84-2.05-3.94-4.37-4.86-7.31-2.57-8.19-2.63-17.11-2.68-25.74-.03-4.42-.05-8.6-.41-12.54-.14-1.56-.79-2.64-2.02-4.57-.88-1.38-1.87-2.94-2.67-4.93-2.15-5.38-.67-9.11.32-11.57l.18-.44-1.37-.94-.25-2.28c-.09-.83-.15-1.68-.18-2.52-1.29-2.98-1.9-6.13-1.82-9.41l.04-1.43.79-1.2c.55-.82.9-1.69 1.06-2.64-.15-.62-.33-1.23-.51-1.86-.7-2.38-1.56-5.34-.61-9.42 2.8-11.89 2.07-19.45-2.28-23.77-3.25-3.24-4.21-6.26-5.05-8.93-.34-1.08-.66-2.09-1.14-3.19-.32-.37-1.48-1.05-2.25-1.5-1.63-.95-3.47-2.02-4.94-3.76-5.19-6.13-8.6-15.47-10.55-22.22-.69-2.39-1.51-4.95-2.34-5.81-.63-.65-2.26-1.24-4.72-2.14-.85-.31-1.8-.66-2.85-1.06-6.59-2.51-11.24-7.56-15.75-12.43-2.54-2.76-4.95-5.36-7.5-7.26-3.06-2.29-5.31-3.45-6.7-3.45-1.58 0-3.86 2.04-7.01 4.86l-1.57 1.39c-2.8 2.47-9.91 3.79-13.97 3.79-4.82 0-7.29-1.61-8.55-3.42-.71-.51-1.47-.96-2.26-1.35l-.97-.48c-.69-.25-1.77-.6-2.63-.88-8.85-2.91-14.71-5.2-15.39-10.32-.16-1.22-.15-4.33 3.41-6.67 4.14-2.72 8.11-2.95 11.3-3.14 3.83-.22 5-.4 6.61-2.89 3.14-4.89 11.77-11.33 18.17-12.3.55-.08 1.12-.13 1.68-.13 3.04 0 5.41 1.21 7.31 2.18 1.05.53 2.03 1.04 2.72 1.11.13.01.26.01.4.01 3.6 0 8.64-2.22 9.62-3.56l-.04-.07c-.67-1.11-1.95-2.19-3.31-3.34-2.24-1.89-5.03-4.25-6.48-7.95-1.55-3.94-.27-7.12.57-9.23.09-.21.17-.41.24-.6-5.43-3.41-4.48-7.26-3.41-9.27 1.44-2.69 4.09-4.23 7.28-4.23 2.05 0 3.96.62 5.36 1.07.3.1.58.19.82.26 1.58-.07 5.77-3.21 7.8-4.73 2.15-1.62 4.18-3.14 6.08-4.04 1.79-.85 3.77-5.97 5.08-9.36 1.11-2.88 2.17-5.6 3.55-7.8 2.93-4.66 7.01-7.66 10.6-10.31 2.75-2.02 5.35-3.94 7.32-6.42 3.31-4.15 5.95-8.8 8.74-13.72 1.1-1.95 2.24-3.96 3.42-5.93 2.64-4.4 4.07-8.7 5.59-13.25 1.08-3.21 2.18-6.54 3.76-10.08 4.22-9.44 11.38-16.59 18.31-23.5l1.33-1.32c6.34-6.35 7.07-11.19 2.9-19.18-3.29-6.3-8.39-13.04-10.72-14.23-3.15 1.2-6.94 1.81-11.28 1.81-12.16 0-27.54-4.89-36.7-9.43-1.45-.72-2.94-1.05-4.69-1.05-1.68 0-3.45.3-5.33.62-2.11.36-4.3.74-6.66.74-3.21 0-6.07-.72-8.72-2.19-2.34-1.3-4.31-2.83-6.22-4.32-3.7-2.87-6.13-4.64-9.43-4.64-2.04.02-3.16.67-4.86 1.66-2.27 1.32-5.42 3.18-10.48 2.78-.53-.04-1.05-.06-1.55-.06-3.85 0-6.72 1.21-11.07 3.03l-1.69.71c-2.51 1.04-4.95 1.55-7.44 1.55-2.59 0-4.86-.56-6.87-1.05-1.87-.46-3.64-.89-5.66-.89h-.22c-5.42 0-7-3.24-7.43-4.632-1.21-3.965 1.71-7.61 4.4-10.35 2.13-2.17 4.59-4.17 5.66-4.89 1.5-1.02 3.1-2.044 4.79-3.13 4.19-2.695 8.94-5.74 12.82-9.134-3.19 1.4-7.4 2.5-11.14 2.5-6.88 0-9.82-3.54-10.95-5.65-1.03-1.9-1.18-4.01-.42-5.93 1.48-3.75 5.72-5.19 8.01-5.96l.5-.18c.73-.29.73-.29 1.26-2.08.26-.91.59-2.05 1.12-3.28 1.43-3.31 6.06-6.68 15.26-12.53 1.01-.64 1.87-1.18 2.43-1.57 3.77-2.54 7.69-4.24 11.49-5.89 4.31-1.87 8.38-3.63 11.83-6.47 7.64-6.27 13.99-10.73 23.86-14.99 5.35-2.31 10.42-7.01 12.83-11.79-1.44-.77-3.39-2.1-4.16-4.66-.64-2.11-.26-4.42 1.14-6.87.91-1.59 2.47-3.27 4.27-5.21 1.05-1.12 2.82-3.04 4.02-4.62-.98-.32-2-.63-2.74-.86-2.35-.72-3.61-1.12-4.48-1.53-1.24-.58-3.99-1.4-6.19-1.56.21 1.93-.52 3.33-1.05 4.06-.67.92-2.22 2.47-5.19 2.47-2.38 0-5.63-1-10.86-3.34l-1.88-.81-.56-.95c-.18-.03-.47-.06-.88-.06-2.38 0-5.96.89-9.42 1.75-4.04 1.01-7.86 1.96-11.18 1.96-1.47 0-2.75-.19-3.9-.57-2.1-.7-3.45-1.24-4.43-1.64-1.46-.59-1.46-.59-2.4-.59-.62 0-1.48.04-2.8.13-1.02.07-2.3.3-3.66.54-2.14.38-4.55.82-7 .82-3.04 0-5.57-.66-7.74-2.02l-1.01-.63c-.92.29-1.75.38-2.42.38-3.94 0-6.6-2.69-8.74-4.86-.48-.49-1.13-1.14-1.65-1.58-2.17 1.55-4.25 2.3-6.38 2.3-4.87 0-7.69-3.77-9.95-6.79-2.31-3.09-3.88-4.98-6.28-5.285l-.85-.1-.76-.38c-2.61-1.3-6.51.41-8.66 3.51-.77 1.11-1.93 3.33-1.05 5.66 1.61 4.28-1.35 8.15-4.77 12.62-1.95 2.55-5.18 6.76-5.2 8.84.1.222.3.59.44.85.83 1.54 2.39 4.39.76 7.45-1.11 2.07-3.21 3.26-6.24 3.53-.28.03-.59.04-.92.04-1.74 0-3.83-.39-6.05-.81-1.72-.33-3.62-.69-5.14-.81.33 1.36.9 3.06 1.2 3.96.4 1.19.75 2.22.94 3.12.89 4.1 1.93 11.56-1.14 15.36-1.29 1.6-3.13 2.49-5.17 2.49-1.76 0-3.5-.65-5.34-1.98l-.36-.26-.13-.09c-.07.31-.14.65-.22 1-.03.15-.05.26-.05.34.65.54 2.73 1.2 3.88 1.57.6.19 1.19.38 1.76.58 9.01 3.16 8.68 9.462 8.37 11.32-.85 4.99-6.05 9.36-11.13 9.36-2.67 0-4.95-1.22-6.37-3.25-.51.45-1.08.914-1.73 1.34-.2.82-.57 1.623-1.17 2.37-1.09 1.34-2.71 2.11-4.46 2.11-3.05 0-5.74-2.17-9.63-6.17l-.37-.38c-.68-.675-2.74-2.727-3.45-2.727-.17 0-.82.07-2.33.99-3.6 2.19-3.77 4.9-3.8 10.33-.02 4.54-.05 10.14-4.01 14.9.06 1.53.82 4.73 1.24 6.55 1.22 5.17 2.02 8.59-.1 11.26-1.05 1.33-2.64 2.09-4.34 2.09-.26 0-.53-.02-.81-.06l-1.3-.18-4.29-3.31c-.46 2.81 0 8.08.18 10.08.21 2.44.38 4.37.25 5.92-.06.7-.16 1.888-.18 2.798.42.02.98.01 1.58-.02.32-.02.62-.02.9-.02 6.29 0 7.81 4.1 8.12 5.36 1.45 5.83-5.13 11.98-8.11 13.56-3.52 1.87-9.05 3.86-13.99 3.86-1.61 0-3.11-.21-4.45-.63-5.98-1.87-5.46-8.16-5.27-10.53.04-.41.08-.96.1-1.4-4.79-3.23-5.02-8-3.75-12.57l-.19.01c-1.74 0-4.28-.66-6.59-3.77l-.98-1.32v-1.65c0-5.01 1.43-9.27 2.69-13.02 2.04-6.09 2.98-9.48.21-14.24-.56-.96-.96-2.03-1.38-3.16-.23-.62-.6-1.61-.94-2.3-.91.23-2.02.62-2.71 1-.18 4.01-1.42 14.04-5.34 18.32-1.91 2.08-3.99 2.52-5.41 2.52-2.57 0-4.88-1.37-6.84-4.06-.17-.23-.32-.46-.47-.71-.03.1-.05.21-.07.33l-.07.44-2.32 6.57H208c-2.87 0-4.75-1.49-6.03-3.24.26.58.55 1.14.87 1.69l.38.62.19.7c.71 2.76 2 4.83 4.18 6.7.74.64 1.77.8 3.4 1.01 2.1.27 5.29.69 7.23 3.6 1.94 2.9 1.35 6.38.63 9.09-1 3.73 1.44 8.3 3.79 12.72.35.67.71 1.33 1.04 1.98.48 0 .94.03 1.41.09 1.62.2 2.75.85 3.53 1.53l7.51-4.06 1.93 5.55.06.17c.93-.28 2.01-.45 3.28-.45 3 0 8.18 1.14 10.13 4.29.803 1.3 1.03 2.83.653 4.24l.52-.68.09-.13c2.95-3.9 6.15-4.72 8.32-4.72 2.44 0 4.76 1.05 6.54 2.95 2.27 2.43 3.48 6.08 3.24 9.767-.24 3.7-3.67 5.58-8.87 8.43-.4.22-.88.48-1.34.74.01.02.02.05.03.07 1.29 2.83 2.06 6.61-1.63 8.61-1.41.76-2.94 1.15-4.55 1.15-.62 0-1.17-.06-1.63-.11-.61.95-1.18 1.98-1.79 3.07-.73 1.33-1.52 2.76-2.48 4.18 1.95.43 4.91 1.48 5.78 4.63 1.04 3.76-1.82 6.17-3.71 7.77-.43.36-.905.76-1.36 1.184-5.466 5.13-8.915 6.7-14.76 6.7-.94 0-1.97-.03-3.13-.08-.84-.03-1.76-.06-2.78-.08h-.21c-.456-.01-1.25-.03-2.23-.03-1.81 0-3.29.06-4.485.15 1.36.81 2.79 1.54 3.68 2 .87.45 1.67.87 2.36 1.25 3.98 2.24 6.18 6.97 5.13 11.01-.86 3.27-3.65 5.37-7.13 5.37-1.1 0-2.27-.21-3.47-.62-3.17-1.1-5.09-2.42-6.37-3.29-.33-.23-.78-.53-.98-.64-.28.01-1.09.11-3.01.84l-.61.23c-1.17.43-4.01 1.5-5.14 2.43.14.1.29.2.42.29 2.39 1.66 6 4.17 5.39 8.28-.07.52-.28 1.37-.85 2.27l.23.22c1.23 1.15 2.19 2.06 2.8 3.23 2.82 5.48-1.18 9.92-3.1 12.06-.51.56-1.27 1.41-1.475 1.8-.91 3.25-4.05 4.42-7.69 5.78-.32.12-.71.26-1.12.42.25.02.52.03.8.03 2.73 0 6.12-1.11 9.396-2.18 3.55-1.16 7.23-2.36 10.71-2.36 2.4 0 4.54.57 6.35 1.7l.72.45.53.66c.26.324.51.66.74 1.004 3.21-.98 8.83-4.42 10.09-5.97.55-.69.86-1.15 1.04-1.44-.15-.21-.37-.52-.71-.94-1.75-2.17-2.05-4.99-.83-7.54 1.85-3.88 6.73-6.19 10.36-6.19 2.56 0 4.72 1.04 6.08 2.93.48.67.85 1.29 1.14 1.84.53-.05 1.19-.1 1.88-.1 2.81 0 4.93.916 6.3 2.72.73.98 1.84 3.08.96 6.196-1.51 5.32-5.43 7.21-8.03 8.46-1.21.58-2 .98-2.34 1.43-.01.2.01.55.02.82.08 1.7.25 5.25-2.97 8.09l-.52.4c-2.12 1.42-4.37 2.66-6.71 3.69-.4.96-.93 2.52-1.27 3.55-.55 1.62-1.01 2.96-1.48 4.1 1.59.33 2.98 1.18 4.03 2.46 2.15 2.66 2.5 6.72 1.13 13.18-.88 4.14-4.58 7.66-8.5 11.39-6.53 6.22-8.12 8.59-6.81 10.16 5.12 6.14 3.14 10.12.52 13.21-.88 1.04-1.42 1.67-1.59 3.06.03.23.4.88.64 1.31 1.1 1.92 2.95 5.15 1.54 9.95-1.66 5.65-4.76 9.98-7.76 14.17-2.71 3.78-5.27 7.35-6.28 11.44-2.05 8.26-4.6 12.41-9.52 18.6-2.05 2.58-2.85 4.95-2.79 5.78.3.12.98.29 2.14.29 4.06 0 8.93-1.91 10.28-2.97.49-.81.79-3.67.96-5.39.42-4.04.9-8.62 3.56-12.2 2.51-3.36 4.16-6.95 5.71-12.39 2.01-7.04 4.69-12.88 11.25-18.47 4.5-3.83 5.01-5.79 4.4-8.27l-.12-.5-.02-.52c-.03-1-.14-4.04 2-6.26 1.19-1.23 2.82-1.91 4.57-1.91 3.11 0 5.85 2.04 8.85 4.496l.39.32c.31.02.67.04.95.05 2.59.13 6.14.3 8.21 3.13 1.14 1.57 1.49 3.52.96 5.51-.45 1.69-1.45 2.88-2.31 3.78 1.81 3.14 4.73 5.3 8.04 7.76 2.76 2.045 5.61 4.16 8.12 7.05.5.58 1 1.144 1.48 1.69 5.74 6.55 10.7 12.2 10.65 23.02-.01 1.36.01 2.54.03 3.57.16 9.06-1.12 11.15-10.57 17.23-3.59 2.31-6.02 6.74-8.6 11.44-2.23 4.06-4.54 8.25-7.89 11.67-4.43 4.51-7.82 9.19-11.42 14.14-1.89 2.61-3.86 5.32-6.03 8.07-2.69 3.41-6.47 3.41-7.71 3.41-.38 0-.77-.01-1.16-.02-.3-.01-.63-.03-.9-.02-.12.32-.28.89-.42 1.82-.64 4.26-.14 10.03 1.81 12.31l.35.4.26.48c.52.956 1.12 1.93 1.77 2.97.63 1.02 1.3 2.08 1.92 3.2.45-1.02 1.01-1.99 1.71-2.87 2.06-2.6 5.04-4.03 8.39-4.03 3.57 0 7.48 1.55 11.93 4.73 1.66 1.18 3.43 3.58 6.96 8.474 2.34 3.24 7.12 9.86 10.41 13.11.06-.97.09-1.98.12-2.77.15-5.06.45-14.47 8.91-14.47 1 0 2.06.17 3.15.5 4.58 1.39 7.89 4.76 10.82 7.72 2.55 2.59 4.95 5.03 7.71 5.8.73.2 1.45.3 2.2.3 3.18 0 6.69-1.8 10.4-3.7 4.84-2.48 10.4-5.31 16.79-4.94.22.01.43.02.63.02 1.87 0 1.89-.04 2.93-2.32 1.24-2.69 3.53-7.69 10.94-7.69.54 0 1.1.02 1.67.08.84.07 1.78.08 2.67.08l1.85-.01c3.29 0 8.79 0 13.1 3.65 1.66 1.4 2.63 3.33 2.74 5.42.24 4.46-3.34 8.19-6.2 11.18-.6.63-1.42 1.48-1.64 1.79-2.8 4.33-5.98 8.21-9.06 11.96-4.36 5.31-8.47 10.32-11.2 16.2-1.22 2.65-2.92 4.92-4.56 7.11-4.03 5.41-4.47 6.74-2.91 8.93 4.43 6.23 5.76 13.57 7.04 20.66 1.17 6.46 2.27 12.56 5.64 16.64.35.42.89.96 1.46 1.52 2.13 2.12 5.04 5.01 5 9.06-.02 1.59-.52 3.93-2.8 6.18-.04.24-.08.94.39 2.46 1.29-1.61 2.69-3.42 3.75-4.79 4.15-5.38 5.62-7.2 7.1-8.16.89-.58 1.92-.89 2.98-.89 3.34 0 4.96 2.61 6.12 4.69l.19-.21.37-.43.46-.34c1.67-1.22 3.26-1.48 4.3-1.48 2.91 0 6.73 1.74 8.38 10.04 1.62 8.15-2.5 11.57-5.82 14.32-.72.6-1.46 1.21-2.19 1.9-.33.31-.4.47-.4.48-.07.4.46 1.788.78 2.61.91 2.35 2.27 5.89.56 9.62-2.45 5.328-8.31 5.398-11.82 5.44-1.03.01-2.55.03-3.15.2-2.23 1.82-4.4 6.91-3.94 11 .31 2.69 1.57 3.25 2.04 3.46 3.48 1.55 4.45 4.17 4.72 5.6.96 5.11-3.45 9.58-8.56 14.75-2.1 2.12-5.57 5.64-6.15 7.16.07.957.42 2.33.75 3.67.95 3.83 2.14 8.6-.14 12.93-2.02 3.84-6.15 4.89-9.48 5.73-.7.18-1.72.44-2.47.69l.48.94c2.9 5.68 5.14 10.7 3.16 14.61-.94 1.84-2.67 3.1-4.77 3.44-.46.078-.93.11-1.39.11-5.82 0-10.05-5.71-12.58-9.122-.27-.37-.52-.7-.74-.99-2.91-3.77-4.94-4.09-6.62-4.09-1.7 0-3.71.46-6.04.99-3.22.74-6.87 1.57-11.21 1.57h-.51c-5.16-.1-8.73-2.79-11.34-4.76-1.1-.83-2.15-1.63-2.99-1.98-.72.46-1.77 1.23-2.46 1.75-2.03 1.49-3.95 2.91-5.81 3.53-1.99.65-8.73 2.53-13.54 2.53-5.1 0-7.17-2.26-8.01-4.15-1.22-2.77-.19-5.37 1.01-7.21-4.69-.23-6.89-2.11-9.49-7.85-1.23-2.71-1.73-5-2.1-6.67-.63-2.82-.64-2.872-4.4-3.92-.82-.23-1.56-.343-2.19-.343-1.837 0-2.987 1.02-5.57 3.74-1.76 1.84-3.75 3.94-6.53 5.61-.52.31-1.068.54-1.657.71 2.97 3.12 4.93 6.62 7 10.62 1.04 2.01 2.35 4.02 3.614 5.98 3.54 5.46 7.19 11.1 5.78 17.62-.96 4.42-4.09 8.28-9.59 11.79-3.3 2.11-7.6 3.57-12.16 5.12-5.94 2.02-12.03 4.09-15.32 7.34 1.29-.24 2.47-.53 3.13-.72 1.06-.31 2.14-.47 3.19-.47 2.16 0 3.84.64 5.06 1.19l.09-.15c3.73-5.89 13.5-8.97 21.24-8.97 5.85 0 10.39 1.7 13.13 4.92 5.04 5.93 2.63 11.35 1.33 14.26-.47 1.06-.95 2.15-.89 2.71.14 1.24.65 2.44 1.24 3.84 1.38 3.27 3.28 7.74.23 13.64-.41.78-.81 1.53-1.19 2.25-2.38 4.44-3.58 6.66-2.7 10.92 1.45 7.06-.01 11.36-1.41 15.51-.584 1.73-1.19 3.52-1.65 5.66l-.08.41-.15.38c-1.29 3.28-2.86 6.47-4.68 9.49-3.6 10.56-12.25 12.77-19.22 14.55-3.58.91-6.97 1.78-9.3 3.61l-.45.36-.52.24c-1.85.866-3.67 1.82-5.43 2.85-1.37 1.29-3.6 2.54-7.08 2.54-1.82 0-3.56-.32-5.09-.6-.8-.15-1.63-.3-2.07-.32-.24-.01-.47-.02-.68-.02-.39.62-.97 1.38-1.81 2.14-1.11 1.004-2.56 1.56-4.07 1.56-1.04 0-1.97-.26-2.77-.6l-.08.11-.33.43-.42.34c-2.478 2.045-9.018 6.804-16.3 6.804-1.71 0-3.35-.27-4.87-.8-1.16-.41-2.14-.778-2.98-1.09-.64-.24-1.34-.5-1.87-.68-.34.32-.76.723-1.15 1.1-.43.424-.92.9-1.48 1.43-3.04 2.89-7.35 3.91-10.81 4.723-.65.15-1.27.3-1.83.45 3.29 2.09 6.94 4.92 7.12 9.45.34 8.43-.8 11.34-9.01 14.43-.06.02-.11.04-.17.07 5.42 1.11 7.5 7.05 8.67 10.39.31.88.63 1.78.85 2.22.74 1.41 1.22 1.69 1.23 1.69.79 0 2.21-.55 3.46-1.03 1.597-.62 3.4-1.31 5.41-1.64 2.36-.39 4.29-.49 5.84-.56 3.62-.18 4.08-.2 6.45-3.85 1.91-2.94 5.37-4.43 10.3-4.43 4.04 0 8.46.97 11.1 1.55l.96.21c6.21 1.31 8.96 5.56 10.77 8.37 1.38 2.14 2.01 2.98 3.12 3.32.55.16 1.54.29 2.49.41 3.35.43 12.24 1.56 11.81 10.67-.22 4.78-4.84 5.2-8.54 5.55-1.33.12-3.89.36-5.76.75l.18.18c.34.34 1.26.52 2.67.52 1.02 0 2.15-.09 3.36-.19 1.34-.1 2.73-.21 4.13-.21 2.35 0 4.23.31 5.92.98.09.04.17.06.23.08.31-.23.83-.73 1.19-1.09 1.62-1.59 4.35-4.25 8.77-4.25.74 0 1.51.08 2.28.23 9.97 1.967 11.74 9.537 13.04 15.06.39 1.66.76 3.228 1.29 4.66.67 1.79 2.33 3.327 4.25 5.1 2.25 2.08 4.79 4.43 6.44 7.86 3.07 6.39 8.79 7.73 13.04 7.73 5.05 0 10.44-1.88 14.79-5.16l.76-.57c6.87-5.19 12.29-9.29 21.72-9.29 1.38 0 2.85.09 4.37.27 2.44.29 5.23-.72 8.19-1.83 3.17-1.19 6.75-2.53 10.81-2.53.76 0 1.53.05 2.27.14l4.03.51.32 4.04c.98 12.26-7.29 14.91-12.24 16.49-2.09.67-4.07 1.31-5.33 2.39-1.97 1.7-4.32 3.27-6.59 4.8-4.46 2.99-9.08 6.09-10.45 9.73-.25.65-.51 2.1-.73 3.37-.88 4.99-2.21 12.52-9.21 14.09-.88.19-1.81.29-2.78.29-2.19 0-4.28-.5-6.13-.95-1.61-.39-3.07-.76-4.22-.68-1.05.08-2.13.22-3.27.36-2.07.26-4.21.52-6.46.52-2.18 0-4.14-.26-5.98-.78-4.01-1.14-6.27-3.29-8.09-5.01-.93-.89-1.73-1.65-2.74-2.27-.535-.27-2.46-.48-3.606-.6-1.71-.18-3.47-.36-5.09-.89-10.48-3.38-18.12-5.63-28.31-6.014-1.44-.05-2.98-.23-4.61-.42-2.07-.24-4.21-.48-6.17-.48-2.51 0-4.2.41-4.9 1.21-1.2 1.35-1.45 3.05-1.76 5.72-.38 3.23-.85 7.26-4.26 10.54-3.384 3.24-8.65 7.11-14.53 7.11-1.72 0-3.38-.34-4.924-1-.37-.16-.93-.43-1.6-.77-.89-.448-3.13-1.56-4.82-2.13-.36 1.433-.74 3.09-1.13 4.81-1.79 7.86-3.82 16.763-7.92 21.45-1.49 1.7-12.18 11.78-17.83 12.67-.91.14-1.58.97-2.99 2.97-2.03 2.88-5.11 7.232-11.64 7.232-.83 0-1.71-.077-2.6-.227-2.28-.39-3.1.17-6.58 3.17-.62.54-1.28 1.1-1.99 1.69-.98.81-1.45 1.93-2.21 3.83-1.18 2.97-2.96 7.45-8.78 9.44-3.48 1.2-8.32 6.27-11.85 9.98-.99 1.04-1.92 2.02-2.77 2.87l-.37.37-.44.29c-2.13 1.38-4.34 2.66-6.6 3.81-2.76 2.86-6.34 4.31-10.66 4.31-2.69 0-5.22-.54-7.46-1.02-1-.21-1.94-.41-2.72-.53-.45-.06-.97-.09-1.54-.09-4.05 0-8.97 1.57-11.03 3.46-.9 2.04-1.68 4.15-2.36 6.28.26.01.53.03.73.01 2.29-.26 2.29-.26 3.78-2.44.46-.68.98-1.44 1.64-2.32 1.56-2.07 3.96-3.21 6.77-3.21 6.94 0 16.14 7.29 20.07 13.84 2.73 4.58 2.69 8.16 2.03 10.52zm153.25-744.075c-1.99.936-5.27 4.57-5.356 6.126.06 1.184.063 2.61.067 4.26.02 5.09.05 16.855 3.69 19.325 1.84-.04 5.85-1.93 7.42-4.26.28-.41.45-.81.39-.94-1.25-3.13-1.22-7.17-1.2-11.45.03-3.79.07-10.84-1.82-11.5-.93-.33-2.12-.92-3.18-1.58zm-78.55-30.25c3.024 0 5.813 1.63 7.65 4.475 2.346 3.63 2.896 8.578 1.338 12.036-.288.63-.695 1.29-1.223 2.08l.634-.09c1.81-.25 4.86-.67 5.7-1.11 3.19-1.76 3.54-3.73 4.12-6.98.73-4.13 1.84-10.32 10.59-12.61 1.52-1.39 4.25-6.95 5.45-9.38.63-1.29 1.18-2.42 1.68-3.35-2.99 3.75-6.58 7.08-11.2 7.08-.35 0-.7-.02-1.04-.06-2.89-.34-4.4-2.15-5.21-3.89-2.18 1.73-4.82 3.62-8 3.62-1.68 0-3.28-.55-4.62-1.57-1.24.14-3.02.75-3.93 1.08-1.26 1.34-3.42 5.34-5.2 9.27.16-.07.31-.13.48-.18.91-.3 1.83-.45 2.75-.45zm72.357-66.402c-1.062.918-2.382 1.908-3.852 2.87 1.338-.607 2.64-1.304 3.888-2.083l-.014-.298-.03-.49zm5.275-10.608c.03.258.05.516.055.774.21-.13.417-.255.624-.373-.24-.13-.46-.26-.67-.41zm-1.84-93.99l-2.84 2.123-.506.23c-.69.41-1.85 1.77-2.765 3.16 2.11-1.14 4.26-3.32 6.11-5.5zm1.86-30.29c.014 0 .097.07.268.165 4.62 2.588 4.202 7.625 3.98 10.33-.01.105-.02.217-.028.334 2.88-.067 6.704-1.428 9.094-2.695.077-.043.162-.1.253-.166-1.97-.25-4.15-.938-5.8-2.732-2.71-2.94-2.37-6.923-2.05-10.774.06-.697-.11-2.563-.25-4.21-.07-.766-.14-1.553-.2-2.355-.54 1.09-1.14 2.198-1.75 3.32-1.2 2.184-3.98 7.287-3.54 8.782zM152.7 221.53l-1.772-1.416-.012-.01c-.798-.398-1.513-.99-2.066-1.697-.392-.16-1.057-.35-1.537-.488-2.03-.59-5.096-1.47-7.092-4.49-2.79-4.24-2.91-11.14-.36-21.11 1.11-4.32 2.8-8.36 4.45-12.26 2.02-4.8 3.93-9.33 4.49-13.81.11-.87.01-3.31-.09-5.46-.42-9.66-.43-17.38 3.44-21.42 2.08-2.17 5.09-2.98 8.17-2.17.65.17 1.22.26 1.7.26 1.16 0 1.86-.54 3.73-2.18 1.79-1.57 4.02-3.53 7.41-4.67 1.61-.54 3.05-.81 4.39-.81 1.64 0 2.93.39 3.95.93-.56-4.88 2.58-9.64 4.6-11.75l.39-.41c4.29-4.46 4.37-4.55 2.99-8.59-.12-.36-.57-1.18-.93-1.84-1.35-2.47-3.04-5.55-2.35-8.95.56-2.76 2.46-4.29 3.65-5.16-.11-.38-.26-.82-.37-1.16-.54-1.59-1.22-3.57-1.11-5.83.26-5.31 3.13-9.51 5.6-12.58 6.01-7.46 13-8.55 19.17-9.52 2.86-.44 5.57-.87 8.27-1.87 6.26-2.33 12.43-5.83 18.39-9.21 1.45-.82 2.89-1.64 4.34-2.44.51-.28 1.19-.71 2-1.22 5.57-3.47 11.44-6.85 16.74-6.85 4.47 0 7.85 2.41 9.28 6.61 5.04 14.82-15.65 37.44-16.53 38.4-.94 1.03-1.81 1.87-2.57 2.62-2.2 2.14-3.2 3.11-3.95 6-.36 1.39-.51 2.98-.67 4.67-.46 4.89-1.08 11.58-8.25 15.32-1.06.55-1.85 1.35-2.84 2.36-2.05 2.09-4.86 4.95-10.34 4.95-.4 0-.81-.02-1.25-.05-.44-.03-.89-.05-1.33-.05-3.4 0-5.33.9-5.74 2.67-.14.64-.1 1.14-.02 1.89.31 3.23-.13 6.85-5.76 9.24-2.01.85-4.18 1.27-6.63 1.27-1.95 0-3.77-.26-5.53-.51-.61-.08-1.22-.17-1.83-.24-.04 0-.23-.02-.66-.02-.72 0-1.65.05-2.64.1-1.19.06-2.43.13-3.62.13-2.43 0-4.05-.29-5.4-.95-.31-.16-.62-.33-.91-.51.27 2.2-.03 4.52-.29 6.57l-.12.95c-.77 6.43-2.91 10.44-5.17 14.67-.72 1.35-1.46 2.74-2.21 4.3-.66 1.38-1.25 2.9-1.89 4.52-1.81 4.62-3.86 9.86-8.31 13.67-.53.45-.66.69-.47 3.47.07.9.14 1.93.11 3.03-.09 4.37-2.42 7.42-4.13 9.65-1.2 1.57-1.96 2.6-2.15 3.65-.03.45 0 1.8.03 2.8.18 6.83.41 15.33-6.07 16.5l-2.23.4zm-4.203-13.74c.33.16 1.065.372 1.573.518.314.09.646.185.992.292.007-1.415-.03-2.824-.054-3.713-.06-2.305-.085-3.556.085-4.603.585-3.618 2.53-6.158 4.094-8.2 1.308-1.708 2.05-2.726 2.07-3.773.014-.64-.036-1.37-.09-2.13-.218-3.15-.548-7.91 3.943-11.76 2.555-2.18 3.99-5.84 5.508-9.72.67-1.71 1.364-3.47 2.182-5.18.838-1.75 1.67-3.31 2.403-4.68 2.04-3.82 3.515-6.59 4.064-11.16l.128-1.03c.077-.59.186-1.44.255-2.24-1.17.54-2.14 1.4-3.318 2.43-2.24 1.97-5.31 4.67-10.33 4.67-.96 0-1.938-.09-2.958-.29-.798 3.02-.483 10.24-.355 13.19.13 3.04.23 5.43.02 7.14-.74 5.85-3.01 11.23-5.2 16.44-1.57 3.73-3.05 7.25-3.97 10.85-2.37 9.26-1.35 12.35-1.05 12.99zm49.684-79.243c.71 0 1.31.03 1.84.093.68.08 1.36.176 2.04.27 1.48.21 2.89.407 4.14.407.93 0 1.7-.108 2.37-.34-.08-1.096-.1-2.548.31-4.312 1.51-6.525 7.3-10.42 15.48-10.42.69 0 1.39.026 2.1.08.17.013.34.02.49.02 1.19 0 1.55-.27 3.21-1.963 1.29-1.307 2.89-2.933 5.34-4.216 2.06-1.072 2.47-2.538 2.93-7.385.18-1.91.39-4.08.95-6.24 1.45-5.59 4.1-8.16 6.66-10.65.71-.69 1.45-1.4 2.21-2.23 8.24-8.91 16.13-22.6 14.47-28.22-2.93.11-8.79 3.76-11.32 5.34-.94.59-1.75 1.1-2.42 1.47-1.41.79-2.83 1.6-4.26 2.4-6.3 3.58-12.82 7.27-19.83 9.88-3.65 1.36-7.14 1.91-10.21 2.39-5.42.85-9.34 1.46-12.93 5.91-2.28 2.84-3.29 4.86-3.39 6.79-.01.37.35 1.42.59 2.11.66 1.91 1.55 4.54.8 7.41-.61 2.35-2.16 3.7-3.31 4.56.28.58.64 1.24.9 1.72.6 1.1 1.23 2.24 1.63 3.41 3.34 9.8-.44 13.75-5.24 18.75l-.38.4c-.8.83-1.43 2-1.72 2.84h.35c.93 0 2.03-.06 3.09-.12 1.12-.06 2.19-.11 3.17-.11zM498.7 64.575c-2.543 0-4.994-1.33-6.734-2.693-.772-.395-1.272-.922-1.75-1.55l-.008.006-.355-.5-.005-.006-.652-.915c-.19-.263-.392-.547-.61-.853-.37-.513-.68-.91-.93-1.22-1.74 1.992-4.186 3.08-6.97 3.08-5.72 0-12.068-4.742-13.32-9.95-.1-.42-.194-.826-.286-1.223-.78-3.38-1.057-4.31-2.77-5.47-1.855-1.25-2.888-3.27-2.766-5.39.24-4.21 4.673-6.72 8.488-8.72-.08-.31-.17-.63-.243-.89-.58-2.08-1.3-4.68-.67-7.33.21-.9.41-1.83.61-2.78.88-4.17 1.88-8.89 4.61-12.86 2.19-3.19 5.03-4.81 8.41-4.81 1.66 0 3.18.4 4.52.75.87.23 1.7.45 2.48.54l.13.02c.57-1.87 2-4.95 6.38-5.91.73-.16 1.48-.23 2.24-.23 6.51 0 13.28 5.85 13.92 12.03.87 8.41-5.54 10.43-7.95 11.19-.49.16-1.18.37-1.57.56-.34 1.03-.63 2.89-.67 4.24l.12.04c9.39 2.67 17.93 5.62 19.2 12.35.47 2.52-.01 6.32-5.01 10.1-1.47 1.12-3.17 2.05-4.81 2.95-4.42 2.43-6.24 3.74-6.08 5.55.3 3.44-.34 5.99-1.99 7.78-1.29 1.41-3.07 2.18-5.03 2.18zm-11.18-18.557c4.08 0 6.903 3.163 8.53 5.31 1.434-5.8 7.007-8.866 10.932-11.024 1.387-.763 2.697-1.483 3.592-2.16.25-.19.454-.36.62-.508-1.67-1.187-5.528-2.64-11.508-4.336-1.014-.288-1.884-.536-2.532-.744-1.237-.398-3.452-1.56-4.395-4.872-1.19-4.16.08-11.97 2.37-14.664 1.98-2.332 4.53-3.133 6.39-3.718.3-.096.7-.222 1.02-.337-.01-.08-.01-.17-.02-.273-.09-.858-1.82-2.54-3.33-2.96-.58 2.025-2.24 6.1-8.47 6.1-.66 0-1.36-.044-2.12-.134-1.48-.174-2.8-.52-3.86-.796-.65-.17-1.37-.36-1.8-.41-.09.093-.21.24-.37.47-1.6 2.317-2.35 5.846-3.07 9.258-.22 1-.43 1.984-.65 2.933 0 .48.34 1.7.54 2.44.75 2.713 2.15 7.762-2.07 10.907-.52.39-1.12.7-2.11 1.217-.34.176-.93.483-1.57.838 1.9 2.593 2.55 5.386 3.14 7.947l.25 1.068c.38.82 2.18 2.127 3.33 2.33 2.52-3.196 5.24-3.882 7.11-3.882z"/>

  	<g id="circles">
  		<circle id="circle1" class="location" cx="342.112" cy="1038.682" r="1" />
  		<circle id="circle2" class="location" cx="342.112" cy="1038.682" r="1" />
  		<circle id="circle3" class="location" cx="342.112" cy="1038.682" r="1" />
  		<circle id="circle4" class="location" cx="342.112" cy="1038.682" r="1" />
  	</g>
  </svg>